<svg width="50" height="50" viewBox="0 0 50 50" fill="none" xmlns="http://www.w3.org/2000/svg">
<path d="M17.4998 6.25C17.4998 5.91848 17.6315 5.60054 17.866 5.36612C18.1004 5.1317 18.4183 5 18.7498 5H28.7498C29.0814 5 29.3993 5.1317 29.6337 5.36612C29.8681 5.60054 29.9998 5.91848 29.9998 6.25C29.9998 6.58152 29.8681 6.89946 29.6337 7.13388C29.3993 7.3683 29.0814 7.5 28.7498 7.5H18.7498C18.4183 7.5 18.1004 7.3683 17.866 7.13388C17.6315 6.89946 17.4998 6.58152 17.4998 6.25ZM36.1248 9.8225C36.3591 9.58892 36.6765 9.45776 37.0073 9.45776C37.3382 9.45776 37.6555 9.58892 37.8898 9.8225L41.4248 13.3575C41.5442 13.4728 41.6395 13.6107 41.705 13.7632C41.7705 13.9157 41.805 14.0798 41.8064 14.2457C41.8078 14.4117 41.7762 14.5763 41.7134 14.7299C41.6505 14.8836 41.5577 15.0231 41.4403 15.1405C41.323 15.2579 41.1834 15.3507 41.0298 15.4135C40.8762 15.4764 40.7116 15.508 40.5456 15.5066C40.3796 15.5051 40.2156 15.4706 40.0631 15.4051C39.9106 15.3396 39.7726 15.2444 39.6573 15.125L36.1248 11.59C35.8905 11.3556 35.7589 11.0377 35.7589 10.7062C35.7589 10.3748 35.8905 10.0569 36.1248 9.8225ZM29.9998 43.85C26.5994 45.1499 22.8782 45.357 19.3545 44.4424C15.8308 43.5278 12.68 41.5371 10.341 38.7474C8.002 35.9578 6.59121 32.5082 6.30511 28.879C6.01902 25.2498 6.87186 21.6217 8.74486 18.5C10.6179 15.3783 13.4178 12.9185 16.7547 11.4631C20.0915 10.0077 23.7992 9.62911 27.3614 10.3802C30.9235 11.1312 34.1628 12.9745 36.628 15.6532C39.0932 18.332 40.6616 21.7129 41.1148 25.325C40.2782 25.0895 39.4112 24.98 38.5423 25C37.9055 21.2998 35.9046 17.9729 32.9346 15.6759C29.9647 13.3789 26.2415 12.2788 22.5001 12.5927C18.7586 12.9067 15.2708 14.6119 12.7252 17.3717C10.1796 20.1315 8.76114 23.7454 8.74984 27.5C8.74907 30.0583 9.40266 32.5744 10.6485 34.8089C11.8943 37.0434 13.6909 38.9222 15.8676 40.2665C18.0442 41.6109 20.5286 42.3762 23.0844 42.4897C25.6402 42.6032 28.1826 42.0611 30.4698 40.915C30.1578 41.8276 29.999 42.7855 29.9998 43.75V43.85Z" fill="#333333"/>
<path d="M21.7767 29.0274L16.1051 20.9175C16.0266 20.8051 15.9902 20.6687 16.0023 20.5322C16.0143 20.3957 16.074 20.2678 16.171 20.1709C16.2679 20.074 16.3958 20.0143 16.5324 20.0023C16.6689 19.9902 16.8054 20.0266 16.9178 20.105L25.0303 25.7748C25.5279 26.1331 25.8645 26.6728 25.9671 27.2771C26.0697 27.8815 25.9302 28.502 25.5788 29.0043C25.2273 29.5067 24.6921 29.8505 24.089 29.9615C23.4859 30.0724 22.8634 29.9416 22.3561 29.5972C22.1317 29.4418 21.9358 29.2491 21.7767 29.0274Z" fill="#333333"/>
<mask id="mask0_2_56" style="mask-type:alpha" maskUnits="userSpaceOnUse" x="32" y="27" width="17" height="18">
<path d="M33.375 43.6251L36.8085 33.8337L43.2708 40.4734L33.375 43.6251Z" fill="white" stroke="white" stroke-width="2" stroke-linejoin="round"/>
<path d="M42.479 36.896L44.4582 34.9168C45.7775 33.5975 47.0972 33.5975 48.4165 34.9168M40.104 34.521L42.0832 32.5418C43.1389 31.4861 43.2707 30.5627 42.479 29.771L40.104 34.521Z" stroke="white" stroke-linecap="round" stroke-linejoin="round"/>
<path d="M38.9167 29.7708C39.3539 29.7708 39.7083 29.4164 39.7083 28.9792C39.7083 28.5419 39.3539 28.1875 38.9167 28.1875C38.4794 28.1875 38.125 28.5419 38.125 28.9792C38.125 29.4164 38.4794 29.7708 38.9167 29.7708Z" fill="white"/>
<path d="M47.6252 29.3751C48.0624 29.3751 48.4168 29.0206 48.4168 28.5834C48.4168 28.1462 48.0624 27.7917 47.6252 27.7917C47.1879 27.7917 46.8335 28.1462 46.8335 28.5834C46.8335 29.0206 47.1879 29.3751 47.6252 29.3751Z" fill="white"/>
<path d="M47.6252 38.4793C48.0624 38.4793 48.4168 38.1249 48.4168 37.6877C48.4168 37.2504 48.0624 36.896 47.6252 36.896C47.1879 36.896 46.8335 37.2504 46.8335 37.6877C46.8335 38.1249 47.1879 38.4793 47.6252 38.4793Z" fill="white"/>
<path d="M46.4377 42.0418C46.8749 42.0418 47.2293 41.6874 47.2293 41.2502C47.2293 40.8129 46.8749 40.4585 46.4377 40.4585C46.0004 40.4585 45.646 40.8129 45.646 41.2502C45.646 41.6874 46.0004 42.0418 46.4377 42.0418Z" fill="white"/>
</mask>
<g mask="url(#mask0_2_56)">
<path d="M31 27H50V46H31V27Z" fill="#333333"/>
</g>
</svg>
