<svg width="50" height="50" viewBox="0 0 50 50" fill="none" xmlns="http://www.w3.org/2000/svg">
<g clip-path="url(#clip0_2_34)">
<path d="M17.4998 6.25C17.4998 5.91848 17.6315 5.60054 17.866 5.36612C18.1004 5.1317 18.4183 5 18.7498 5H28.7498C29.0814 5 29.3993 5.1317 29.6337 5.36612C29.8681 5.60054 29.9998 5.91848 29.9998 6.25C29.9998 6.58152 29.8681 6.89946 29.6337 7.13388C29.3993 7.3683 29.0814 7.5 28.7498 7.5H18.7498C18.4183 7.5 18.1004 7.3683 17.866 7.13388C17.6315 6.89946 17.4998 6.58152 17.4998 6.25ZM36.1248 9.8225C36.3591 9.58892 36.6765 9.45776 37.0073 9.45776C37.3382 9.45776 37.6555 9.58892 37.8898 9.8225L41.4248 13.3575C41.5442 13.4728 41.6395 13.6107 41.705 13.7632C41.7705 13.9157 41.805 14.0798 41.8064 14.2457C41.8078 14.4117 41.7762 14.5763 41.7134 14.7299C41.6505 14.8836 41.5577 15.0231 41.4403 15.1405C41.323 15.2579 41.1834 15.3507 41.0298 15.4135C40.8762 15.4764 40.7116 15.508 40.5456 15.5066C40.3796 15.5051 40.2156 15.4706 40.0631 15.4051C39.9106 15.3396 39.7726 15.2444 39.6573 15.125L36.1248 11.59C35.8905 11.3556 35.7589 11.0377 35.7589 10.7062C35.7589 10.3748 35.8905 10.0569 36.1248 9.8225ZM29.9998 43.85C26.5994 45.1499 22.8782 45.357 19.3545 44.4424C15.8308 43.5278 12.68 41.5371 10.341 38.7474C8.002 35.9578 6.59121 32.5082 6.30511 28.879C6.01902 25.2498 6.87186 21.6217 8.74486 18.5C10.6179 15.3783 13.4178 12.9185 16.7547 11.4631C20.0915 10.0077 23.7992 9.62911 27.3614 10.3802C30.9235 11.1312 34.1628 12.9745 36.628 15.6532C39.0932 18.332 40.6616 21.7129 41.1148 25.325C40.2782 25.0895 39.4112 24.98 38.5423 25C37.9055 21.2998 35.9046 17.9729 32.9346 15.6759C29.9647 13.3789 26.2415 12.2788 22.5001 12.5927C18.7586 12.9067 15.2708 14.6119 12.7252 17.3717C10.1796 20.1315 8.76114 23.7454 8.74984 27.5C8.74907 30.0583 9.40266 32.5744 10.6485 34.8089C11.8943 37.0434 13.6909 38.9222 15.8676 40.2665C18.0442 41.6109 20.5286 42.3762 23.0844 42.4897C25.6402 42.6032 28.1826 42.0611 30.4698 40.915C30.1578 41.8276 29.999 42.7855 29.9998 43.75V43.85Z" fill="#333333"/>
<path d="M21.7767 29.0274L16.1051 20.9175C16.0266 20.8051 15.9902 20.6687 16.0023 20.5322C16.0143 20.3957 16.074 20.2678 16.171 20.1709C16.2679 20.074 16.3958 20.0143 16.5324 20.0023C16.6689 19.9902 16.8054 20.0266 16.9178 20.105L25.0303 25.7748C25.5279 26.1331 25.8645 26.6728 25.9671 27.2771C26.0697 27.8815 25.9302 28.502 25.5788 29.0043C25.2273 29.5067 24.6921 29.8505 24.089 29.9615C23.4859 30.0724 22.8634 29.9416 22.3561 29.5972C22.1317 29.4418 21.9358 29.2491 21.7767 29.0274Z" fill="#333333"/>
<path d="M34.2864 25.9927C33.3202 25.9927 32.3935 26.3334 31.7103 26.9399C31.027 27.5465 30.6432 28.3691 30.6432 29.2268C30.6432 30.0846 31.027 30.9072 31.7103 31.5137C32.3935 32.1202 33.3202 32.4609 34.2864 32.4609C35.2527 32.4609 36.1793 32.1202 36.8626 31.5137C37.5458 30.9072 37.9296 30.0846 37.9296 29.2268C37.9296 28.3691 37.5458 27.5465 36.8626 26.9399C36.1793 26.3334 35.2527 25.9927 34.2864 25.9927ZM40.662 32.4609C40.6064 32.46 40.5521 32.4765 40.5088 32.5076C40.4655 32.5386 40.4359 32.5822 40.4252 32.6307L40.2522 33.698C39.9789 33.8031 39.7148 33.9325 39.478 34.078L38.3486 33.6737C38.2484 33.6737 38.13 33.6737 38.0662 33.7789L37.1554 35.1776C37.1008 35.2666 37.119 35.3717 37.2101 35.4364L38.1755 36.0993C38.1392 36.3679 38.1392 36.6393 38.1755 36.9079L37.2101 37.5709C37.1692 37.602 37.1414 37.6447 37.1315 37.6917C37.1216 37.7388 37.13 37.7874 37.1554 37.8296L38.0662 39.2284C38.1209 39.3335 38.2393 39.3335 38.3486 39.3335L39.478 38.9292C39.7148 39.0748 39.9698 39.2122 40.2522 39.3092L40.4252 40.3765C40.4434 40.4735 40.5345 40.5463 40.662 40.5463H42.4836C42.5838 40.5463 42.684 40.4735 42.7022 40.3765L42.8753 39.3092C43.1485 39.2041 43.3944 39.0748 43.6403 38.9292L44.7606 39.3335C44.879 39.3335 44.9974 39.3335 45.0612 39.2284L45.972 37.8296C45.9974 37.7874 46.0059 37.7388 45.9959 37.6917C45.986 37.6447 45.9583 37.602 45.9174 37.5709L44.9428 36.9079C44.961 36.7704 44.9792 36.6411 44.9792 36.5036C44.9792 36.3662 44.9701 36.2368 44.9428 36.0993L45.9082 35.4364C45.9492 35.4052 45.9769 35.3626 45.9868 35.3155C45.9968 35.2685 45.9883 35.2198 45.9629 35.1776L45.0521 33.7789C44.9974 33.6737 44.879 33.6737 44.7606 33.6737L43.6403 34.078C43.3944 33.9325 43.1485 33.795 42.8662 33.698L42.6931 32.6307C42.6874 32.5847 42.663 32.5421 42.6244 32.5108C42.5859 32.4796 42.5358 32.4618 42.4836 32.4609H40.662ZM34.2864 34.078C30.2607 34.078 27 35.5253 27 37.3122V38.9292H35.8166C35.4101 38.1715 35.1985 37.3429 35.1972 36.5036C35.1991 35.6913 35.3979 34.8888 35.7801 34.1508C35.2974 34.1023 34.7965 34.078 34.2864 34.078ZM41.5728 35.2908C42.3288 35.2908 42.939 35.8325 42.939 36.5036C42.939 37.1747 42.3288 37.7164 41.5728 37.7164C40.8078 37.7164 40.2066 37.1747 40.2066 36.5036C40.2066 35.8325 40.8169 35.2908 41.5728 35.2908Z" fill="#333333"/>
</g>
<defs>
<clipPath id="clip0_2_34">
<rect width="50" height="50" fill="white"/>
</clipPath>
</defs>
</svg>
