<svg width="50" height="50" viewBox="0 0 50 50" fill="none" xmlns="http://www.w3.org/2000/svg">
<path d="M17.4998 6.25C17.4998 5.91848 17.6315 5.60054 17.866 5.36612C18.1004 5.1317 18.4183 5 18.7498 5H28.7498C29.0814 5 29.3993 5.1317 29.6337 5.36612C29.8681 5.60054 29.9998 5.91848 29.9998 6.25C29.9998 6.58152 29.8681 6.89946 29.6337 7.13388C29.3993 7.3683 29.0814 7.5 28.7498 7.5H18.7498C18.4183 7.5 18.1004 7.3683 17.866 7.13388C17.6315 6.89946 17.4998 6.58152 17.4998 6.25ZM36.1248 9.8225C36.3591 9.58892 36.6765 9.45776 37.0073 9.45776C37.3382 9.45776 37.6555 9.58892 37.8898 9.8225L41.4248 13.3575C41.5442 13.4728 41.6395 13.6107 41.705 13.7632C41.7705 13.9157 41.805 14.0798 41.8064 14.2457C41.8078 14.4117 41.7762 14.5763 41.7134 14.7299C41.6505 14.8836 41.5577 15.0231 41.4403 15.1405C41.323 15.2579 41.1834 15.3507 41.0298 15.4135C40.8762 15.4764 40.7116 15.508 40.5456 15.5066C40.3796 15.5051 40.2156 15.4706 40.0631 15.4051C39.9106 15.3396 39.7726 15.2444 39.6573 15.125L36.1248 11.59C35.8905 11.3556 35.7589 11.0377 35.7589 10.7062C35.7589 10.3748 35.8905 10.0569 36.1248 9.8225ZM29.9998 43.85C26.5994 45.1499 22.8782 45.357 19.3545 44.4424C15.8308 43.5278 12.68 41.5371 10.341 38.7474C8.002 35.9578 6.59121 32.5082 6.30511 28.879C6.01902 25.2498 6.87186 21.6217 8.74486 18.5C10.6179 15.3783 13.4178 12.9185 16.7547 11.4631C20.0915 10.0077 23.7992 9.62911 27.3614 10.3802C30.9235 11.1312 34.1628 12.9745 36.628 15.6532C39.0932 18.332 40.6616 21.7129 41.1148 25.325C40.2782 25.0895 39.4112 24.98 38.5423 25C37.9055 21.2998 35.9046 17.9729 32.9346 15.6759C29.9647 13.3789 26.2415 12.2788 22.5001 12.5927C18.7586 12.9067 15.2708 14.6119 12.7252 17.3717C10.1796 20.1315 8.76114 23.7454 8.74984 27.5C8.74907 30.0583 9.40266 32.5744 10.6485 34.8089C11.8943 37.0434 13.6909 38.9222 15.8676 40.2665C18.0442 41.6109 20.5286 42.3762 23.0844 42.4897C25.6402 42.6032 28.1826 42.0611 30.4698 40.915C30.1578 41.8276 29.999 42.7855 29.9998 43.75V43.85Z" fill="#333333"/>
<path d="M21.7767 29.0274L16.1051 20.9175C16.0266 20.8051 15.9902 20.6687 16.0023 20.5322C16.0143 20.3957 16.074 20.2678 16.171 20.1709C16.2679 20.074 16.3958 20.0143 16.5324 20.0023C16.6689 19.9902 16.8054 20.0266 16.9178 20.105L25.0303 25.7748C25.5279 26.1331 25.8645 26.6728 25.9671 27.2771C26.0697 27.8815 25.9302 28.502 25.5788 29.0043C25.2273 29.5067 24.6921 29.8505 24.089 29.9615C23.4859 30.0724 22.8634 29.9416 22.3561 29.5972C22.1317 29.4418 21.9358 29.2491 21.7767 29.0274Z" fill="#333333"/>
<path d="M49.7745 29.2257C49.9189 29.3705 50 29.5666 50 29.7711C50 29.9756 49.9189 30.1718 49.7745 30.3166L48.1627 31.9297L45.0719 28.8394L46.6838 27.2262C46.8287 27.0814 47.0252 27 47.2301 27C47.435 27 47.6315 27.0814 47.7764 27.2262L49.7745 29.2241V29.2257ZM47.0701 33.0206L43.9794 29.9303L33.4507 40.4591C33.3656 40.5442 33.3016 40.6479 33.2637 40.762L32.0197 44.4921C31.9971 44.5601 31.9939 44.633 32.0104 44.7027C32.0269 44.7724 32.0625 44.8362 32.1132 44.8869C32.1638 44.9375 32.2276 44.9731 32.2973 44.9896C32.367 45.0061 32.44 45.0029 32.508 44.9804L36.2385 43.7365C36.3525 43.699 36.4562 43.6355 36.5414 43.5511L47.0701 33.0222V33.0206Z" fill="#333333"/>
</svg>
