<svg width="30" height="31" viewBox="0 0 30 31" fill="none" xmlns="http://www.w3.org/2000/svg">
<path d="M11.6019 15.9961C11.6019 16.8663 11.9476 17.7009 12.5629 18.3163C13.1783 18.9316 14.0129 19.2773 14.8832 19.2773C15.7534 19.2773 16.588 18.9316 17.2034 18.3163C17.8187 17.7009 18.1644 16.8663 18.1644 15.9961C18.1644 15.1259 17.8187 14.2913 17.2034 13.6759C16.588 13.0605 15.7534 12.7148 14.8832 12.7148C14.0129 12.7148 13.1783 13.0605 12.5629 13.6759C11.9476 14.2913 11.6019 15.1259 11.6019 15.9961ZM27.604 15.2402C24.8266 9.38965 20.6283 6.44531 15.0003 6.44531C9.36943 6.44531 5.17408 9.38965 2.39672 15.2432C2.28531 15.4791 2.22754 15.7367 2.22754 15.9976C2.22754 16.2584 2.28531 16.5161 2.39672 16.752C5.17408 22.6025 9.37236 25.5469 15.0003 25.5469C20.6313 25.5469 24.8266 22.6025 27.604 16.749C27.8296 16.2744 27.8296 15.7236 27.604 15.2402ZM14.8832 21.1523C12.0355 21.1523 9.72686 18.8438 9.72686 15.9961C9.72686 13.1484 12.0355 10.8398 14.8832 10.8398C17.7308 10.8398 20.0395 13.1484 20.0395 15.9961C20.0395 18.8438 17.7308 21.1523 14.8832 21.1523Z" fill="#F3E03B"/>
</svg>
