<svg width="22" height="21" viewBox="0 0 22 21" fill="none" xmlns="http://www.w3.org/2000/svg">
<g clip-path="url(#clip0_2_5551)">
<path d="M1.87406 0.687618L0.547852 1.91311L3.46551 5.68884C3.58834 5.84784 3.75052 5.97741 3.93854 6.06673C4.12656 6.15605 4.33496 6.20254 4.54637 6.20232H4.6392C4.81357 6.2022 4.98626 6.23385 5.14738 6.29546C5.30849 6.35707 5.45488 6.44744 5.57816 6.56139L9.12577 9.83958L5.65508 13.092C5.06146 12.9306 4.43529 12.8991 3.82624 13.0002C3.21718 13.1014 2.642 13.3322 2.14633 13.6745C1.65065 14.0168 1.24812 14.4612 0.970651 14.9723C0.693186 15.4834 0.548425 16.0472 0.547852 16.619C0.548647 17.1459 0.67199 17.6664 0.909524 18.1454C1.14706 18.6244 1.49323 19.0506 1.9246 19.3952C2.35596 19.7398 2.86243 19.9946 3.4097 20.1425C3.95696 20.2904 4.53224 20.3279 5.09654 20.2524C5.66085 20.1769 6.201 19.9902 6.68041 19.705C7.15981 19.4197 7.56726 19.0426 7.87516 18.5991C8.18306 18.1557 8.38421 17.6562 8.46498 17.1347C8.54575 16.6131 8.50425 16.0816 8.3433 15.5761L11.8631 12.369L13.1468 13.5553L12.7423 14.6754C12.6646 14.8913 12.6535 15.1229 12.7101 15.3443C12.7668 15.5657 12.8891 15.7682 13.0633 15.929L17.4 19.9364C17.5229 20.0506 17.669 20.1412 17.8299 20.2031C17.9908 20.2649 18.1633 20.2967 18.3376 20.2967C18.5119 20.2967 18.6844 20.2649 18.8454 20.2031C19.0063 20.1412 19.1524 20.0506 19.2752 19.9364L21.3786 17.9928C21.5022 17.8792 21.6003 17.7442 21.6672 17.5955C21.7341 17.4468 21.7686 17.2874 21.7686 17.1263C21.7686 16.9653 21.7341 16.8059 21.6672 16.6572C21.6003 16.5085 21.5022 16.3735 21.3786 16.2599L17.0419 12.2526C16.8678 12.0916 16.6487 11.9786 16.4091 11.9263C16.1695 11.8739 15.9188 11.8842 15.6852 11.956L14.473 12.3298L13.1999 11.1533L16.7541 7.91433C17.3437 8.05977 17.9616 8.07814 18.5601 7.96803C19.1586 7.85791 19.7218 7.62225 20.2062 7.27922C20.6905 6.9362 21.0832 6.49496 21.3538 5.98953C21.6245 5.48411 21.7659 4.928 21.7672 4.36409C21.7672 4.03443 21.7208 3.71458 21.6319 3.41188L18.7938 6.03566L16.4624 5.58958L15.9796 3.43639L18.819 0.812618C18.1436 0.644801 17.4322 0.644487 16.7566 0.811709C16.081 0.978932 15.465 1.30778 14.9707 1.7651C14.4765 2.22243 14.1215 2.79207 13.9414 3.41661C13.7614 4.04114 13.7627 4.6985 13.9452 5.32242L10.444 8.60428L6.90437 5.3359C6.65564 5.10613 6.51586 4.79447 6.51579 4.46948V4.38247C6.51581 4.18732 6.4654 3.99499 6.36874 3.82148C6.27209 3.64797 6.13199 3.4983 5.96011 3.38492L1.87406 0.687618ZM14.6667 13.7342C14.7283 13.6771 14.8014 13.6319 14.882 13.601C14.9626 13.5701 15.0489 13.5542 15.1361 13.5542C15.2234 13.5542 15.3097 13.5701 15.3903 13.601C15.4708 13.6319 15.544 13.6771 15.6056 13.7342L19.4702 17.3065C19.591 17.4221 19.6578 17.5768 19.6563 17.7375C19.6548 17.8982 19.5851 18.0518 19.4621 18.1654C19.3392 18.2791 19.1729 18.3435 18.999 18.3449C18.8251 18.3463 18.6576 18.2845 18.5326 18.1729L14.6667 14.6018C14.6049 14.5449 14.5559 14.4773 14.5225 14.4029C14.4891 14.3284 14.4719 14.2486 14.4719 14.168C14.4719 14.0874 14.4891 14.0076 14.5225 13.9332C14.5559 13.8587 14.6049 13.7911 14.6667 13.7342ZM4.52648 14.168L5.15112 14.4646L5.85268 14.4964L6.23331 15.0418L6.82347 15.3935L6.85795 16.0418L7.17889 16.619L6.85795 17.1962L6.82347 17.8445L6.23331 18.1962L5.85268 18.7415L5.15112 18.7734L4.52648 19.07L3.90183 18.7734L3.20027 18.7415L2.81965 18.1962L2.22948 17.8445L2.195 17.1962L1.87406 16.619L2.195 16.0418L2.22948 15.3935L2.81965 15.0418L3.20027 14.4964L3.90183 14.4646L4.52648 14.168Z" fill="#333333"/>
</g>
<defs>
<clipPath id="clip0_2_5551">
<rect width="21.2193" height="19.6078" fill="white" transform="translate(0.547852 0.6875)"/>
</clipPath>
</defs>
</svg>
