<svg width="30" height="28" viewBox="0 0 30 28" fill="none" xmlns="http://www.w3.org/2000/svg">
<g clip-path="url(#clip0_2_272)">
<path d="M21.9664 26.1627C22.1842 25.9633 22.3062 25.6956 22.3062 25.4168C22.3062 25.138 22.1842 24.8703 21.9664 24.6709L9.79829 13.5068L21.9664 2.34492C22.1842 2.14549 22.3062 1.87778 22.3062 1.59901C22.3062 1.32023 22.1842 1.05252 21.9664 0.853094C21.8606 0.75585 21.734 0.678558 21.5942 0.625784C21.4544 0.573008 21.3041 0.545818 21.1524 0.545818C21.0006 0.545818 20.8504 0.573008 20.7106 0.625784C20.5708 0.678558 20.4442 0.75585 20.3383 0.853094L7.39862 12.7274C7.17136 12.9359 7.04416 13.2156 7.04416 13.5068C7.04416 13.798 7.17136 14.0777 7.39862 14.2862L20.3383 26.1605C20.4442 26.2577 20.5708 26.335 20.7106 26.3878C20.8504 26.4406 21.0006 26.4678 21.1524 26.4678C21.3041 26.4678 21.4544 26.4406 21.5942 26.3878C21.734 26.335 21.8606 26.2577 21.9664 26.1605V26.1627Z" fill="#333333"/>
</g>
<defs>
<clipPath id="clip0_2_272">
<rect width="29.35" height="27.002" fill="white" transform="translate(29.3501 27.0078) rotate(180)"/>
</clipPath>
</defs>
</svg>
