<svg width="20" height="19" viewBox="0 0 20 19" fill="none" xmlns="http://www.w3.org/2000/svg">
<path d="M3.5 0.416656C2.84 0.416656 2.28 0.871657 2.08 1.49999L0 7.99999V16.6667C0 16.954 0.105357 17.2295 0.292893 17.4327C0.48043 17.6359 0.734784 17.75 1 17.75H2C2.26522 17.75 2.51957 17.6359 2.70711 17.4327C2.89464 17.2295 3 16.954 3 16.6667V15.5833H8.3C8.10372 14.8806 8.00266 14.1508 8 13.4167C8.00161 12.1064 8.31658 10.8189 8.91419 9.67976C9.51181 8.54061 10.3717 7.58864 11.41 6.91666H2L3.5 2.04166H14.5L15.68 5.86582C16.293 5.93506 16.8949 6.09169 17.47 6.33166L15.92 1.49999C15.72 0.871657 15.16 0.416656 14.5 0.416656H3.5ZM14 7.99999C13.9389 7.99876 13.8793 8.02088 13.8318 8.06249C13.7842 8.10409 13.7517 8.16251 13.74 8.22749L13.55 9.65749C13.25 9.79832 12.96 9.97166 12.7 10.1667L11.46 9.62499C11.35 9.62499 11.22 9.62499 11.15 9.76582L10.15 11.64C10.09 11.7592 10.11 11.9 10.21 11.9867L11.27 12.875C11.2301 13.2348 11.2301 13.5985 11.27 13.9583L10.21 14.8467C10.1651 14.8884 10.1346 14.9455 10.1237 15.0086C10.1128 15.0716 10.1221 15.1368 10.15 15.1933L11.15 17.0675C11.21 17.2083 11.34 17.2083 11.46 17.2083L12.7 16.6667C12.96 16.8617 13.24 17.0458 13.55 17.1758L13.74 18.6058C13.76 18.7358 13.86 18.8333 14 18.8333H16C16.11 18.8333 16.22 18.7358 16.24 18.6058L16.43 17.1758C16.73 17.035 17 16.8617 17.27 16.6667L18.5 17.2083C18.63 17.2083 18.76 17.2083 18.83 17.0675L19.83 15.1933C19.8579 15.1368 19.8672 15.0716 19.8563 15.0086C19.8454 14.9455 19.8149 14.8884 19.77 14.8467L18.7 13.9583C18.72 13.7742 18.74 13.6008 18.74 13.4167C18.74 13.2325 18.73 13.0592 18.7 12.875L19.76 11.9867C19.8049 11.9449 19.8354 11.8878 19.8463 11.8248C19.8572 11.7617 19.8479 11.6965 19.82 11.64L18.82 9.76582C18.76 9.62499 18.63 9.62499 18.5 9.62499L17.27 10.1667C17 9.97166 16.73 9.78749 16.42 9.65749L16.23 8.22749C16.2237 8.16578 16.1969 8.10866 16.1546 8.0668C16.1122 8.02494 16.0573 8.00119 16 7.99999H14ZM3.5 9.08332C3.89782 9.08332 4.27936 9.25453 4.56066 9.55927C4.84196 9.86402 5 10.2773 5 10.7083C5 11.1393 4.84196 11.5526 4.56066 11.8574C4.27936 12.1621 3.89782 12.3333 3.5 12.3333C3.10218 12.3333 2.72064 12.1621 2.43934 11.8574C2.15804 11.5526 2 11.1393 2 10.7083C2 10.2773 2.15804 9.86402 2.43934 9.55927C2.72064 9.25453 3.10218 9.08332 3.5 9.08332ZM15 11.7917C15.83 11.7917 16.5 12.5175 16.5 13.4167C16.5 14.3158 15.83 15.0417 15 15.0417C14.16 15.0417 13.5 14.3158 13.5 13.4167C13.5 12.5175 14.17 11.7917 15 11.7917Z" fill="url(#paint0_linear_2_985)"/>
<defs>
<linearGradient id="paint0_linear_2_985" x1="9.93037" y1="0.416656" x2="9.93037" y2="18.8333" gradientUnits="userSpaceOnUse">
<stop stop-color="#808080"/>
<stop offset="1" stop-color="#333333"/>
</linearGradient>
</defs>
</svg>
