<svg width="42" height="39" viewBox="0 0 42 39" fill="none" xmlns="http://www.w3.org/2000/svg">
<path d="M21 0C15.9257 0 11.8125 4.29686 11.8125 9.59766C11.8125 13.8831 17.8172 21.6938 20.1177 24.5289C20.5836 25.1032 21.4171 25.1032 21.8823 24.5289C24.1828 21.6938 30.1875 13.8831 30.1875 9.59766C30.1875 4.29686 26.0743 0 21 0ZM21 12.7969C19.3083 12.7969 17.9375 11.3648 17.9375 9.59766C17.9375 7.83047 19.3083 6.39844 21 6.39844C22.6917 6.39844 24.0625 7.83047 24.0625 9.59766C24.0625 11.3648 22.6917 12.7969 21 12.7969ZM1.46708 16.4493C1.03409 16.6302 0.662908 16.9425 0.401413 17.3459C0.139919 17.7493 0.000103703 18.2252 0 18.7124L0 37.7797C0 38.642 0.833438 39.2316 1.59979 38.9116L11.6667 34.125V16.3709C11.0221 15.1536 10.4949 13.9684 10.1172 12.835L1.46708 16.4493ZM21 27.3967C19.9741 27.3967 19.0035 26.926 18.3378 26.1049C16.9043 24.3377 15.3796 22.3252 14 20.261V34.1242L28 38.9992V20.2617C26.6204 22.3252 25.0965 24.3384 23.6622 26.1056C22.9965 26.926 22.0259 27.3967 21 27.3967ZM40.4002 12.2759L30.3333 17.0625V39L40.5329 34.7382C40.966 34.5574 41.3372 34.2451 41.5987 33.8417C41.8602 33.4383 42 32.9623 42 32.4751V13.4078C42 12.5455 41.1666 11.9559 40.4002 12.2759Z" fill="#808080"/>
<path d="M21 0C15.9257 0 11.8125 4.29686 11.8125 9.59766C11.8125 13.8831 17.8172 21.6938 20.1177 24.5289C20.5836 25.1032 21.4171 25.1032 21.8823 24.5289C24.1828 21.6938 30.1875 13.8831 30.1875 9.59766C30.1875 4.29686 26.0743 0 21 0ZM21 12.7969C19.3083 12.7969 17.9375 11.3648 17.9375 9.59766C17.9375 7.83047 19.3083 6.39844 21 6.39844C22.6917 6.39844 24.0625 7.83047 24.0625 9.59766C24.0625 11.3648 22.6917 12.7969 21 12.7969Z" fill="#F3E03B"/>
</svg>
