<svg width="15" height="15" viewBox="0 0 15 15" fill="none" xmlns="http://www.w3.org/2000/svg">
<path d="M14.7913 11.8737C14.7913 13.4845 13.4855 14.7904 11.8747 14.7904C10.2638 14.7904 8.95801 13.4845 8.95801 11.8737C8.95801 10.2629 10.2638 8.95703 11.8747 8.95703C13.4855 8.95703 14.7913 10.2629 14.7913 11.8737ZM6.04134 11.8737C6.04134 13.4845 4.7355 14.7904 3.12467 14.7904C1.51384 14.7904 0.208008 13.4845 0.208008 11.8737C0.208008 10.2629 1.51384 8.95703 3.12467 8.95703C4.7355 8.95703 6.04134 10.2629 6.04134 11.8737ZM14.7913 3.1237C14.7913 4.73453 13.4855 6.04036 11.8747 6.04036C10.2638 6.04036 8.95801 4.73453 8.95801 3.1237C8.95801 1.51287 10.2638 0.207031 11.8747 0.207031C13.4855 0.207031 14.7913 1.51287 14.7913 3.1237ZM3.12467 6.04036C2.35113 6.04036 1.60926 5.73307 1.06228 5.18609C0.515298 4.63911 0.208008 3.89725 0.208008 3.1237C0.208008 2.35015 0.515298 1.60828 1.06228 1.0613C1.60926 0.514322 2.35113 0.207031 3.12467 0.207031C3.89822 0.207031 4.64009 0.514322 5.18707 1.0613C5.73405 1.60828 6.04134 2.35015 6.04134 3.1237C6.04134 3.89725 5.73405 4.63911 5.18707 5.18609C4.64009 5.73307 3.89822 6.04036 3.12467 6.04036Z" fill="#424242"/>
</svg>
