<svg width="21" height="21" viewBox="0 0 21 21" fill="none" xmlns="http://www.w3.org/2000/svg">
<path d="M16.7158 5.21054C16.8054 5.11914 16.9123 5.04654 17.0303 4.99697C17.1483 4.94741 17.2749 4.92188 17.4029 4.92188C17.5309 4.92188 17.6576 4.94741 17.7755 4.99697C17.8935 5.04654 18.0004 5.11914 18.09 5.21054C18.4654 5.58985 18.4706 6.20279 18.1031 6.58866L10.3423 15.763C10.2542 15.8598 10.1473 15.9376 10.0281 15.9916C9.90888 16.0456 9.77991 16.0747 9.64907 16.0772C9.51822 16.0796 9.38825 16.0554 9.26711 16.0059C9.14596 15.9564 9.03619 15.8827 8.94451 15.7893L4.22213 11.0039C4.04001 10.8182 3.93799 10.5684 3.93799 10.3083C3.93799 10.0482 4.04001 9.7984 4.22213 9.61266C4.31171 9.52127 4.41861 9.44866 4.53659 9.3991C4.65457 9.34953 4.78126 9.324 4.90923 9.324C5.0372 9.324 5.16388 9.34953 5.28186 9.3991C5.39984 9.44866 5.50675 9.52127 5.59632 9.61266L9.60207 13.6722L16.6896 5.23941C16.6977 5.22927 16.7065 5.21963 16.7158 5.21054Z" fill="#333333"/>
</svg>
