<svg width="211" height="29" viewBox="0 0 211 29" fill="none" xmlns="http://www.w3.org/2000/svg">
<path d="M210.001 28.1072L206.89 23.247L204.234 28.3759L210.001 28.1072ZM1.24802 27.6415C2.69967 26.8168 4.1519 26.0155 5.60439 25.2373L5.13279 24.3559C3.67301 25.1381 2.21355 25.9433 0.754694 26.7722L1.24802 27.6415ZM14.4155 20.7945C17.4253 19.3701 20.4337 18.0401 23.4379 16.8L23.0571 15.8757C20.0375 17.1222 17.0136 18.459 13.9884 19.8907L14.4155 20.7945ZM32.652 13.2681C35.7884 12.1567 38.9172 11.1391 42.0352 10.2101L41.7506 9.25173C38.6164 10.1855 35.4715 11.2084 32.3188 12.3256L32.652 13.2681ZM51.5631 7.6329C54.7951 6.84597 58.012 6.15015 61.21 5.5396L61.0234 4.55736C57.8092 5.17098 54.576 5.87034 51.3274 6.66131L51.5631 7.6329ZM70.95 3.92903C74.2449 3.46718 77.5154 3.0918 80.7574 2.79627L80.6676 1.8004C77.41 2.09737 74.1234 2.47458 70.8121 2.93872L70.95 3.92903ZM90.6075 2.13308C93.9344 1.98741 97.2255 1.92175 100.476 1.92848L100.479 0.928487C97.2137 0.921722 93.9073 0.98769 90.5647 1.13404L90.6075 2.13308ZM110.34 2.16925C113.671 2.32427 116.952 2.55095 120.177 2.84042L120.267 1.84443C117.028 1.55372 113.733 1.32604 110.388 1.17034L110.34 2.16925ZM129.998 3.93027C133.329 4.37009 136.589 4.87164 139.772 5.42394L139.944 4.43866C136.749 3.88413 133.475 3.38053 130.13 2.93888L129.998 3.93027ZM149.459 7.30269C152.765 8.01138 155.97 8.76736 159.063 9.55612L159.311 8.58711C156.206 7.7953 152.989 7.03638 149.67 6.3249L149.459 7.30269ZM168.602 12.1825C171.904 13.1594 175.044 14.1596 178.009 15.1603L178.33 14.2128C175.354 13.2082 172.201 12.2042 168.887 11.2235L168.602 12.1825ZM187.274 18.4872C190.685 19.7874 193.755 21.0434 196.451 22.2015L196.846 21.2826C194.138 20.1194 191.056 18.8581 187.631 17.5528L187.274 18.4872ZM205.423 26.3116C205.546 26.3718 205.666 26.431 205.784 26.4892L206.227 25.5926C206.109 25.534 205.988 25.4744 205.864 25.4138L205.423 26.3116Z" fill="#D8DCE6"/>
</svg>
