<svg width="80" height="150" viewBox="0 0 80 150" fill="none" xmlns="http://www.w3.org/2000/svg">
<path d="M69.4016 149.098L57.8553 149.089L63.6259 139.093L69.4016 149.098ZM79.9402 2.07531C78.2987 2.66522 76.6882 3.25745 75.1082 3.85191L74.4024 1.97977C75.9919 1.38175 77.6117 0.786098 79.2623 0.192922L79.9402 2.07531ZM65.9913 7.44445C62.7766 8.77235 59.7059 10.1099 56.7743 11.4561L55.9384 9.63822C58.8946 8.28076 61.9891 6.93289 65.2263 5.59567L65.9913 7.44445ZM47.8826 15.781C44.8432 17.3497 41.9817 18.9279 39.2907 20.5139L38.2741 18.7904C40.9993 17.1843 43.8937 15.5882 46.9641 14.0034L47.8826 15.781ZM31.0003 25.7862C28.1285 27.7644 25.5052 29.7508 23.116 31.7421L21.8348 30.2051C24.2744 28.1717 26.9468 26.1486 29.8649 24.1386L31.0003 25.7862ZM15.9387 38.4581C13.5316 41.014 11.4821 43.5707 9.75946 46.1213L8.10189 45.0006C9.88933 42.354 12.0073 39.7138 14.4823 37.0859L15.9387 38.4581ZM5.148 54.6826C3.87703 57.8096 3.05031 60.9213 2.61282 64.0069L0.632766 63.7241C1.09344 60.475 1.96329 57.2049 3.29525 53.9278L5.148 54.6826ZM2.46529 73.692C2.80913 76.8952 3.52698 80.0654 4.56004 83.1892L2.6614 83.8156C1.58839 80.5709 0.837323 77.2616 0.47686 73.9035L2.46529 73.692ZM8.43371 92.1959C9.93746 95.0475 11.6693 97.8426 13.5779 100.569L11.94 101.715C9.98953 98.9287 8.2125 96.0622 6.665 93.1276L8.43371 92.1959ZM19.6439 108.367C21.7843 110.871 24.0412 113.296 26.3659 115.63L24.9497 117.041C22.5933 114.675 20.3014 112.213 18.1244 109.666L19.6439 108.367ZM33.5746 122.42C36.1116 124.669 38.6674 126.805 41.1851 128.812L39.9393 130.376C37.3972 128.349 34.8143 126.191 32.2487 123.916L33.5746 122.42ZM49.0942 134.823C52.0026 136.931 54.7591 138.825 57.2573 140.479L56.1547 142.146C53.6354 140.478 50.8553 138.569 47.9216 136.442L49.0942 134.823Z" fill="#F3E03B"/>
</svg>
