<svg width="98" height="142" viewBox="0 0 98 142" fill="none" xmlns="http://www.w3.org/2000/svg">
<path d="M50.1022 141.526L61.2312 138.445L52.9885 130.352L50.1022 141.526ZM0.492454 2.7254C2.23387 2.85571 3.94603 2.99652 5.62935 3.14762L5.80677 1.15627C4.11338 1.00427 2.39135 0.862645 0.640281 0.731613L0.492454 2.7254ZM15.3861 4.17582C18.8428 4.59724 22.1633 5.06636 25.352 5.58082L25.6693 3.60702C22.4539 3.08824 19.1078 2.61554 15.6269 2.19117L15.3861 4.17582ZM35.0882 7.3742C38.4405 8.07418 41.6239 8.83076 44.645 9.64025L45.1617 7.70911C42.1023 6.88936 38.8825 6.12424 35.4959 5.41711L35.0882 7.3742ZM54.0573 12.5065C57.3584 13.6455 60.4221 14.8588 63.2612 16.1392L64.0829 14.3169C61.1839 13.0095 58.0632 11.774 54.7089 10.6167L54.0573 12.5065ZM71.987 20.6922C74.9957 22.5118 77.6595 24.4277 80.0063 26.4249L81.3027 24.9031C78.8676 22.8308 76.1152 20.8528 73.0218 18.9819L71.987 20.6922ZM86.7548 33.442C88.821 36.1156 90.4541 38.8929 91.7045 41.7491L93.5373 40.9488C92.2206 37.9412 90.5032 35.0226 88.3378 32.2207L86.7548 33.442ZM94.4464 51.0417C94.9742 54.2197 95.132 57.4658 94.9732 60.7513L96.9715 60.8493C97.1365 57.4367 96.9733 54.0477 96.42 50.7159L94.4464 51.0417ZM93.6514 70.4618C92.9654 73.6099 92.0441 76.7644 90.9339 79.8997L92.82 80.568C93.9546 77.3638 94.9003 74.1284 95.6063 70.8887L93.6514 70.4618ZM87.1733 89.0294C85.78 92.0119 84.2531 94.9492 82.6365 97.8174L84.3799 98.7996C86.0185 95.8923 87.5691 92.9098 88.9862 89.8763L87.1733 89.0294ZM77.5037 106.279C75.66 109.123 73.7674 111.861 71.8774 114.466L73.4974 115.64C75.4057 113.01 77.3184 110.243 79.1829 107.368L77.5037 106.279ZM65.8605 122.364C63.6208 125.17 61.4699 127.728 59.5038 129.987L61.0138 131.3C62.9964 129.022 65.1657 126.442 67.4249 123.611L65.8605 122.364Z" fill="#F3E03B"/>
</svg>
