<svg width="210" height="29" viewBox="0 0 210 29" fill="none" xmlns="http://www.w3.org/2000/svg">
<path d="M209.999 28.1072L203.761 18.3969L198.465 28.6633L209.999 28.1072ZM1.49273 28.0762C2.94078 27.2535 4.38938 26.4542 5.83824 25.6779L4.89504 23.9153C3.43162 24.6994 1.96853 25.5066 0.506079 26.3375L1.49273 28.0762ZM14.627 21.2464C17.6292 19.8256 20.6299 18.499 23.6263 17.2621L22.8648 15.4136C19.8374 16.6632 16.8058 18.0035 13.773 19.4388L14.627 21.2464ZM32.8166 13.7394C35.9449 12.6309 39.0656 11.6158 42.1756 10.6892L41.6063 8.77256C38.4641 9.70875 35.3111 10.7343 32.1503 11.8543L32.8166 13.7394ZM51.679 8.1187C54.9027 7.33378 58.1114 6.63973 61.3013 6.03073L60.9282 4.06623C57.7059 4.6814 54.4645 5.38253 51.2077 6.17551L51.679 8.1187ZM71.0169 4.42419C74.3037 3.96348 77.5662 3.58902 80.8004 3.2942L80.6208 1.30247C77.3553 1.60015 74.0607 1.97828 70.7413 2.44356L71.0169 4.42419ZM90.6269 2.6326C93.9459 2.48728 97.2294 2.42176 100.473 2.42848L100.479 0.42849C97.2058 0.42171 93.8918 0.487828 90.5414 0.634524L90.6269 2.6326ZM110.314 2.66871C113.638 2.82338 116.911 3.04957 120.13 3.33842L120.31 1.34644C117.065 1.0551 113.762 0.826928 110.409 0.670882L110.314 2.66871ZM129.93 4.42596C133.254 4.86487 136.508 5.36539 139.684 5.91657L140.028 3.94602C136.826 3.39038 133.546 2.88574 130.194 2.44318L129.93 4.42596ZM149.352 7.79159C152.651 8.49888 155.85 9.25338 158.937 10.0406L159.433 8.1026C156.322 7.30927 153.098 6.54888 149.773 5.83601L149.352 7.79159ZM168.458 12.6619C171.754 13.637 174.888 14.6352 177.847 15.6341L178.488 13.7391C175.506 12.7325 172.348 11.7266 169.027 10.7441L168.458 12.6619ZM187.094 18.9544C190.498 20.252 193.561 21.5054 196.251 22.6609L197.042 20.8232C194.328 19.6574 191.239 18.3935 187.808 17.0855L187.094 18.9544Z" fill="#F3E03B"/>
</svg>
