<svg width="14" height="14" viewBox="0 0 14 14" fill="none" xmlns="http://www.w3.org/2000/svg">
<path d="M12.2404 13.2398L12.3465 13.3456L12.4524 13.2397L13.2399 12.4522L13.3459 12.3462L13.2401 12.2402L9.69672 8.6883C10.3811 7.84396 10.7901 6.76947 10.7901 5.59984C10.7901 2.89091 8.58905 0.689844 5.88012 0.689844C3.17118 0.689844 0.970117 2.89091 0.970117 5.59984C0.970117 8.30878 3.17118 10.5098 5.88012 10.5098C6.90611 10.5098 7.85791 10.1934 8.64589 9.65379L12.2404 13.2398ZM5.88012 1.54984C8.1204 1.54984 9.93012 3.35956 9.93012 5.59984C9.93012 7.84013 8.1204 9.64984 5.88012 9.64984C3.63983 9.64984 1.83012 7.84013 1.83012 5.59984C1.83012 3.35956 3.63983 1.54984 5.88012 1.54984Z" fill="#333333" stroke="#333333" stroke-width="0.3"/>
</svg>
