<svg width="21" height="21" viewBox="0 0 21 21" fill="none" xmlns="http://www.w3.org/2000/svg">
<path d="M18.8239 20.509L18.9299 20.6148L19.0359 20.5089L20.2859 19.2589L20.3918 19.1529L20.286 19.0469L14.6054 13.3526C15.7096 12.0184 16.3715 10.3085 16.3715 8.44447C16.3715 4.19323 12.9172 0.738916 8.66591 0.738916C4.41466 0.738916 0.960352 4.19323 0.960352 8.44447C0.960352 12.6957 4.41466 16.15 8.66591 16.15C10.3022 16.15 11.8181 15.6372 13.0663 14.7651L18.8239 20.509ZM8.66591 1.9278C12.2706 1.9278 15.1826 4.83981 15.1826 8.44447C15.1826 12.0491 12.2706 14.9611 8.66591 14.9611C5.06125 14.9611 2.14924 12.0491 2.14924 8.44447C2.14924 4.83981 5.06125 1.9278 8.66591 1.9278Z" fill="#898888" stroke="#898888" stroke-width="0.3"/>
</svg>
