<svg width="29" height="29" viewBox="0 0 29 29" fill="none" xmlns="http://www.w3.org/2000/svg">
<g clip-path="url(#clip0_2_5042)">
<path d="M24.7083 20.7915V26.6248C20.6862 26.6248 17.3146 25.903 14.5 24.6925C8.89854 22.2834 5.49333 17.9405 3.5625 13.4998C1.95833 9.81317 1.375 6.05942 1.375 3.2915H7.20833L8.66667 9.12484L3.5625 13.4998C5.49333 17.9405 8.89854 22.2834 14.5 24.6925L18.875 19.3332L24.7083 20.7915Z" fill="#333333"/>
<path d="M14.5 24.6926C8.89854 22.2835 5.49333 17.9405 3.5625 13.4999M17.4167 1.83325H17.4312M21.7917 1.83325H21.8062M26.1667 1.83325H26.1812M17.4167 6.20825H17.4312M21.7917 6.20825H21.8062M26.1667 6.20825H26.1812M17.4167 10.5833H17.4312M21.7917 10.5833H21.8062M26.1667 10.5833H26.1812M14.5 24.6926C17.3146 25.903 20.6862 26.6249 24.7083 26.6249V20.7916L18.875 19.3333L14.5 24.6926ZM3.5625 13.4999C1.95833 9.81325 1.375 6.0595 1.375 3.29159H7.20833L8.66667 9.12492L3.5625 13.4999Z" stroke="#333333" stroke-width="2" stroke-linecap="round" stroke-linejoin="round"/>
</g>
<defs>
<clipPath id="clip0_2_5042">
<rect width="29" height="29" fill="white"/>
</clipPath>
</defs>
</svg>
