<svg width="20" height="19" viewBox="0 0 20 19" fill="none" xmlns="http://www.w3.org/2000/svg">
<path d="M3.5 0.333496C2.84 0.333496 2.28 0.781496 2.08 1.40016L0 7.80016V16.3335C0 16.6164 0.105357 16.8877 0.292893 17.0877C0.48043 17.2878 0.734784 17.4002 1 17.4002H2C2.26522 17.4002 2.51957 17.2878 2.70711 17.0877C2.89464 16.8877 3 16.6164 3 16.3335V15.2668H8.3C8.10372 14.575 8.00266 13.8563 8 13.1335C8.00161 11.8434 8.31658 10.5757 8.91419 9.45409C9.51181 8.33246 10.3717 7.39514 11.41 6.7335H2L3.5 1.9335H14.5L15.68 5.69883C16.293 5.767 16.8949 5.92122 17.47 6.1575L15.92 1.40016C15.72 0.781496 15.16 0.333496 14.5 0.333496H3.5ZM14 7.80016C13.9389 7.79895 13.8793 7.82074 13.8318 7.8617C13.7842 7.90266 13.7517 7.96018 13.74 8.02416L13.55 9.43216C13.25 9.57083 12.96 9.7415 12.7 9.9335L11.46 9.40016C11.35 9.40016 11.22 9.40016 11.15 9.53883L10.15 11.3842C10.09 11.5015 10.11 11.6402 10.21 11.7255L11.27 12.6002C11.2301 12.9544 11.2301 13.3125 11.27 13.6668L10.21 14.5415C10.1651 14.5826 10.1346 14.6388 10.1237 14.7009C10.1128 14.763 10.1221 14.8271 10.15 14.8828L11.15 16.7282C11.21 16.8668 11.34 16.8668 11.46 16.8668L12.7 16.3335C12.96 16.5255 13.24 16.7068 13.55 16.8348L13.74 18.2428C13.76 18.3708 13.86 18.4668 14 18.4668H16C16.11 18.4668 16.22 18.3708 16.24 18.2428L16.43 16.8348C16.73 16.6962 17 16.5255 17.27 16.3335L18.5 16.8668C18.63 16.8668 18.76 16.8668 18.83 16.7282L19.83 14.8828C19.8579 14.8271 19.8672 14.763 19.8563 14.7009C19.8454 14.6388 19.8149 14.5826 19.77 14.5415L18.7 13.6668C18.72 13.4855 18.74 13.3148 18.74 13.1335C18.74 12.9522 18.73 12.7815 18.7 12.6002L19.76 11.7255C19.8049 11.6844 19.8354 11.6282 19.8463 11.5661C19.8572 11.504 19.8479 11.4398 19.82 11.3842L18.82 9.53883C18.76 9.40016 18.63 9.40016 18.5 9.40016L17.27 9.9335C17 9.7415 16.73 9.56016 16.42 9.43216L16.23 8.02416C16.2237 7.9634 16.1969 7.90717 16.1546 7.86595C16.1122 7.82473 16.0573 7.80135 16 7.80016H14ZM3.5 8.86683C3.89782 8.86683 4.27936 9.0354 4.56066 9.33546C4.84196 9.63552 5 10.0425 5 10.4668C5 10.8912 4.84196 11.2981 4.56066 11.5982C4.27936 11.8983 3.89782 12.0668 3.5 12.0668C3.10218 12.0668 2.72064 11.8983 2.43934 11.5982C2.15804 11.2981 2 10.8912 2 10.4668C2 10.0425 2.15804 9.63552 2.43934 9.33546C2.72064 9.0354 3.10218 8.86683 3.5 8.86683ZM15 11.5335C15.83 11.5335 16.5 12.2482 16.5 13.1335C16.5 14.0188 15.83 14.7335 15 14.7335C14.16 14.7335 13.5 14.0188 13.5 13.1335C13.5 12.2482 14.17 11.5335 15 11.5335Z" fill="url(#paint0_linear_2_5300)"/>
<defs>
<linearGradient id="paint0_linear_2_5300" x1="9.93037" y1="0.333496" x2="9.93037" y2="18.4668" gradientUnits="userSpaceOnUse">
<stop offset="1" stop-color="#333333"/>
</linearGradient>
</defs>
</svg>
