<svg width="36" height="36" viewBox="0 0 36 36" fill="none" xmlns="http://www.w3.org/2000/svg">
<g clip-path="url(#clip0_2_3334)">
<path d="M2.20006 0.0009874L0.000488281 2.20056L4.83955 8.97745C5.04327 9.26283 5.31226 9.49538 5.62409 9.65569C5.93593 9.81601 6.28157 9.89946 6.63221 9.89907H6.78617C7.07537 9.89884 7.36178 9.95565 7.629 10.0662C7.89622 10.1768 8.13901 10.339 8.34347 10.5435L14.2273 16.4274L8.47105 22.2651C7.48651 21.9753 6.44797 21.9189 5.43783 22.1003C4.42769 22.2818 3.47373 22.6962 2.65163 23.3106C1.82953 23.9249 1.16191 24.7225 0.70172 25.6398C0.241531 26.5572 0.00143894 27.5691 0.000488281 28.5955C0.00180685 29.5411 0.206377 30.4755 0.600337 31.3352C0.994298 32.1949 1.56845 32.9599 2.28388 33.5784C2.99931 34.1968 3.83932 34.6542 4.74698 34.9197C5.65465 35.1851 6.60877 35.2524 7.54469 35.1169C8.48062 34.9814 9.37648 34.6463 10.1716 34.1343C10.9667 33.6224 11.6425 32.9455 12.1532 32.1495C12.6638 31.3536 12.9974 30.4571 13.1314 29.521C13.2653 28.5848 13.1965 27.6308 12.9296 26.7236L18.7673 20.9673L20.8964 23.0965L20.2256 25.1069C20.0967 25.4944 20.0782 25.9102 20.1722 26.3076C20.2662 26.705 20.469 27.0684 20.7579 27.3571L27.9505 34.5497C28.1543 34.7547 28.3966 34.9173 28.6635 35.0283C28.9303 35.1393 29.2165 35.1965 29.5056 35.1965C29.7946 35.1965 30.0808 35.1393 30.3477 35.0283C30.6146 34.9173 30.8569 34.7547 31.0607 34.5497L34.5492 31.0612C34.7542 30.8574 34.9168 30.6151 35.0278 30.3482C35.1388 30.0813 35.196 29.7951 35.196 29.5061C35.196 29.217 35.1388 28.9308 35.0278 28.664C34.9168 28.3971 34.7542 28.1548 34.5492 27.951L27.3566 20.7584C27.0679 20.4695 26.7045 20.2667 26.3071 20.1727C25.9097 20.0787 25.4939 20.0972 25.1064 20.2261L23.096 20.8969L20.9844 18.7854L26.8793 12.9719C27.8572 13.2329 28.882 13.2659 29.8746 13.0682C30.8673 12.8706 31.8013 12.4476 32.6047 11.8319C33.408 11.2163 34.0592 10.4243 34.5081 9.51715C34.957 8.60998 35.1915 7.61185 35.1937 6.59971C35.1937 6.00802 35.1167 5.43394 34.9693 4.89064L30.2622 9.59993L26.3954 8.79928L25.5947 4.93463L30.304 0.225344C29.1838 -0.0758629 28.0039 -0.0764252 26.8834 0.223714C25.7628 0.523853 24.7412 1.11409 23.9215 1.93492C23.1018 2.75575 22.5129 3.77817 22.2143 4.89912C21.9157 6.02007 21.9179 7.19993 22.2206 8.31978L16.4137 14.2102L10.543 8.34397C10.1305 7.93157 9.8987 7.37219 9.89857 6.78887V6.6327C9.89861 6.28244 9.81499 5.93724 9.65469 5.62581C9.49439 5.31439 9.26203 5.04575 8.97695 4.84225L2.20006 0.0009874ZM23.4172 23.4177C23.5193 23.3152 23.6407 23.234 23.7743 23.1785C23.9079 23.1231 24.0511 23.0946 24.1958 23.0946C24.3405 23.0946 24.4837 23.1231 24.6173 23.1785C24.7509 23.234 24.8723 23.3152 24.9745 23.4177L31.384 29.8294C31.5843 30.0368 31.6952 30.3146 31.6927 30.603C31.6902 30.8914 31.5745 31.1672 31.3706 31.3711C31.1667 31.575 30.8909 31.6907 30.6025 31.6932C30.3141 31.6957 30.0363 31.5848 29.8289 31.3845L23.4172 24.975C23.3147 24.8728 23.2335 24.7514 23.178 24.6178C23.1226 24.4842 23.0941 24.341 23.0941 24.1963C23.0941 24.0516 23.1226 23.9084 23.178 23.7748C23.2335 23.6412 23.3147 23.5198 23.4172 23.4177ZM6.59921 24.1963L7.63521 24.7286L8.79879 24.7858L9.43006 25.7646L10.4089 26.3959L10.4661 27.5595L10.9984 28.5955L10.4661 29.6315L10.4089 30.795L9.43006 31.4263L8.79879 32.4051L7.63521 32.4623L6.59921 32.9946L5.56321 32.4623L4.39964 32.4051L3.76836 31.4263L2.78955 30.795L2.73236 29.6315L2.20006 28.5955L2.73236 27.5595L2.78955 26.3959L3.76836 25.7646L4.39964 24.7858L5.56321 24.7286L6.59921 24.1963Z" fill="#333333"/>
</g>
<defs>
<clipPath id="clip0_2_3334">
<rect width="35.1932" height="35.1932" fill="white" transform="translate(0.000488281 0.000976562)"/>
</clipPath>
</defs>
</svg>
