<svg width="39" height="25" viewBox="0 0 39 25" fill="none" xmlns="http://www.w3.org/2000/svg">
<path fill-rule="evenodd" clip-rule="evenodd" d="M9.30328 17.9822L8.586 17.1126H11.2985L16.0553 24.0313H13.5793L12.9014 22.9502H8.36484L7.71384 24.0313H5.34167L9.30328 17.9822ZM9.21347 21.5799L9.2129 21.5809V21.5799H9.21347ZM9.21347 21.5799L10.5158 19.3006L11.937 21.5799H9.21347ZM27.5546 2.32702C28.7412 1.42139 30.1993 0.943268 31.6922 0.970174H31.6931C34.0691 1.00383 36.247 2.27705 37.4058 4.31124C37.9748 5.30742 38.266 6.43777 38.2493 7.5847C38.2326 8.73155 37.9084 9.85299 37.3105 10.832C36.0932 12.8337 33.8787 14.0454 31.5027 14.0117C30.0808 13.9964 28.7014 13.5255 27.5671 12.6684C26.3782 13.5702 24.921 14.0476 23.4286 14.0242C22.0039 14.0041 20.6222 13.5339 19.4813 12.6809C18.3185 13.5579 16.9012 14.0324 15.4443 14.0324C13.9873 14.0324 12.5701 13.5579 11.4071 12.6809C10.2286 13.5835 8.77922 14.0613 7.29459 14.0368C4.41472 13.9964 1.88968 12.1409 1.04351 9.44161C0.19734 6.74142 1.22236 3.81549 3.58202 2.1953C4.73796 1.40564 6.11122 0.995205 7.51125 1.0208C8.91122 1.04649 10.2684 1.50699 11.3947 2.33855C12.5609 1.46967 13.9766 1.00036 15.4312 1.00036C16.8859 1.00036 18.3017 1.46967 19.4679 2.33855C20.6464 1.43349 22.0953 0.951236 23.5814 0.969236C25.0163 0.989674 26.4076 1.46517 27.5546 2.32702ZM27.5536 11.6853C28.6334 12.6816 30.0457 13.2404 31.5153 13.2526L31.5162 13.2536C32.294 13.283 33.0698 13.1578 33.7987 12.885C34.5277 12.6124 35.1952 12.1978 35.7624 11.6652C36.323 11.1392 36.7702 10.5045 37.0767 9.79974C37.3833 9.09502 37.5427 8.33527 37.5452 7.56689C37.5718 6.80592 37.4413 6.04767 37.1617 5.33949C36.8821 4.63121 36.4595 3.98808 35.9201 3.45033C35.3741 2.90583 34.7244 2.47636 34.0095 2.18724C33.345 1.91846 32.6366 1.77596 31.9207 1.76658C34.0431 1.97939 35.8921 3.29321 36.7191 5.21339H36.7181C36.5775 5.32833 36.4705 5.47908 36.4085 5.64971C36.562 6.17517 36.6318 6.72164 36.6153 7.26886C36.5652 10.0593 34.1873 12.2858 31.293 12.2502C30.994 12.2483 30.6959 12.2185 30.4016 12.1637L30.118 12.5C29.157 12.285 28.2678 11.826 27.5362 11.1673C27.6124 11.0915 27.6863 11.0136 27.7578 10.9338C26.6142 9.87614 25.9846 8.46839 26.0056 7.01152C26.0175 5.6798 26.5827 4.40002 27.5909 3.40908C27.5721 3.39127 27.553 3.37355 27.534 3.35592H26.716C26.0527 4.1903 25.613 5.17992 25.4387 6.23124C25.2644 7.28264 25.3612 8.36096 25.7198 9.36455C25.9044 9.38377 26.0901 9.38377 26.2747 9.36455C26.5707 10.0545 26.999 10.68 27.5352 11.2057H26.8285C25.8922 11.8695 24.7745 12.23 23.6265 12.2386C23.3352 12.2281 23.0448 12.1993 22.7572 12.1513L22.4919 12.5C21.5497 12.2768 20.6812 11.814 19.9707 11.1567C20.9411 10.0961 21.4805 8.71167 21.4832 7.27458C21.4957 6.52852 21.3607 5.78724 21.086 5.09339C20.8112 4.39955 20.4022 3.76664 19.8822 3.23105C20.9306 2.25371 22.3162 1.71877 23.7497 1.73771C23.6937 1.73414 23.6377 1.73133 23.5814 1.72927C23.5536 1.57749 23.5161 1.42758 23.467 1.28152C22.0815 1.31921 20.7454 1.80399 19.6582 2.6633V3.44742C18.897 2.74383 17.977 2.24771 16.9864 1.99486C17.7738 2.24217 18.5032 2.66349 19.117 3.23602H18.3189C17.4321 4.33664 16.9411 5.70324 16.9247 7.11624C16.9211 7.8758 17.05 8.63011 17.3054 9.34552C17.4683 9.37674 17.6337 9.39352 17.7997 9.39549C18.1047 10.0706 18.5344 10.6821 19.066 11.1982H18.3189C17.4113 11.9027 16.2868 12.27 15.1381 12.237C14.8496 12.2379 14.5612 12.213 14.2765 12.162L13.9976 12.5002C13.0516 12.2861 12.1781 11.8283 11.4639 11.1722C11.5332 11.1004 11.6005 11.027 11.6658 10.9521C11.4866 10.7908 11.3233 10.6174 11.1765 10.4322C10.3601 9.45774 9.92259 8.27489 9.93225 7.06121C9.95306 5.73136 10.5052 4.45299 11.4862 3.44883C11.4307 3.39464 11.374 3.34177 11.3166 3.29002H10.6494C9.78215 4.38736 9.30844 5.74392 9.30422 7.1423C9.29475 7.89202 9.42009 8.63742 9.67444 9.3428C9.8564 9.38527 10.0435 9.40205 10.2302 9.39277C10.5195 10.0722 10.9386 10.6888 11.4638 11.208H10.7109C9.83625 11.8867 8.75775 12.25 7.65037 12.239C7.36472 12.2419 7.07822 12.213 6.7994 12.1525C6.74231 12.2343 6.68015 12.3111 6.61959 12.3858V12.3859C6.58837 12.4245 6.55762 12.4625 6.52818 12.5004C5.43063 12.255 4.43635 11.675 3.68265 10.8407C2.92893 10.0065 2.45297 8.95899 2.32043 7.8428C2.18299 6.72596 2.39457 5.59402 2.92616 4.60205C3.45774 3.61017 4.28332 2.80683 5.28972 2.30217C5.96038 1.96824 6.68972 1.77999 7.43015 1.74474C7.35206 1.57196 7.25925 1.40471 7.15519 1.24402C3.73009 1.36992 1.01178 4.10752 0.97331 7.46592C0.962228 8.22146 1.09133 8.97239 1.35409 9.68086C1.54828 9.69764 1.74356 9.69764 1.93775 9.68086C2.27995 10.4936 2.80199 11.2183 3.46465 11.8005C4.12732 12.3826 4.91338 12.8071 5.76379 13.0422C6.61894 13.2821 7.51687 13.3284 8.39212 13.1775C9.26747 13.0268 10.0981 12.6828 10.8235 12.1706C11.025 12.0214 11.2197 11.8634 11.4071 11.6969C13.6793 13.7917 17.2217 13.7917 19.4939 11.6969C20.566 12.6968 21.9756 13.2567 23.442 13.2651C24.964 13.282 26.435 12.7169 27.5536 11.6853ZM11.6774 10.9386C12.5655 9.91214 13.0702 8.60536 13.0986 7.24205C13.105 6.57136 12.9935 5.91136 12.775 5.29008C12.7261 5.35496 12.6847 5.42424 12.6515 5.49689H12.6505C12.8564 6.02761 12.9538 6.59414 12.937 7.16311C12.937 8.29214 12.4928 9.38574 11.6774 10.2554V10.9386ZM11.6041 3.33155C11.5747 3.29939 11.545 3.26752 11.5149 3.23602C12.5464 2.27377 13.9049 1.73864 15.3159 1.73864C15.4046 1.73864 15.4931 1.74071 15.5812 1.74492C15.5045 1.58686 15.4113 1.43602 15.3044 1.29492C13.9232 1.33102 12.5894 1.80596 11.4966 2.65083V3.43824C11.5319 3.40233 11.5677 3.3667 11.6041 3.33155ZM27.643 3.35855C27.6458 3.35592 27.6485 3.3533 27.6512 3.35077C27.6485 3.34786 27.6458 3.34505 27.643 3.34214V3.35855ZM28.8502 5.2913C28.7984 5.35627 28.7541 5.42583 28.7182 5.49896C28.9163 6.02649 29.0101 6.58749 28.9941 7.15083C29.0182 8.27986 28.5922 9.38011 27.7893 10.2642V10.8984C28.1941 10.4387 28.5214 9.91514 28.7572 9.34814C29.0403 8.66733 29.186 7.93739 29.186 7.20014C29.186 6.54849 29.0722 5.90264 28.8502 5.2913ZM31.4882 1.73874C31.5749 1.74127 31.6612 1.74558 31.7471 1.75167C31.6378 1.59389 31.5394 1.4288 31.4518 1.25752C30.0665 1.29464 28.7303 1.77877 27.643 2.63733V3.13758C28.7056 2.21227 30.0757 1.71258 31.4882 1.73874ZM24.8537 17.125L26.4095 18.8901H26.0239C23.9085 18.8901 22.1777 19.7146 22.1777 21.4923C22.1777 22.9145 23.9085 24.0311 26.0239 24.0311C28.1393 24.0311 29.8317 22.8635 29.8317 21.4289C29.8317 20.2353 28.6256 18.8129 27.7037 17.7255V17.7255L27.7033 17.7251C27.5173 17.5057 27.3428 17.2999 27.1922 17.1124L24.8537 17.125ZM27.8538 21.4289C27.8538 22.165 27.0316 22.6973 26.0239 22.6973C25.0152 22.6973 24.1816 22.1015 24.1816 21.4289C24.1816 20.7563 25.0152 20.0836 26.0239 20.0836C27.0316 20.0836 27.8538 20.641 27.8538 21.4289ZM18.3765 22.6397C18.9592 22.6397 19.4477 22.1688 19.5083 21.549V18.65H21.4132V21.748C21.4132 24.8056 15.29 24.7787 15.29 21.748V18.65H17.2447V21.549C17.3054 22.1688 17.7938 22.6397 18.3765 22.6397ZM32.8933 18.65H30.5971V24.0311H32.8933V18.65ZM7.63884 11.9661C6.6314 11.9653 5.65019 11.6455 4.83599 11.0526C4.0218 10.4597 3.4165 9.62433 3.10699 8.6663C2.79299 7.70658 2.78853 6.67252 3.09425 5.71008C3.39997 4.74764 4.00043 3.90549 4.81086 3.30249C5.61806 2.70352 6.59512 2.37708 7.6005 2.37033C8.60578 2.36358 9.58716 2.67699 10.4023 3.26499C9.5384 4.39955 9.07059 5.78583 9.07059 7.21149C9.07059 8.63714 9.5384 10.0234 10.4023 11.158C9.58041 11.6924 8.61928 11.973 7.63884 11.9652V11.9661ZM11.663 9.85177C10.3466 8.1922 10.3466 5.98308 11.663 4.32267C12.9592 5.98889 12.9592 8.18555 11.663 9.85177ZM20.6478 5.09424C20.4928 5.19802 20.3718 5.34511 20.2997 5.51705H20.2987C20.4911 6.05489 20.5747 6.62546 20.5449 7.19574C20.4882 8.32008 20.0651 9.40495 19.3267 10.3216V10.9626C17.0054 8.81011 17.0054 5.42771 19.3267 3.27521C19.8969 3.77583 20.3482 4.3973 20.6478 5.09424ZM19.3203 9.88955L19.3276 9.89883H19.3132L19.3203 9.88955ZM19.3132 4.33899C20.5983 6.01458 20.6007 8.21199 19.3203 9.88955C18.6654 9.0593 18.3277 8.06639 18.3554 7.05455C18.3715 6.06952 18.7077 5.11646 19.3132 4.33899ZM23.6265 11.9783C22.6572 11.97 21.7128 11.6707 20.9159 11.1192C21.7622 10.0142 22.2307 8.66677 22.2525 7.27552C22.2765 5.82089 21.8002 4.40199 20.9034 3.25599C21.7188 2.69283 22.6864 2.39124 23.6775 2.39124C24.6686 2.39124 25.6362 2.69283 26.4516 3.25599C25.5998 4.35802 25.1306 5.70736 25.1151 7.09974C25.0918 8.55042 25.5682 9.96502 26.4641 11.1067C25.6228 11.6653 24.6374 11.9677 23.6275 11.9773L23.6265 11.9783ZM31.3459 11.9908C30.3599 11.9818 29.3983 11.6827 28.5815 11.1307C29.4723 10.012 29.9573 8.62458 29.9573 7.1948C29.9573 5.76511 29.4723 4.37761 28.5815 3.25889C29.4486 2.67577 30.4736 2.37183 31.5187 2.38796C32.5639 2.40408 33.579 2.73952 34.4277 3.34927C36.1498 4.59839 36.8431 6.77302 36.1441 8.73905C35.445 10.7041 33.5133 12.0119 31.3584 11.9773L31.3459 11.9908ZM26.7594 7.02305C26.747 8.03199 27.0863 9.0217 27.7306 9.85767V9.84427C28.3448 9.08292 28.6915 8.14092 28.7172 7.1633C28.7288 6.15239 28.3845 5.16361 27.7306 4.33055C27.1207 5.09761 26.7795 6.04346 26.7594 7.02305ZM12.4899 11.1358C13.2857 11.6799 14.2249 11.9761 15.189 11.9871C16.2097 11.9874 17.2071 11.6821 18.0526 11.1107C17.1737 9.97899 16.6966 8.58717 16.6966 7.15467C16.6966 5.72208 17.1737 4.33027 18.0526 3.19852C17.252 2.64352 16.3027 2.34221 15.3285 2.33377C14.3172 2.31905 13.326 2.61633 12.4899 3.18511C13.3743 4.32183 13.8544 5.72058 13.8544 7.16039C13.8544 8.6002 13.3743 9.99905 12.4899 11.1358Z" fill="url(#paint0_linear_2_908)"/>
<defs>
<linearGradient id="paint0_linear_2_908" x1="13.6408" y1="0.968767" x2="17.9364" y2="20.3707" gradientUnits="userSpaceOnUse">
<stop stop-color="#333333"/>
<stop offset="1" stop-color="#808080"/>
</linearGradient>
</defs>
</svg>
