<svg width="45" height="45" viewBox="0 0 45 45" fill="none" xmlns="http://www.w3.org/2000/svg">
<path fill-rule="evenodd" clip-rule="evenodd" d="M13.3684 16.6506C13.3809 16.0954 13.4006 15.5412 13.4338 14.9879C13.4607 14.4983 13.5145 14.0134 13.6562 13.5396C13.839 12.9383 14.1492 12.4302 14.653 12.057C14.9381 11.8474 15.2537 11.6968 15.5872 11.5851C15.9548 11.4622 16.333 11.3768 16.7167 11.3301C17.2495 11.2599 17.7833 11.1977 18.3179 11.1435C18.6925 11.1092 19.068 11.0843 19.4438 11.0687C19.5686 11.0628 19.6934 11.0566 19.8181 11.0503H19.8182C20.3164 11.0255 20.8146 11.0007 21.3122 10.9948C22.2292 10.9855 23.1445 10.9874 24.0617 11.004C24.7564 11.0221 25.4507 11.0535 26.1442 11.0982C26.8873 11.1397 27.6281 11.2179 28.3639 11.3329C28.8408 11.4058 29.3133 11.5056 29.7579 11.6968C30.303 11.9277 30.7567 12.2751 31.0722 12.7959C31.2568 13.0971 31.3743 13.4241 31.4558 13.7659C31.5374 14.1113 31.5787 14.4623 31.6065 14.8161C31.6916 15.8691 31.7006 16.9249 31.6818 17.9798C31.6663 18.6057 31.6274 19.2309 31.5653 19.8539L31.5491 20.0272V20.0273C31.5072 20.48 31.4654 20.9311 31.4137 21.3807C31.3151 22.2075 31.1825 23.0295 30.9314 23.8267C30.8489 24.1001 30.7433 24.3656 30.6158 24.6202C30.2977 25.2593 29.8108 25.7064 29.1671 25.9826C28.7727 26.1507 28.3585 26.2495 27.9398 26.3188C27.2199 26.4389 26.4929 26.497 25.7641 26.5396C24.769 26.595 23.7676 26.6227 22.7653 26.6227H22.5278V26.6375C22.2639 26.631 22.0002 26.6255 21.7366 26.6199H21.7358C21.1353 26.6073 20.535 26.5947 19.9333 26.571C19.3047 26.5424 18.6767 26.4999 18.0499 26.4435C17.5284 26.4021 17.011 26.3181 16.5025 26.1923C16.2522 26.1286 16.0082 26.041 15.7736 25.9309C15.1637 25.6505 14.6731 25.1516 14.3931 24.5269C14.2009 24.1052 14.0527 23.6636 13.9511 23.2097C13.8065 22.5908 13.7005 21.9628 13.6338 21.33C13.5621 20.6224 13.4912 19.913 13.4348 19.2054C13.3685 18.3557 13.346 17.5028 13.3675 16.6506H13.3684ZM12.8834 22.9446C12.9865 23.4933 13.1138 24.0345 13.3173 24.5545C13.4401 24.852 13.5692 25.1457 13.7503 25.4118C14.091 25.917 14.5463 26.2865 15.0951 26.5322C15.3191 26.6329 15.5478 26.7188 15.7799 26.7899C16.4281 26.9913 17.0987 27.0938 17.7728 27.1501C18.4191 27.2086 19.0665 27.2516 19.7146 27.2795C20.4073 27.3054 21.0995 27.3192 21.7087 27.3314L21.7099 27.3315C21.9233 27.3357 22.1267 27.3398 22.3162 27.3441L22.7197 27.3384C23.3071 27.3303 23.7803 27.3236 24.2517 27.3145C25.0603 27.2961 25.8726 27.2647 26.6839 27.2028C27.2893 27.165 27.8921 27.0917 28.4894 26.9829C28.9798 26.8965 29.459 26.7524 29.9175 26.5535C30.6777 26.2098 31.2515 25.6648 31.5957 24.8815C31.7433 24.5531 31.8659 24.2135 31.9624 23.8655C32.1417 23.1995 32.2618 22.5206 32.3542 21.8379C32.4411 21.1609 32.5128 20.4802 32.5809 19.8012C32.6491 19.1251 32.6886 18.4453 32.7029 17.7664C32.7289 16.6746 32.7369 15.5837 32.6464 14.4955C32.617 14.0774 32.5403 13.6642 32.4178 13.2643C32.2054 12.5854 31.8458 12.0099 31.2882 11.5767C30.9302 11.3067 30.5308 11.1003 30.1067 10.9661C29.5418 10.7759 28.9592 10.6752 28.3711 10.6004C27.6516 10.5103 26.9291 10.4474 26.2052 10.412C25.4561 10.3736 24.7066 10.3459 23.9568 10.3288C22.9538 10.3062 21.9502 10.3071 20.9473 10.3315C19.8152 10.3492 18.684 10.4074 17.5559 10.5062C16.9932 10.5533 16.4329 10.627 15.8767 10.7269C15.4067 10.8091 14.9474 10.9467 14.5078 11.137C13.7574 11.4696 13.1846 11.9997 12.8269 12.7628C12.6307 13.1948 12.5023 13.6562 12.4468 14.1298C12.3833 14.63 12.3499 15.1338 12.3464 15.6382C12.3374 16.2863 12.3374 16.9344 12.3464 17.5825C12.3635 18.7418 12.471 19.8964 12.5993 21.0491C12.6691 21.6847 12.7651 22.3164 12.8843 22.9446H12.8834ZM8.07823 30.7627L8.12357 30.7697C8.15478 30.7746 8.18425 30.7793 8.21539 30.783C8.30017 30.7945 8.38672 30.804 8.47413 30.8135C8.52629 30.8191 8.57876 30.8248 8.63137 30.831C8.79811 30.8523 8.88506 30.9382 8.91286 31.1091C8.91883 31.1301 8.92214 31.1518 8.92272 31.1738C8.92272 31.292 8.92205 31.41 8.92137 31.5279C8.92071 31.646 8.92003 31.764 8.92003 31.8822C8.92003 31.8847 8.91801 31.8878 8.91584 31.8913C8.91393 31.8944 8.9119 31.8976 8.91107 31.9007C8.78556 31.921 6.38387 31.9146 6.30409 31.8914V31.497C6.30493 31.4574 6.30525 31.4178 6.30556 31.3782C6.30623 31.2924 6.30691 31.207 6.31305 31.1229C6.32829 30.9511 6.42063 30.8569 6.58468 30.8329C6.62845 30.8254 6.67343 30.821 6.71805 30.8167L6.71808 30.8166C6.75021 30.8135 6.78214 30.8104 6.81329 30.8061C6.92714 30.7931 7.0392 30.7784 7.15485 30.7617C7.15485 30.7249 7.15506 30.6895 7.15526 30.6549C7.15566 30.5883 7.15603 30.5248 7.15485 30.4598C7.15359 30.4266 7.15444 30.3931 7.15528 30.3596C7.15684 30.2978 7.15841 30.2357 7.14678 30.1752H3.75V30.7617C3.8011 30.771 3.84413 30.7775 3.88896 30.783C3.97353 30.7943 4.0581 30.8035 4.14308 30.8128H4.14325L4.14328 30.8129C4.19696 30.8187 4.25081 30.8246 4.30492 30.831C4.47257 30.8523 4.56132 30.9364 4.5918 31.1081C4.59897 31.1571 4.59897 31.2079 4.59897 31.2568V33.4478C4.59897 33.5033 4.59897 33.555 4.59001 33.6085C4.55684 33.7758 4.47078 33.8561 4.30762 33.8765C4.22475 33.8873 4.14312 33.8963 4.06183 33.9052H4.06179C4.00502 33.9114 3.94841 33.9176 3.89165 33.9245C3.86045 33.9286 3.8314 33.9338 3.80269 33.9389H3.80258C3.78595 33.9419 3.76944 33.9448 3.75269 33.9475V34.5221C3.86654 34.5452 7.07238 34.5406 7.15127 34.5174V33.9448L7.10244 33.9384L7.10234 33.9383C6.94265 33.9174 6.78563 33.8969 6.62861 33.8801C6.41615 33.8561 6.31843 33.7656 6.31036 33.5457C6.30534 33.3783 6.30647 33.2103 6.3076 33.0426C6.30808 32.9707 6.30857 32.8988 6.30857 32.8271C6.30857 32.8239 6.31081 32.8216 6.31316 32.8192C6.31552 32.8167 6.31798 32.8142 6.31843 32.8105C6.46008 32.7874 8.84114 32.7957 8.92272 32.8207C8.92272 32.8975 8.92292 32.9745 8.92312 33.0514V33.0515V33.0516C8.92352 33.2056 8.92391 33.3597 8.92272 33.5143C8.92238 33.5432 8.91938 33.572 8.91375 33.6003C8.88506 33.7665 8.80169 33.8525 8.63854 33.8755C8.59418 33.8813 8.55044 33.8859 8.50659 33.8906H8.50645C8.47412 33.894 8.44174 33.8975 8.40904 33.9014L8.08002 33.9439V34.5277H11.4732V33.9458C11.4189 33.9368 11.3646 33.9288 11.3101 33.9217C11.2737 33.9177 11.2372 33.9138 11.2007 33.9099L11.2006 33.9098C11.1027 33.8994 11.004 33.8889 10.9048 33.8755C10.7525 33.8525 10.6717 33.7711 10.6395 33.6132C10.6312 33.5535 10.6272 33.4933 10.6279 33.433C10.626 32.7126 10.626 31.994 10.6279 31.2735C10.6279 31.2181 10.6305 31.1599 10.6377 31.1026C10.6709 30.9317 10.7587 30.8513 10.9299 30.8301L11.1667 30.8043L11.4732 30.7627V30.1752H8.07823V30.7617V30.7627ZM23.5399 30.1863V30.7599L23.5407 30.76C23.5618 30.7646 23.5787 30.7682 23.5972 30.7691C23.7587 30.7913 23.9227 30.8116 24.0849 30.8301C24.2678 30.8523 24.3584 30.9446 24.3808 31.1303C24.3852 31.1587 24.3871 31.1874 24.3862 31.2162V33.2982C24.3862 33.3151 24.3831 33.3321 24.3787 33.3551L24.3745 33.3786L24.3439 33.3385C24.3225 33.3107 24.3046 33.2873 24.2885 33.2649C23.5792 32.3085 22.8727 31.3496 22.1692 30.3886C22.0643 30.2472 21.9406 30.1706 21.772 30.1706L21.6869 30.1688H18.8844C18.866 30.1688 18.847 30.1706 18.8263 30.1728C18.815 30.1739 18.8031 30.1751 18.7903 30.1762V30.7627C18.8134 30.7657 18.8351 30.7694 18.8558 30.773C18.8737 30.7761 18.8906 30.779 18.9068 30.7811C19.0022 30.7928 19.0955 30.8033 19.1901 30.8138H19.1902L19.3345 30.8301C19.5093 30.8486 19.6016 30.9372 19.633 31.1192C19.6382 31.1601 19.6379 31.2015 19.6376 31.2426L19.6375 31.2698C19.6393 31.993 19.6393 32.7144 19.6393 33.4377C19.6393 33.4764 19.6393 33.5171 19.6357 33.555C19.6196 33.7583 19.5218 33.858 19.3237 33.8783L19.0862 33.906L18.7903 33.9466V34.5221C18.9006 34.5443 21.4197 34.5406 21.4977 34.5203C21.5156 34.391 21.5111 34.0215 21.4924 33.9429L21.3364 33.9226C21.3006 33.9184 21.265 33.9144 21.2297 33.9104C21.1331 33.8995 21.038 33.8888 20.9428 33.8746C20.7733 33.8533 20.6828 33.7518 20.6648 33.5771C20.6622 33.5375 20.6622 33.4996 20.6622 33.4598C20.6604 33.0136 20.661 32.5673 20.6616 32.1214V32.1205C20.6619 31.8976 20.6622 31.6746 20.6622 31.4517V31.3493C20.6698 31.348 20.6773 31.3462 20.6846 31.3437L20.7536 31.4361C20.999 31.7693 21.245 32.1023 21.491 32.4353L21.4911 32.4355C21.9533 33.0612 22.4157 33.687 22.8738 34.3152C22.9225 34.387 22.9882 34.4451 23.0645 34.4839C23.1408 34.5226 23.2254 34.5409 23.3104 34.5368C23.8438 34.5347 24.3789 34.5348 24.9153 34.535L25.3185 34.5351C25.3376 34.5351 25.3584 34.5323 25.3805 34.5293C25.3895 34.5281 25.3988 34.5269 25.4082 34.5258V31.2956C25.4082 31.2448 25.4082 31.194 25.4126 31.146C25.4261 30.9566 25.5256 30.8532 25.7067 30.831L25.7761 30.8235C25.8339 30.8173 25.8905 30.8112 25.947 30.8033C26.007 30.797 26.0663 30.7887 26.1249 30.7806H26.125C26.168 30.7746 26.2105 30.7687 26.2527 30.7636V30.1779C26.0949 30.1586 23.617 30.1659 23.5399 30.1863ZM31.5374 32.9564C31.51 33.0708 31.4678 33.1808 31.412 33.2834C31.2882 33.507 31.0829 33.6188 30.8427 33.6622C30.7231 33.6836 30.602 33.6951 30.4805 33.6963C30.1584 33.6997 29.8359 33.6991 29.5137 33.6986H29.5133H29.5133C29.3925 33.6983 29.2717 33.6982 29.151 33.6982C29.1351 33.6982 29.1189 33.6971 29.1018 33.696C29.0961 33.6956 29.0902 33.6952 29.0842 33.6949C29.0749 33.6943 29.0652 33.6938 29.0551 33.6936V31.0185C29.0653 31.0175 29.0753 31.0159 29.0852 31.0143C29.1011 31.0118 29.1167 31.0093 29.1322 31.0093H30.5146C30.6724 31.0112 30.8337 31.0306 30.9862 31.0813C31.0978 31.1177 31.2001 31.1794 31.2856 31.2619C31.3711 31.3444 31.4376 31.4455 31.48 31.5579C31.5715 31.7797 31.5904 32.0161 31.5984 32.2508C31.6056 32.49 31.5984 32.7264 31.5374 32.9564ZM33.5474 32.1067C33.4963 31.5524 33.2694 31.0906 32.8356 30.7488C32.6432 30.6005 32.4301 30.483 32.2035 30.4006C31.7508 30.2297 31.2774 30.1697 30.796 30.1697C29.8357 30.1671 28.8727 30.1676 27.9112 30.1683C27.4997 30.1685 27.0883 30.1688 26.6776 30.1688C26.6465 30.1691 26.6153 30.1713 26.5844 30.1752V30.7664L27.0254 30.8125C27.2962 30.8422 27.3777 30.9345 27.3777 31.2143V33.4478C27.3777 33.4977 27.3751 33.5476 27.3688 33.5975C27.3356 33.7748 27.2486 33.858 27.0739 33.8783C26.9932 33.8866 26.9134 33.8949 26.8336 33.9051L26.5261 33.9466V34.5368H26.6695C27.9909 34.5368 29.316 34.5368 30.6419 34.5341C30.8839 34.5341 31.1287 34.5231 31.3716 34.499C31.7466 34.4659 32.1127 34.3639 32.4528 34.1978C32.9369 33.9559 33.2874 33.5929 33.4586 33.0608C33.5573 32.7495 33.5769 32.4281 33.5483 32.1067H33.5474ZM16.5895 32.8924C16.4927 33.3718 16.2067 33.6711 15.7486 33.7828C15.3297 33.8856 14.8929 33.8821 14.4756 33.7727C14.0184 33.6545 13.7503 33.3478 13.6607 32.8794C13.6379 32.7656 13.6263 32.6493 13.6147 32.5324V32.5323C13.609 32.4747 13.6032 32.4171 13.5962 32.3594C13.6078 32.1525 13.6239 31.9503 13.6768 31.7526C13.7827 31.3258 14.0444 31.0524 14.455 30.9388C14.8786 30.8228 15.3238 30.8183 15.7495 30.9259C16.205 31.0386 16.49 31.3323 16.5877 31.8062C16.664 32.1664 16.664 32.5313 16.5895 32.8924ZM17.7854 30.6848C17.4716 30.4493 17.1167 30.3061 16.742 30.2063C16.2148 30.064 15.6733 30.0244 15.1417 30.0206C14.6495 30.0145 14.158 30.0631 13.676 30.1657C13.3098 30.2398 12.9583 30.3766 12.636 30.5703C11.9915 30.9729 11.6526 31.5586 11.6481 32.3363C11.6427 33.0938 11.9529 33.6813 12.5697 34.0951C12.74 34.2096 12.9193 34.2983 13.1138 34.3721C13.5442 34.5375 13.9888 34.6207 14.446 34.6585C15.1273 34.7121 15.8042 34.6973 16.4756 34.5643C16.8608 34.4957 17.2319 34.3601 17.573 34.1634C18.1925 33.794 18.5546 33.2527 18.5994 32.5128C18.646 31.7554 18.387 31.1364 17.7854 30.6839V30.6848ZM36.7361 31.1051C36.4779 31.5374 36.2197 31.9688 35.9517 32.4094H35.9527C36.1104 32.4334 37.5044 32.4269 37.5771 32.4048C37.5026 32.2478 36.7972 31.1559 36.7361 31.1051ZM39.6754 32.5905C39.8899 32.9273 40.1043 33.264 40.3158 33.6028C40.3617 33.6837 40.4261 33.7518 40.5036 33.8011C40.5809 33.8504 40.6688 33.8794 40.7596 33.8855C40.8692 33.8943 40.9805 33.9092 41.0929 33.9242C41.145 33.9311 41.1974 33.9382 41.25 33.9445V34.5145C41.248 34.5164 41.2472 34.5187 41.2463 34.5203C41.2454 34.5218 41.2445 34.5228 41.2428 34.5228C41.242 34.5235 41.2414 34.5243 41.2408 34.5249C41.2391 34.5268 41.2378 34.5283 41.2365 34.5283C41.2194 34.5311 41.2007 34.5348 41.1846 34.5348L37.6174 34.5338C37.613 34.5338 37.6072 34.5318 37.5992 34.5289C37.5942 34.527 37.5884 34.5249 37.5816 34.5228V33.9428C37.6261 33.9379 37.6699 33.9336 37.7132 33.9293C37.8025 33.9204 37.89 33.9117 37.9787 33.8993C38.0587 33.8913 38.1374 33.8739 38.2135 33.8476C38.3418 33.7958 38.3813 33.685 38.3149 33.5603C38.2614 33.4584 38.1977 33.3619 38.1343 33.2659C38.1276 33.2557 38.1208 33.2454 38.1141 33.2352C38.1029 33.2164 38.0756 33.2077 38.0539 33.2008C38.0512 33.1999 38.0484 33.199 38.0459 33.1982C38.0344 33.1943 38.021 33.195 38.0077 33.1958C38.0025 33.1961 37.9972 33.1964 37.9921 33.1964C37.7919 33.1964 37.5916 33.1965 37.3913 33.1966C36.7905 33.197 36.1893 33.1973 35.5896 33.1945C35.5125 33.1945 35.4658 33.2111 35.43 33.2832C35.4051 33.3311 35.377 33.377 35.349 33.4228C35.3234 33.4644 35.2979 33.5062 35.2749 33.5492C35.1826 33.7072 35.2363 33.8411 35.4139 33.8781C35.4914 33.8952 35.5703 33.903 35.6493 33.9107C35.6808 33.9138 35.7123 33.9169 35.7438 33.9205L35.9347 33.9437V34.5154C35.8585 34.5413 33.3753 34.5477 33.2228 34.5228V33.9445L33.5429 33.9021L33.7706 33.8781C33.8229 33.8739 33.8738 33.8581 33.9197 33.8316C33.9655 33.8051 34.0052 33.7687 34.0359 33.7247C34.0604 33.6939 34.0821 33.6608 34.1005 33.6259C34.4498 33.0402 34.8007 32.455 35.1518 31.8693C35.272 31.6688 35.3922 31.4683 35.5125 31.2677C35.5279 31.244 35.5419 31.2193 35.5546 31.1938C35.6326 31.0294 35.5492 30.8715 35.3726 30.8512L34.7702 30.7809C34.7254 30.7754 34.6868 30.7689 34.6447 30.7615V30.1741C34.6514 30.1734 34.6581 30.1729 34.6647 30.1722C34.6891 30.1699 34.7131 30.1676 34.737 30.1676C34.995 30.1676 35.2529 30.1678 35.5108 30.1679C36.2844 30.1685 37.0578 30.169 37.8317 30.1648C38.0522 30.1648 38.1983 30.2664 38.3122 30.4493C38.5414 30.8148 38.7741 31.1783 39.0066 31.5415C39.1262 31.7282 39.2456 31.9149 39.3647 32.1018C39.468 32.2649 39.5717 32.4277 39.6754 32.5905ZM16.5156 13.4056C16.5043 13.2199 16.493 13.0341 16.481 12.8484C16.4739 12.7247 16.4662 12.6008 16.4583 12.4768C16.4472 12.3009 16.4362 12.1248 16.4272 11.9487C16.426 11.9335 16.4263 11.9175 16.4267 11.8979C16.427 11.8867 16.4272 11.8742 16.4272 11.86C16.8952 11.7926 17.3595 11.7631 17.8346 11.752C17.8395 11.773 17.8444 11.7939 17.8492 11.8148C17.8834 11.9628 17.9162 12.1048 17.9476 12.2489C18.3403 14.1323 18.7482 16.012 19.2206 17.8779C19.3341 18.3502 19.4747 18.815 19.6419 19.2699C19.746 19.5332 19.8625 19.789 20.0329 20.0135C20.3736 20.4606 20.82 20.7192 21.3596 20.8208C21.7891 20.9039 22.2247 20.9058 22.6623 20.9039C22.9608 20.9012 23.262 20.8883 23.5579 20.8439C24.3512 20.7303 24.9357 20.3174 25.2835 19.5692C25.4656 19.1813 25.5973 18.773 25.7067 18.3573C26.0398 17.0797 26.3465 15.7948 26.6265 14.5037C26.7638 13.8685 26.9002 13.2334 27.0367 12.5978C27.09 12.3498 27.1433 12.1017 27.1967 11.8536C27.2033 11.8194 27.2111 11.7856 27.2199 11.752C27.6921 11.759 28.1633 11.796 28.6311 11.8628L28.6133 12.1532C28.3324 16.7501 28.0522 21.3365 27.6808 25.914C27.4871 25.9823 26.0402 26.0941 25.6439 26.071C25.6389 26.054 25.6333 26.0363 25.6275 26.0183C25.619 25.9914 25.6103 25.9638 25.6028 25.9362C25.555 25.7545 25.508 25.5729 25.4608 25.3914C25.3545 24.982 25.2484 24.5728 25.1365 24.1645C25.0469 23.8191 24.9312 23.4819 24.7932 23.154C24.7546 23.0653 24.7125 22.9794 24.6677 22.8936C24.4687 22.4963 24.146 22.271 23.7192 22.1971C23.3265 22.1305 22.9312 22.1001 22.5332 22.1001C22.1393 22.0993 21.7461 22.1305 21.357 22.1933C20.9087 22.2664 20.5779 22.5001 20.3708 22.9166C20.2014 23.2501 20.0767 23.5974 19.9755 23.9576C19.8549 24.3984 19.7385 24.8412 19.6221 25.2843C19.5652 25.5004 19.5083 25.7166 19.4511 25.9325C19.4456 25.9523 19.4398 25.972 19.4339 25.9919C19.426 26.0183 19.4183 26.0447 19.4116 26.071C19.0942 26.0775 17.7468 26.0073 17.3811 25.9251C17.3795 25.9138 17.3778 25.9025 17.3761 25.8912C17.3702 25.8518 17.3643 25.8122 17.3622 25.7727C17.3411 25.505 17.3196 25.2378 17.298 24.9708C17.2709 24.6353 17.2438 24.3004 17.2178 23.965C17.1959 23.6812 17.1756 23.3971 17.1551 23.113C17.1382 22.8757 17.1211 22.6384 17.1031 22.4012L16.9687 20.4855C16.942 20.1103 16.9178 19.7347 16.8934 19.3588C16.8875 19.2664 16.8815 19.1739 16.8755 19.0815C16.8614 18.8685 16.847 18.6552 16.8325 18.4418C16.8074 18.07 16.7823 17.6978 16.7588 17.3265C16.7459 17.1245 16.7335 16.9226 16.7212 16.7208C16.7027 16.4195 16.6842 16.1182 16.6639 15.8162C16.6441 15.4778 16.623 15.1398 16.6019 14.8015C16.5847 14.5257 16.5674 14.2498 16.5509 13.9734C16.5387 13.7845 16.5271 13.5951 16.5156 13.4056Z" fill="url(#paint0_linear_2_848)"/>
<defs>
<linearGradient id="paint0_linear_2_848" x1="16.6408" y1="10.3125" x2="21.4132" y2="30.7071" gradientUnits="userSpaceOnUse">
<stop stop-color="#808080"/>
<stop offset="1" stop-color="#333333"/>
</linearGradient>
</defs>
</svg>
