<svg width="45" height="45" viewBox="0 0 45 45" fill="none" xmlns="http://www.w3.org/2000/svg">
<path fill-rule="evenodd" clip-rule="evenodd" d="M5.39644 15.9368C5.39644 12.3128 12.7687 9.375 21.8634 9.375C30.9579 9.375 38.3304 12.3128 38.3304 15.9368C38.3304 19.5609 30.9579 22.4987 21.8634 22.4987C12.7689 22.4987 5.39644 19.5611 5.39644 15.9368ZM25.5362 16.5114C25.5316 16.4893 25.5139 16.4723 25.4916 16.4686C25.0177 16.3997 24.5417 16.3455 24.0643 16.3063C24.0362 16.3014 24.0163 16.2755 24.0349 16.2141C25.5568 14.6187 26.1349 12.5887 25.3654 11.0004C25.3672 10.9858 25.3746 10.9725 25.3862 10.9634C25.3978 10.9542 25.4126 10.9501 25.4272 10.9519C30.6645 11.5847 34.4884 13.5772 34.4884 15.9368C34.4884 18.8059 28.8362 21.1318 21.8636 21.1318C14.8911 21.1318 9.23869 18.8061 9.23869 15.9368C9.23869 13.4497 13.4869 11.3707 19.1606 10.8613C19.1882 10.8622 19.2114 10.8833 19.2129 10.9267L17.9811 17.6842C17.9345 17.9246 17.998 18.1733 18.1545 18.3621C18.311 18.5509 18.5439 18.6603 18.7898 18.6602L18.8338 18.6624C19.9326 18.6054 21.1132 18.2638 22.2285 17.6224C22.5445 17.4407 22.8488 17.2391 23.1392 17.0191C23.1562 17.0051 23.1802 17.0029 23.1996 17.0133C23.571 17.2597 23.7847 17.548 23.7847 17.8567C23.7847 18.2758 23.3903 18.6581 22.7413 18.9483C21.9874 19.2852 20.8899 19.497 19.668 19.497C18.6324 19.497 17.6863 19.3448 16.9522 19.0908C16.9379 19.0883 16.9231 19.0914 16.9112 19.0998C16.8993 19.1081 16.8911 19.1209 16.8887 19.1352L16.7841 19.7081C16.7804 19.7363 16.7991 19.7627 16.827 19.7688C18.3201 20.1149 20.0372 20.3118 21.8647 20.3118C24.1382 20.3118 25.9817 19.5772 25.9817 18.6714C25.9817 18.3189 25.7031 17.9926 25.2291 17.7255C24.8137 17.5227 24.5522 17.2597 24.6163 17.0833C24.6829 16.9005 25.0802 16.8712 25.5521 16.9978C25.5789 17.0014 25.6048 16.9853 25.6144 16.9374L25.5362 16.5114ZM21.8634 12.3754C21.8634 12.4108 21.8623 12.4462 21.8601 12.4808C21.9201 13.685 21.1727 15.296 19.8071 16.6564C19.5361 16.9268 19.2473 17.1792 18.9429 17.4119C18.9309 17.4196 18.9164 17.4222 18.9024 17.4192C18.8739 17.4132 18.8554 17.3861 18.8604 17.3528L20.1988 10.0136C20.1973 9.9855 20.1747 9.96309 20.1465 9.96169C12.7702 10.3073 7.04306 12.8506 7.04306 15.9368C7.04306 19.2589 13.6783 21.9517 21.8634 21.9517C30.0487 21.9517 36.684 19.2589 36.684 15.9368C36.684 12.6148 30.0489 9.92194 21.8634 9.92194C21.6041 9.92194 21.3461 9.92475 21.0874 9.93009C21.0622 9.93028 21.0402 9.94744 21.0341 9.97181L20.8776 10.8282C20.8738 10.8512 20.8847 10.873 20.9038 10.8845C21.4887 11.1518 21.8636 11.7342 21.8634 12.3754ZM6.516 25.7797V33.8166H10.9954V35.625H3.75V25.7797H6.516ZM17.3385 31.6356L16.0462 28.05L14.7544 31.6356H17.3385ZM17.8035 25.7839L21.5591 35.6224H18.6821L17.8551 33.2992H14.2376L13.4108 35.6224H11.1021L14.823 25.7839H17.8035ZM24.6231 33.8109H25.8632C26.604 33.8109 27.5861 33.6822 28.2234 32.8357C28.8604 31.9897 28.878 30.9999 28.878 30.5986C28.878 30.0819 28.809 29.0353 28.0686 28.3037C27.3791 27.6442 26.4832 27.5866 25.8116 27.5866H24.6231V33.8109ZM21.8664 25.7797H25.9148C27.0864 25.7797 28.8606 25.8943 30.2218 27.0562C31.3243 27.9884 31.8411 29.5087 31.8411 30.6847C31.8411 31.545 31.5658 33.309 30.0497 34.4996C28.8435 35.446 27.4828 35.6183 26.2078 35.6183H21.8666V25.7797H21.8664ZM37.0294 31.6312L35.7375 28.0457L34.4454 31.6312H37.0294ZM37.4946 25.7797L41.25 35.6181H38.373L37.5463 33.2947H33.9287L33.1014 35.6181H30.7929L34.5143 25.7795H37.4946V25.7797Z" fill="url(#paint0_linear_2_883)"/>
<defs>
<linearGradient id="paint0_linear_2_883" x1="16.6408" y1="9.375" x2="22.1301" y2="31.1577" gradientUnits="userSpaceOnUse">
<stop stop-color="#808080"/>
<stop offset="1" stop-color="#333333"/>
</linearGradient>
</defs>
</svg>
