<svg width="45" height="45" viewBox="0 0 45 45" fill="none" xmlns="http://www.w3.org/2000/svg">
<path fill-rule="evenodd" clip-rule="evenodd" d="M22.4469 13.9673L25.0062 17.7145L22.4469 21.5387L19.7784 17.7145L22.4469 13.9673ZM25.6308 17.5043L22.7792 13.0314L24.287 9.29346L19.0947 17.4642L22.4224 22.2587L25.6297 17.5032L25.6308 17.5043Z" fill="url(#paint0_linear_2_823)"/>
<path fill-rule="evenodd" clip-rule="evenodd" d="M20.3148 8.4375L20.2256 8.58679L15.0624 17.3948L14.9642 17.5545L15.0624 17.7129L20.5089 26.8288H24.5748L24.6596 26.6761L29.9432 17.7129L30.0347 17.551L29.9432 17.3926L24.7019 8.58449L24.6127 8.4375H20.3148ZM15.6689 17.5488L20.6504 9.05303H24.2726L29.3354 17.5545L29.3265 17.5659H26.1427L21.5683 24.3598L22.1805 22.8313L18.5985 17.5659H15.6779L15.6668 17.5488H15.6689ZM7.58842 32.5512H6.4688V31.1962H7.58732C7.58732 31.1962 7.78805 31.5705 7.78805 31.8908C7.78805 32.2124 7.58732 32.5512 7.58732 32.5512H7.58842ZM9.71169 31.6359C9.71169 30.2004 8.55863 29.9972 8.55863 29.9972H3.75C3.78568 30.4198 4.50943 30.8447 4.50943 30.8447V35.2407L3.96411 35.5094V36.1698H7.07545V35.5094L6.4688 35.2407V33.3275L6.74536 33.3126L7.76909 36.1514H9.91026V35.5393L8.4605 33.3458C8.4605 33.3458 9.71169 33.0726 9.71169 31.6348V31.6359ZM15.2921 34.0659H13.9984V35.1328H12.8677V33.3987H13.6249L13.9036 33.7892H14.556V32.0689H13.9873L13.6081 32.4582H12.8677V31.0319H13.9873V31.6957H15.3723V29.9766H10.2782V30.545L10.8459 30.8079V35.2154L10.2771 35.5887V36.1882H15.2932L15.2921 34.0659ZM19.0302 36.1882H20.6627V30.9343L21.3207 30.6438L21.3363 29.9616H19.0848V30.6277L19.6513 30.8229L19.6658 32.9439L18.0042 29.9616L15.6712 29.9777V30.5289L16.0336 30.7241V35.3165L15.4682 35.6897V36.1869H17.7064V35.6886L17.1678 35.3418V33.0244L19.0302 36.1882ZM23.0581 33.2288L23.3202 32.3158L23.6481 33.2288H23.0581ZM23.7328 36.1698H26.8698V35.5083L26.2989 35.258L24.4778 29.9639L21.8649 29.9501V30.6242L22.6098 31.3557L21.4646 35.258C21.4646 35.258 21.188 35.4727 20.8613 35.5979V36.1698H22.9912V35.5979L22.4359 35.4026L22.7593 34.2784H24.0339L24.3908 35.258L23.7328 35.6163V36.1698ZM29.1894 36.5614C31.2012 36.5614 31.4242 34.9387 31.4242 34.9387V30.9308L31.8926 30.7333V30.073H29.8451V30.7149L30.4874 30.9308V35.1144C30.4874 35.1144 30.0525 35.4015 29.6566 35.4015C29.2552 35.4015 28.9273 35.1144 28.9273 35.1144V30.9308L29.6566 30.6254V30.0547L25.9454 30.073V30.6438L26.881 30.9308V34.9778C26.881 34.9778 27.1731 36.5625 29.1883 36.5625L29.1894 36.5614ZM35.6886 35.4199H34.666V31.2145L35.5168 30.7322V30.0547H32.1524V30.7149L32.6197 30.9308V35.5129L32.0687 35.7081V36.3477L36.8138 36.365V34.3495H35.6875L35.6886 35.4199Z" fill="url(#paint1_linear_2_823)"/>
<path fill-rule="evenodd" clip-rule="evenodd" d="M36.1567 32.1752H37.3723L37.389 31.1945H37.8216V35.207L36.9898 35.5974V36.3462H40.5248V35.5974L39.694 35.2242V31.1945H40.0565V32.1752H41.2497V30.0725H36.1579L36.1567 32.1752Z" fill="url(#paint2_linear_2_823)"/>
<defs>
<linearGradient id="paint0_linear_2_823" x1="16.6406" y1="8.43741" x2="22.8869" y2="31.5717" gradientUnits="userSpaceOnUse">
<stop stop-color="#808080"/>
<stop offset="1" stop-color="#333333"/>
</linearGradient>
<linearGradient id="paint1_linear_2_823" x1="16.6408" y1="8.4375" x2="22.8871" y2="31.5718" gradientUnits="userSpaceOnUse">
<stop stop-color="#808080"/>
<stop offset="1" stop-color="#333333"/>
</linearGradient>
<linearGradient id="paint2_linear_2_823" x1="16.6404" y1="8.43745" x2="22.8867" y2="31.5718" gradientUnits="userSpaceOnUse">
<stop stop-color="#808080"/>
<stop offset="1" stop-color="#333333"/>
</linearGradient>
</defs>
</svg>
