<svg width="45" height="45" viewBox="0 0 45 45" fill="none" xmlns="http://www.w3.org/2000/svg">
<path fill-rule="evenodd" clip-rule="evenodd" d="M41.25 22.5C41.25 27.6578 32.8268 31.875 22.5 31.875C12.1732 31.875 3.75 27.6687 3.75 22.5C3.75 17.3313 12.1732 13.125 22.5 13.125C32.8268 13.125 41.25 17.3422 41.25 22.5ZM39.7778 22.5C39.7778 18.5857 32.0189 15.3417 22.5 15.3417C12.9811 15.3417 5.21104 18.5964 5.21104 22.5C5.21104 26.4036 12.97 29.6475 22.5 29.6475C32.03 29.6475 39.7778 26.4143 39.7778 22.5ZM30.9564 20.7044L29.1302 26.9436H26.6065L29.1966 18.412H28.8313V18.0011H32.7053L35.3063 26.9436H32.7828L30.9564 20.7044ZM13.7118 26.9436H11.1549V18.6499C11.01 18.5976 10.8554 18.5754 10.7012 18.585V18.2065H13.7118V21.5802L16.0472 18.2065H18.9803L16.0582 22.3479L19.4895 26.7273H16.5563L13.7118 23.0509V26.9436ZM24.083 26.9436H21.5593V18.6499C21.4149 18.5952 21.2599 18.573 21.1055 18.585V18.2065H24.083V26.9436Z" fill="url(#paint0_linear_2_850)"/>
<defs>
<linearGradient id="paint0_linear_2_850" x1="16.6408" y1="13.125" x2="19.5259" y2="29.1529" gradientUnits="userSpaceOnUse">
<stop stop-color="#808080"/>
<stop offset="1" stop-color="#333333"/>
</linearGradient>
</defs>
</svg>
