<svg width="45" height="45" viewBox="0 0 45 45" fill="none" xmlns="http://www.w3.org/2000/svg">
<path fill-rule="evenodd" clip-rule="evenodd" d="M36.6022 22.4402C36.6022 22.8251 36.5841 23.2116 36.5522 23.598C36.5522 23.598 36.5543 23.5982 36.5574 23.5984C36.5928 23.601 36.7982 23.6142 37.0972 23.6332C37.8096 23.6786 39.0531 23.7572 39.793 23.8039C40.1176 23.8244 40.3453 23.8387 40.3888 23.8416C40.6224 23.8566 40.7969 24.1017 40.6497 24.2912L39.8472 25.3858C39.7964 25.4515 39.731 25.5048 39.656 25.5413C39.581 25.5778 39.4984 25.5967 39.4148 25.5963H36.2958C35.5201 28.9558 33.5232 31.9146 30.6864 33.9075C27.8497 35.9004 24.3716 36.7881 20.9165 36.4009C17.4613 36.0138 14.2711 34.3789 11.9548 31.8084C9.63862 29.238 8.3586 25.9121 8.35924 22.4658C8.36049 22.0788 8.37771 21.6921 8.41082 21.3065C8.38998 21.3048 8.17864 21.2916 7.86567 21.2722C6.84582 21.2092 4.73933 21.0811 4.57267 21.0719C4.34815 21.0809 4.21161 20.8042 4.35422 20.6359L5.13398 19.5382C5.18502 19.4727 5.25053 19.4197 5.32549 19.3832C5.40044 19.3466 5.48284 19.3277 5.56634 19.3277H8.68692C9.41166 16.2651 11.1546 13.533 13.6355 11.571C16.1164 9.609 19.1909 8.53108 22.3647 8.51059C30.1775 8.45947 36.5507 14.6965 36.6022 22.4402ZM22.3612 7.96907C30.4755 7.916 37.0948 14.3938 37.1483 22.4366V22.4402C37.1483 22.658 37.1428 22.8757 37.1324 23.0929L37.1692 23.0952C37.515 23.1172 37.9762 23.1465 38.4427 23.1759L40.424 23.3012C40.7192 23.32 40.9797 23.4818 41.1259 23.7151C41.2817 23.9637 41.3136 24.3173 41.0881 24.6142L40.2849 25.7097L40.2808 25.7151C40.1787 25.8472 40.0473 25.9541 39.8966 26.0274C39.7464 26.1006 39.5812 26.1383 39.414 26.1379L22.3612 7.96907ZM22.3612 7.96907C19.0649 7.99036 15.8716 9.10988 13.295 11.1476C10.8316 13.0957 9.06874 15.7748 8.26071 18.7862H5.56641C5.39946 18.7862 5.23465 18.8241 5.08478 18.897C4.9349 18.97 4.80387 19.0761 4.70178 19.2071L4.69444 19.2166L3.91768 20.31C3.7018 20.5837 3.71693 20.921 3.83612 21.1602C3.95525 21.3994 4.2143 21.614 4.5614 21.6137C4.73252 21.6235 5.63021 21.678 6.51451 21.7319C6.9763 21.7601 7.43333 21.7882 7.77913 21.8094L7.82976 21.8126C7.81938 22.0296 7.81383 22.2468 7.81311 22.464V22.4657C7.81245 26.0452 9.14191 29.4996 11.5477 32.1693C13.9533 34.839 17.2667 36.5369 20.8552 36.939C24.4436 37.3412 28.0558 36.4192 31.0021 34.3493C33.8294 32.3631 35.8535 29.4531 36.7243 26.1379H39.414L22.3612 7.96907ZM24.4597 22.8416L34.9183 23.4987C34.93 23.3423 34.9404 23.1854 34.9484 23.0276C34.9495 23.0045 34.9507 22.9814 34.9517 22.9582C34.9593 22.7915 34.9638 22.6238 34.9638 22.4552C34.9597 19.1679 33.6403 16.0164 31.2948 13.6923C28.9492 11.3681 25.7693 10.061 22.4527 10.0579C19.6862 10.0609 16.9986 10.9717 14.8093 12.6482C12.7703 14.2096 11.2705 16.3533 10.5077 18.7832C10.4514 18.9622 10.3992 19.1427 10.3511 19.3247H28.8667C29.0913 19.3172 29.1869 19.6314 28.9987 19.7502L24.4597 22.8416ZM29.3021 20.2005L26.0722 22.4003L34.4066 22.9239C34.4136 22.7676 34.4177 22.6117 34.4177 22.4558C34.4138 19.3121 33.152 16.2982 30.9087 14.0753C28.6657 11.8526 25.6246 10.6026 22.4527 10.5994C19.8069 10.6025 17.2367 11.4736 15.1432 13.0768C13.2382 14.5356 11.8253 16.5256 11.0809 18.7832H28.8599C29.2665 18.775 29.5272 19.0633 29.6099 19.3321C29.692 19.5993 29.6395 19.9807 29.3021 20.2005ZM20.4517 22.0582L9.99159 21.4117C9.94453 21.7561 9.94453 22.1033 9.94453 22.4552C9.94819 25.7424 11.2671 28.8939 13.6119 31.2187C15.9567 33.5433 19.1362 34.8513 22.4527 34.8556C25.2213 34.8518 27.9107 33.9394 30.1008 32.2607C32.1409 30.697 33.6407 28.5507 34.4026 26.1183C34.4587 25.9393 34.5108 25.7587 34.5588 25.5768H16.0582C15.8307 25.5843 15.7336 25.2715 15.9217 25.1482L20.4517 22.0582ZM15.6154 24.6999L18.8388 22.5011L10.4951 21.9854C10.4909 22.1343 10.4907 22.2894 10.4907 22.4546C10.4941 25.5983 11.7554 28.6124 13.998 30.8357C16.2404 33.0588 19.2809 34.3097 22.4527 34.3141C25.1004 34.3102 27.6724 33.4375 29.7668 31.8322C31.6729 30.3712 33.086 28.3784 33.8295 26.1183H16.065C15.6628 26.1262 15.3986 25.8453 15.3128 25.5731C15.2273 25.3017 15.2821 24.9219 15.6154 24.6999Z" fill="url(#paint0_linear_2_887)"/>
<defs>
<linearGradient id="paint0_linear_2_887" x1="16.6408" y1="7.96875" x2="23.2799" y2="31.7646" gradientUnits="userSpaceOnUse">
<stop stop-color="#808080"/>
<stop offset="1" stop-color="#333333"/>
</linearGradient>
</defs>
</svg>
