<svg width="45" height="45" viewBox="0 0 45 45" fill="none" xmlns="http://www.w3.org/2000/svg">
<path fill-rule="evenodd" clip-rule="evenodd" d="M22.5 37.3919C14.2894 37.3919 7.60857 30.7124 7.60857 22.5005C7.60733 14.2886 14.2882 7.6103 22.4988 7.6103C30.7118 7.6103 37.3939 14.2886 37.3939 22.5017C37.3939 30.7124 30.7118 37.3931 22.4988 37.3931L22.5 37.3919ZM22.4988 7.50049C14.2313 7.50049 7.5 14.2306 7.5 22.5005C7.5 30.7703 14.2313 37.4992 22.5 37.4992C30.7711 37.4992 37.5 30.7716 37.5 22.5005C37.5 14.2294 30.7711 7.50049 22.5 7.50049H22.4988ZM31.1622 14.5189L30.2493 15.2505L30.211 15.2851L30.1703 15.3171L29.8964 14.9791L29.8039 14.8594L29.8273 14.8385L30.7933 14.0612L31.0463 12.3462L31.4164 12.804L31.2794 14.0451L32.5207 14.1759L32.8908 14.6373L31.1622 14.5189ZM29.7441 29.6348L29.744 29.6349L29.7439 29.635C29.7252 29.6556 29.7064 29.6763 29.6867 29.6965C28.898 30.4822 27.9923 31.141 27.0021 31.6496C25.6633 32.3451 24.1845 32.7285 22.6764 32.7711C22.6409 32.7711 22.6053 32.772 22.5702 32.7729H22.57C22.5358 32.7739 22.5021 32.7748 22.4692 32.7748C22.1384 32.7748 21.8078 32.7588 21.4785 32.7266C21.0478 32.6778 20.6202 32.6045 20.1979 32.5071C18.3112 32.0555 16.5822 31.1008 15.195 29.7446C13.1753 27.7806 12.065 25.2352 12.065 22.5802C12.065 19.9449 13.205 17.2973 15.1962 15.306C16.554 13.935 18.257 12.9563 20.125 12.4733C20.5835 12.3579 21.0493 12.2747 21.5192 12.2241C21.8363 12.1932 22.1509 12.176 22.4692 12.176L22.6814 12.1772C25.2414 12.2401 27.7818 13.3492 29.6879 15.2529C31.6471 17.2134 32.7723 19.8462 32.7723 22.4779C32.7723 25.0441 31.6965 27.6127 29.8199 29.5559H29.8187C29.7928 29.581 29.7685 29.6078 29.7441 29.6348ZM11.9959 13.8501C12.0167 13.695 12.0903 13.5516 12.2044 13.4443L13.8205 11.7726L14.1364 12.0772L12.4992 13.7676L13.6959 14.931L14.9223 13.6651L14.4782 13.2333L13.7256 14.0081L13.4135 13.7033L14.5806 12.5042L15.6527 13.5442L14.0303 15.2172C13.9255 15.3321 13.7852 15.4086 13.6318 15.4343C13.4838 15.4566 13.3641 15.4257 13.2728 15.3356L12.1081 14.2042C12.0615 14.1591 12.0269 14.1032 12.0073 14.0414C11.9876 13.9796 11.9838 13.9139 11.9959 13.8501ZM16.6052 10.1144C16.6939 9.98662 16.8243 9.89371 16.9741 9.85162L19.1763 9.09405L19.3182 9.50737L17.0937 10.2748L17.2912 10.8509L19.5168 10.0884L19.6587 10.503L17.4367 11.2679L17.6366 11.8515L19.8622 11.0854L20.0017 11.4998L17.7995 12.2562C17.6556 12.3117 17.497 12.3161 17.3503 12.2685C17.2023 12.2241 17.1147 12.1415 17.074 12.023L16.5435 10.4833C16.5233 10.4213 16.5184 10.3555 16.5292 10.2913C16.5398 10.2271 16.566 10.1663 16.6052 10.1144ZM21.9844 9.19152C21.9934 9.12782 22.0173 9.06715 22.0542 9.01442C22.0911 8.96169 22.1398 8.91838 22.1965 8.88802C22.3336 8.8134 22.4916 8.78649 22.6456 8.81153L24.9577 9.08419L24.9083 9.51974L22.5704 9.24087L22.4988 9.85162L24.8343 10.1267L24.78 10.5635L22.447 10.2859L22.3717 10.8966L24.7073 11.1767L24.6604 11.6121L22.3458 11.3358C22.1925 11.3219 22.048 11.2577 21.935 11.1531C21.8264 11.0459 21.7783 10.9336 21.7906 10.8078L21.9856 9.19152H21.9844ZM26.548 11.791L27.6312 10.0095L28.2148 10.3648L27.1599 12.0995L28.6651 13.0211L28.3999 13.4603L26.8268 12.498C26.6935 12.4211 26.5894 12.3022 26.5307 12.1599C26.4752 12.0205 26.4789 11.8971 26.548 11.791ZM22.4507 8.11939C14.5756 8.11939 8.16627 14.5287 8.16627 22.405C8.16627 30.2813 14.5756 36.6932 22.4507 36.6932C30.3307 36.6932 36.7401 30.2813 36.7401 22.405C36.7401 14.5287 30.3307 8.11939 22.4507 8.11939ZM26.671 30.8749C27.9227 30.2509 29.0208 29.3577 29.8866 28.2592C29.8705 28.0581 29.8101 27.8645 29.699 27.6782H29.8113L29.0168 26.5912L28.8341 26.3421L28.6342 26.611C28.446 26.469 28.2486 26.3396 28.0433 26.2236L28.3961 25.7461L27.9335 25.1194L27.7534 24.8676L27.0847 25.7622C26.9539 25.7104 26.8194 25.6623 26.6862 25.6166L26.3876 25.5167L27.3191 24.2693L26.8947 23.6956L26.7121 23.4464L25.3648 25.2539C25.218 25.2243 25.0675 25.1983 24.912 25.1737C24.8756 25.1673 24.8387 25.16 24.8014 25.1526C24.7312 25.1387 24.6597 25.1245 24.5888 25.1157L26.2729 22.848L26.1125 22.6309L25.7091 22.0794L25.5289 21.8327L23.1847 24.9787C23.0517 24.9709 22.9163 24.9693 22.7817 24.9677C22.7478 24.9673 22.7139 24.9669 22.6802 24.9664C22.6456 24.9664 22.6104 24.9646 22.5753 24.9627C22.5401 24.9608 22.505 24.959 22.4705 24.959C22.4423 24.959 22.4162 24.9603 22.3903 24.9615C22.365 24.9627 22.34 24.9639 22.3137 24.9639L25.0922 21.2331L24.2434 20.0758L24.0583 19.8253L20.093 25.1552C19.8869 25.1885 19.6896 25.2292 19.4959 25.2712C19.3404 25.3032 19.1911 25.3365 19.0443 25.3735L23.6252 19.2294L22.5963 17.8316L22.4149 17.5823L18.7136 22.6284L15.0198 27.6782H15.1308C15.1087 27.7202 15.0889 27.7621 15.0691 27.8065C15.9232 29.0324 17.0546 30.0392 18.3714 30.745C19.6883 31.4508 21.1532 31.8356 22.6468 31.8681C24.0451 31.838 25.4194 31.4988 26.671 30.8749ZM22.6468 12.7461C23.4551 12.7594 24.2582 12.8789 25.0354 13.1014C29.0797 14.2376 32.0555 17.9574 32.0555 22.3607C32.0553 24.4814 31.3515 26.5421 30.0543 28.2198L30.045 28.232C29.9961 28.2962 29.945 28.363 29.894 28.4234C28.3732 30.2954 26.2052 31.5282 23.819 31.8779C23.4365 31.931 23.0441 31.9618 22.6468 31.9716C22.5753 31.9754 22.5099 31.9778 22.4371 31.9778C21.0526 31.9784 19.6842 31.6795 18.4261 31.1016C17.1679 30.5236 16.0496 29.6802 15.1481 28.6294C15.1248 28.6009 15.1012 28.5727 15.0777 28.5447C15.0292 28.4867 14.9808 28.429 14.9359 28.3691C13.5641 26.6672 12.8169 24.5466 12.8187 22.3607C12.8187 17.0568 17.132 12.7423 22.4371 12.7423C22.4737 12.7423 22.5083 12.7432 22.5428 12.7442C22.5772 12.7451 22.6112 12.7461 22.6468 12.7461Z" fill="url(#paint0_linear_2_827)"/>
<defs>
<linearGradient id="paint0_linear_2_827" x1="17.8127" y1="7.50049" x2="26.2497" y2="30.9377" gradientUnits="userSpaceOnUse">
<stop stop-color="#808080"/>
<stop offset="1" stop-color="#333333"/>
</linearGradient>
</defs>
</svg>
