<svg width="45" height="45" viewBox="0 0 45 45" fill="none" xmlns="http://www.w3.org/2000/svg">
<path fill-rule="evenodd" clip-rule="evenodd" d="M29.1101 21.204C28.5521 21.204 27.6666 21.0601 27.6909 21.9119H29.9955C30.1654 21.312 29.5225 21.18 29.1101 21.204Z" fill="url(#paint0_linear_2_852)"/>
<path d="M39.396 18.7087L37.8555 18.4807C36.8452 15.256 34.8046 12.4427 32.0401 10.4632C29.2755 8.48354 25.9363 7.44464 22.5239 7.50244C19.1426 7.44325 15.8317 8.46093 13.0797 10.4053C10.3279 12.3497 8.2808 15.1177 7.24078 18.3007L6.02783 18.5407C4.91192 18.7447 4.81489 19.5246 4.81489 19.5726C4.64504 21.3964 4.64504 23.2318 4.81489 25.0556C4.80636 25.2055 4.82952 25.3554 4.88286 25.496C4.93622 25.6365 5.01859 25.7645 5.12473 25.8717C5.23087 25.979 5.35846 26.0632 5.49934 26.1188C5.6402 26.1746 5.79128 26.2007 5.94292 26.1954C6.32257 26.2831 6.7277 26.355 7.15587 26.4114C8.14827 29.6622 10.186 32.5038 12.9597 34.5047C15.7334 36.5056 19.0914 37.5564 22.5239 37.4977C25.9276 37.5526 29.2578 36.5165 32.0168 34.5442C34.776 32.5718 36.8157 29.7694 37.8312 26.5554L39.3353 26.3514C40.2329 26.2674 40.245 25.2116 40.245 25.1516C40.335 23.377 40.335 21.5991 40.245 19.8245C40.2693 18.7327 39.396 18.7087 39.396 18.7087ZM22.5239 11.1619C24.8407 11.1352 27.1161 11.7696 29.0779 12.9888C31.0397 14.208 32.6048 15.9606 33.5859 18.0367C26.255 17.5171 18.8984 17.449 11.5589 17.8327C12.5695 15.8151 14.1338 14.1194 16.0729 12.9397C18.012 11.7601 20.2475 11.144 22.5239 11.1619ZM31.1964 22.764V24.3597C30.8249 24.3837 30.4522 24.3837 30.0805 24.3597C30.0199 23.8198 30.0805 23.3519 30.0199 22.8C29.2442 22.758 28.4667 22.758 27.691 22.8C27.6609 23.2355 27.6609 23.6723 27.691 24.1078C27.691 24.2878 27.6183 24.3957 27.4242 24.3837C27.2313 24.3538 27.0349 24.3538 26.8419 24.3837C26.8016 24.3926 26.7598 24.3925 26.7195 24.3835C26.6792 24.3744 26.6414 24.3566 26.6089 24.3314C26.5764 24.3061 26.55 24.274 26.5315 24.2375C26.5132 24.2008 26.5031 24.1607 26.5024 24.1198C26.4321 23.1048 26.4401 22.086 26.5266 21.0723C26.5451 20.9557 26.5911 20.8452 26.6605 20.7493C26.73 20.6535 26.8212 20.5751 26.9269 20.5204C27.1373 20.4152 27.3703 20.3617 27.6061 20.3644H29.4377C30.0562 20.3644 30.9174 20.3644 31.1237 20.9763C31.2207 21.5678 31.245 22.1677 31.1964 22.764ZM22.4632 21.5642C23.5614 21.9338 24.6385 22.3625 25.6897 22.848C25.9201 22.968 25.9201 23.3159 25.9323 23.5439C25.9285 23.6778 25.8937 23.8091 25.8307 23.9277C25.7677 24.0462 25.6778 24.1489 25.5683 24.2278C25.3997 24.3369 25.1992 24.3876 24.9982 24.3717H20.9956C20.9709 24.0883 20.9709 23.8033 20.9956 23.5199H24.2342C24.4524 23.5199 24.4403 23.2439 24.2342 23.1839C23.3487 22.896 22.5846 22.572 21.7112 22.2841C21.5564 22.2368 21.4162 22.1515 21.3038 22.0361C21.1913 21.9207 21.1103 21.779 21.0683 21.6242C21.0016 21.442 21.0016 21.2424 21.0683 21.0603C21.4201 20.0405 22.5967 20.4004 23.4942 20.3524C24.3918 20.3044 25.1924 20.3524 26.005 20.3524C26.0293 20.6356 26.0293 20.9211 26.005 21.2043H22.5724C22.3298 21.2163 22.2449 21.4802 22.4632 21.5762V21.5642ZM15.4767 23.5319H18.7274C18.9457 23.5319 18.9215 23.2559 18.7274 23.1959C17.8419 22.908 17.0778 22.584 16.2166 22.2961C16.0668 22.2467 15.9324 22.1601 15.8262 22.0445C15.72 21.929 15.6456 21.7883 15.6101 21.6362C15.5434 21.454 15.5434 21.2544 15.6101 21.0723C15.9619 20.0525 17.1384 20.4124 18.036 20.3644C18.9336 20.3164 19.7341 20.3644 20.5468 20.3644C20.571 20.6524 20.571 20.9403 20.5468 21.2283H17.1021C17.016 21.23 16.9322 21.2549 16.8594 21.3003C16.726 21.3842 16.8594 21.5762 16.9807 21.6122C17.7813 21.8042 18.4969 22.2481 19.2974 22.4161C20.098 22.584 20.9713 23.4839 20.0616 24.2877C19.9645 24.3597 19.9645 24.2877 19.8675 24.2877H15.5009C15.4524 24.1198 15.5009 23.8198 15.4767 23.5319ZM14.943 24.3597H13.7301V20.3524C14.1339 20.3269 14.539 20.3269 14.943 20.3524V24.3597ZM10.7583 23.7958C10.4187 23.076 10.0548 22.4521 9.72731 21.7442C9.64237 21.5762 9.36343 21.5522 9.3513 21.7442V24.1438C9.3513 24.3117 9.3513 24.4437 9.09658 24.4197C8.9439 24.3957 8.78835 24.3957 8.63567 24.4197C8.4052 24.4197 8.33242 24.2997 8.33242 24.1198V21.3003C8.3173 21.1705 8.33486 21.039 8.38354 20.9176C8.43221 20.7962 8.51049 20.6886 8.6114 20.6044C8.79855 20.4755 9.01525 20.3947 9.24188 20.3696C9.46847 20.3445 9.69787 20.3757 9.90928 20.4604C10.1882 20.5684 10.4065 20.7843 10.5157 21.0603C10.8553 21.7802 11.2192 22.3801 11.5953 23.1479C11.7165 23.4119 12.0683 23.3039 12.0562 23.004C11.9955 22.0801 12.0562 21.2883 12.0562 20.3764H13.075V23.5439C13.0789 23.6556 13.0568 23.7666 13.0105 23.8685C12.9643 23.9704 12.8951 24.0605 12.8082 24.1318C12.6532 24.2479 12.4759 24.3315 12.2872 24.3776C12.0983 24.4237 11.902 24.4312 11.7102 24.3998C11.5184 24.3683 11.335 24.2986 11.1714 24.1948C11.0077 24.0909 10.8672 23.9552 10.7583 23.7958ZM22.5239 33.8022C20.2025 33.829 17.9226 33.1923 15.9581 31.9685C13.9937 30.7447 12.4282 28.9859 11.4497 26.9033C16.6654 27.2872 22.6694 27.3112 22.6694 27.3112C26.9026 27.3832 30.687 27.1913 33.5859 26.9513C32.6013 29.023 31.0346 30.7706 29.0731 31.9854C27.1116 33.2002 24.838 33.8309 22.5239 33.8022ZM36.4364 24.0238C36.2957 24.1552 36.1293 24.2566 35.9475 24.3219C35.7657 24.3874 35.5723 24.4153 35.3792 24.4041C35.1861 24.3928 34.9973 24.3427 34.8246 24.2566C34.6517 24.1706 34.4985 24.0505 34.3744 23.9038C33.9377 23.2079 33.6223 22.4521 33.2221 21.7562C33.2221 21.6722 33.1008 21.5522 33.0037 21.5762C32.951 21.6026 32.9077 21.6444 32.8794 21.6958C32.8513 21.7473 32.8397 21.806 32.8461 21.8642V24.3597H31.8393V21.9601C31.8393 21.5522 31.718 21.0723 31.9849 20.7604C32.1592 20.5839 32.3804 20.46 32.6229 20.4026C32.8655 20.3453 33.1194 20.3571 33.3555 20.4364C33.6564 20.5472 33.9007 20.7715 34.0347 21.0603C34.3865 21.7922 34.7868 22.4881 35.1749 23.2319C35.1995 23.2672 35.2346 23.2941 35.2755 23.3085C35.3163 23.3229 35.3607 23.3242 35.4023 23.3123C35.444 23.3003 35.4807 23.2757 35.5074 23.2419C35.5341 23.2081 35.5493 23.1668 35.5509 23.1239V20.3884C35.8905 20.3704 36.2302 20.3704 36.5698 20.3884V23.4359C36.596 23.6412 36.5487 23.8492 36.4364 24.0238Z" fill="url(#paint1_linear_2_852)"/>
<defs>
<linearGradient id="paint0_linear_2_852" x1="16.9338" y1="7.50009" x2="24.2844" y2="31.7471" gradientUnits="userSpaceOnUse">
<stop stop-color="#808080"/>
<stop offset="1" stop-color="#333333"/>
</linearGradient>
<linearGradient id="paint1_linear_2_852" x1="16.9338" y1="7.5" x2="24.2844" y2="31.747" gradientUnits="userSpaceOnUse">
<stop stop-color="#808080"/>
<stop offset="1" stop-color="#333333"/>
</linearGradient>
</defs>
</svg>
