<svg width="45" height="45" viewBox="0 0 45 45" fill="none" xmlns="http://www.w3.org/2000/svg">
<path fill-rule="evenodd" clip-rule="evenodd" d="M12.4016 18.6892C13.0042 20.257 15.2586 21.5637 18.4479 22.1722C18.4432 22.3514 18.4403 22.5787 18.4403 22.5787C18.4403 25.6505 19.1694 28.3024 20.3717 29.7325C14.656 29.1241 10.4154 26.1401 10.4154 22.6344C10.4154 21.2213 11.1049 19.8665 12.4016 18.6892ZM15.0215 17.3505C15.3548 16.4155 17.6074 15.5977 20.486 15.3344C19.6643 16.2618 19.0315 17.7571 18.7029 19.5741C16.832 19.2288 15.4871 18.6335 15.0914 17.958C15.0205 17.8454 14.982 17.7156 14.9799 17.5825C14.9799 17.5033 14.994 17.4248 15.0215 17.3505ZM29.9776 17.3505C30.0059 17.4278 30.0191 17.5042 30.0191 17.5825C30.0191 17.7052 29.9813 17.8326 29.9095 17.958C29.5119 18.6335 28.1652 19.2288 26.2961 19.5741C25.9656 17.7571 25.3357 16.2618 24.515 15.3344C27.3926 15.5977 29.648 16.4165 29.9776 17.3505ZM32.5984 18.6892C33.8942 19.8665 34.5846 21.2213 34.5846 22.6344C34.5846 26.1411 30.344 29.1241 24.6264 29.7335C25.8306 28.3024 26.5606 25.6505 26.5606 22.5787L26.553 22.1722C29.7396 21.5637 31.993 20.257 32.5974 18.6892H32.5984ZM22.4986 19.8977C21.9763 19.8977 21.4559 19.8778 20.9478 19.8448C21.2595 18.3392 21.8564 17.3768 22.4986 17.3768C23.1445 17.3768 23.7386 18.3392 24.0522 19.8448C23.5422 19.8778 23.0246 19.8977 22.4986 19.8977ZM22.4986 27.2467C21.6533 27.2467 20.7486 25.3326 20.7136 22.4675C21.301 22.5109 21.8989 22.5382 22.4986 22.5382C23.1021 22.5382 23.698 22.5109 24.2836 22.4675C24.2496 25.3326 23.3457 27.2467 22.4986 27.2467ZM22.4986 31.875C30.7709 31.875 37.5 27.6675 37.5 22.4995C37.5 17.3288 30.7709 13.125 22.4977 13.125C14.2291 13.125 7.5 17.3288 7.5 22.4995C7.5 27.6675 14.2291 31.875 22.4977 31.875H22.4986Z" fill="url(#paint0_linear_2_891)"/>
<defs>
<linearGradient id="paint0_linear_2_891" x1="17.8127" y1="13.125" x2="21.3563" y2="28.8748" gradientUnits="userSpaceOnUse">
<stop stop-color="#808080"/>
<stop offset="1" stop-color="#333333"/>
</linearGradient>
</defs>
</svg>
