<svg width="45" height="45" viewBox="0 0 45 45" fill="none" xmlns="http://www.w3.org/2000/svg">
<path fill-rule="evenodd" clip-rule="evenodd" d="M7.5 22.5C7.5 14.2164 14.2164 7.5 22.5 7.5C30.7812 7.50707 37.493 14.2188 37.5 22.5C37.5 30.7836 30.7836 37.5 22.5 37.5C14.2164 37.5 7.5 30.7836 7.5 22.5ZM7.91242 22.5C7.91242 30.5561 14.4439 37.0876 22.5 37.0876C30.5514 37.0747 37.0747 30.5514 37.0876 22.5C37.0876 14.4439 30.5561 7.91242 22.5 7.91242C14.4439 7.91242 7.91242 14.4439 7.91242 22.5ZM14.8292 15.5126L13.9454 16.6085L13.7097 16.3846L13.2973 16.0547L14.0986 15.0532C14.1813 14.9555 14.2591 14.853 14.3383 14.7488C14.3833 14.6896 14.4287 14.6298 14.4757 14.57C14.5506 14.471 14.6599 14.4037 14.782 14.3814C14.8683 14.378 14.9537 14.3993 15.0279 14.4432C15.1023 14.4871 15.1624 14.5514 15.201 14.6287C15.2395 14.7058 15.255 14.7925 15.2455 14.8782C15.236 14.964 15.2018 15.0452 15.1473 15.112L14.8292 15.5126ZM22.4999 8.17108C14.5863 8.17108 8.17154 14.5858 8.17154 22.4994C8.17154 30.4131 14.5863 36.8278 22.4999 36.8278C30.4135 36.8278 36.8283 30.4131 36.8283 22.4994C36.8212 14.5894 30.41 8.17815 22.4999 8.17108ZM20.1432 9.0666L21.4866 8.92521L22.4528 11.7532L23.419 8.92521L24.7623 9.0666L24.9155 13.0965L23.8668 12.9433L23.7725 10.2685L22.8298 12.9433H22.0757L21.133 10.2685L21.0388 12.9433L19.9901 13.0965L20.1432 9.0666ZM11.1409 15.7477L10.8228 15.4884L10.8817 15.4178L11.7183 14.3808L12.6963 13.2025L12.8848 12.9668C12.9675 12.8601 13.0719 12.772 13.1912 12.7086C13.3103 12.6452 13.4417 12.6078 13.5765 12.5989C13.7112 12.59 13.8464 12.6097 13.9729 12.6569C14.0994 12.7041 14.2146 12.7776 14.3106 12.8725C14.4403 13.0035 14.5338 13.1659 14.5816 13.3439C14.6069 13.4512 14.617 13.5611 14.6119 13.6705C14.5977 13.6792 14.5837 13.6882 14.5698 13.6974L14.5816 13.886C14.5984 13.815 14.6084 13.7429 14.6119 13.6705C14.7594 13.5807 14.9252 13.5243 15.0974 13.5055C15.2861 13.485 15.477 13.5104 15.6539 13.5796C15.8217 13.6637 15.967 13.7867 16.0777 13.9384C16.1884 14.0901 16.2612 14.266 16.2902 14.4516C16.3137 14.5929 16.3137 14.7343 16.2902 14.8757C16.1888 15.1315 16.0365 15.3641 15.8424 15.5591C15.7414 15.6855 15.6403 15.8129 15.5389 15.9408L15.5385 15.9412C15.309 16.2307 15.0777 16.5222 14.8408 16.8082L14.016 17.8451L13.9453 17.9275L13.6271 17.6801L12.4489 16.7021L11.1409 15.7477ZM22.4999 31.5018C20.7287 31.5018 18.9973 30.9766 17.5247 29.9926C16.052 29.0086 14.9042 27.6099 14.2264 25.9736C13.5486 24.3372 13.3712 22.5367 13.7167 20.7995C14.0623 19.0624 14.9152 17.4667 16.1676 16.2143C17.42 14.9618 19.0157 14.109 20.7528 13.7634C22.49 13.4179 24.2905 13.5952 25.9269 14.2731C27.5632 14.9508 28.9619 16.0987 29.9459 17.5713C30.9299 19.044 31.4551 20.7754 31.4551 22.5466C31.4426 24.9135 30.4937 27.1792 28.8156 28.8485C27.1375 30.5177 24.8668 31.4547 22.4999 31.4546V31.5018ZM31.0663 17.8687L30.5478 16.9849L32.3153 14.6283L29.6641 15.8066L28.91 15.1232L31.3372 11.9417L32.0797 12.6369L30.6539 14.5693L32.8927 13.5443L33.5407 14.3572L32.0443 16.2897L34.1417 15.3234L34.6601 16.2072L31.0663 17.8687ZM13.9168 13.8331C13.9352 13.9045 13.937 13.9793 13.922 14.0516C13.874 14.1746 13.8019 14.2867 13.7099 14.3815L13.215 14.9943C13.05 15.2063 12.885 15.4184 12.7083 15.6187L12.2134 15.2182L12.0131 15.065L12.0838 14.9707L13.0265 13.7923C13.0964 13.6826 13.1939 13.5933 13.3092 13.5331C13.3948 13.4994 13.4884 13.4916 13.5785 13.5104C13.6685 13.5293 13.7511 13.574 13.8159 13.6391C13.8639 13.6953 13.8984 13.7616 13.9168 13.8331ZM22.5001 22.5001H14.0045C14.0612 20.2648 14.9744 18.1367 16.5556 16.5556C18.1367 14.9744 20.2648 14.0612 22.5001 14.0045V22.5001ZM22.5001 22.5001V30.9958C24.7355 30.9391 26.8636 30.0259 28.4447 28.4447C30.0259 26.8636 30.9391 24.7355 30.9958 22.5001H22.5001Z" fill="url(#paint0_linear_2_829)"/>
<defs>
<linearGradient id="paint0_linear_2_829" x1="17.8127" y1="7.5" x2="26.2503" y2="30.9379" gradientUnits="userSpaceOnUse">
<stop stop-color="#808080"/>
<stop offset="1" stop-color="#333333"/>
</linearGradient>
</defs>
</svg>
