<svg width="45" height="45" viewBox="0 0 45 45" fill="none" xmlns="http://www.w3.org/2000/svg">
<path fill-rule="evenodd" clip-rule="evenodd" d="M3.70066 26.1169C1.59053 25.6831 0 24.2277 0 22.4998C0 22.0828 0.0894118 21.6825 0.256313 21.3084C2.76779 21.7464 3.76027 24.2654 3.70066 26.118V26.1169ZM4.97726 26.25L5.10939 26.2489C5.00309 23.4094 5.37465 20.0154 5.58625 18.7779C5.18103 18.7407 4.7735 18.7407 4.36826 18.7779C4.58087 20.0154 4.95143 23.4094 4.84513 26.2489L4.97726 26.25ZM5.34782 26.2427C5.44518 26.2374 5.46903 26.2311 5.5644 26.2217C5.4571 22.6591 6.77643 20.4063 7.52351 19.2767C7.20418 19.1339 6.8738 19.0203 6.53601 18.9372C5.87734 20.1558 5.37366 23.1139 5.34782 26.2427ZM5.7929 26.1955C5.86521 26.1967 5.93736 26.1879 6.00748 26.1693C6.00549 22.3311 8.23284 21.0485 9.17068 20.4796C8.9471 20.2191 8.69459 19.9879 8.41862 19.7912C5.98265 21.9696 5.74123 24.0862 5.7929 26.1955ZM6.25387 26.1169C8.36398 25.6831 9.9555 24.2277 9.9555 22.4998C9.9555 22.0828 9.86512 21.6825 9.69825 21.3084C7.18772 21.7464 6.19525 24.2654 6.25387 26.118V26.1169ZM4.6067 26.2427C4.50934 26.2374 4.4855 26.2311 4.39012 26.2217C4.49741 22.6591 3.1781 20.4063 2.43101 19.2767C2.75034 19.1339 3.08073 19.0203 3.41851 18.9372C4.07718 20.1558 4.58087 23.1139 4.6067 26.2427ZM4.16163 26.1955C4.08931 26.1968 4.01716 26.188 3.94703 26.1693C3.95002 22.3311 1.72167 21.0485 0.783844 20.4796C0.997434 20.2281 1.25078 19.9966 1.5359 19.7912C3.97188 21.9696 4.21428 24.0862 4.16163 26.1955ZM16.1448 24.454L18.0771 20.2669H20.2468L22.2059 24.454H18.7656L18.3424 23.5885H20.3531L19.1888 21.1052L17.6012 24.454H16.1448ZM11.3821 24.5651L14.7301 24.5672C14.9948 24.5734 15.2578 24.5239 15.504 24.4214C15.7502 24.3188 15.9744 24.1655 16.1637 23.9704C16.3529 23.7752 16.5033 23.5421 16.6059 23.2849C16.7086 23.0275 16.7615 22.7511 16.7615 22.472C16.7615 22.1929 16.7086 21.9166 16.6059 21.6592C16.5033 21.402 16.3529 21.1688 16.1637 20.9737C15.9744 20.7785 15.7502 20.6252 15.504 20.5227C15.2578 20.4202 14.9948 20.3706 14.7301 20.3769L11.3821 20.379V24.5651ZM12.8108 23.6954V21.2414H14.0943C14.4038 21.2414 14.7006 21.371 14.9194 21.6019C15.1382 21.8326 15.2611 22.1456 15.2611 22.472C15.2611 22.7984 15.1382 23.1114 14.9194 23.3422C14.7006 23.573 14.4038 23.7027 14.0943 23.7027H12.8108V23.6954ZM32.7386 20.2669L31.6796 22.9179L30.8858 21.1324L31.2564 20.2385H29.2983L29.6957 21.104L28.8741 22.9189L27.816 20.2669H22.3649V24.454H26.6785V23.5885H23.873V22.834H26.3338V21.914H23.8998V21.1879H26.9159L28.1866 24.454H29.351L30.2768 22.4443L31.2038 24.4812H32.3681L34.0351 20.2669H32.7386ZM42.0802 19.8687C40.6725 19.8687 39.4972 20.6913 39.222 21.7863C38.9468 20.6913 37.7715 19.8687 36.3638 19.8687C34.7514 19.8687 33.445 20.9469 33.445 22.2766C33.445 23.6074 34.7514 24.6845 36.3638 24.6845C37.7725 24.6845 38.9468 23.862 39.222 22.767C39.4972 23.862 40.6725 24.6845 42.0802 24.6845C43.6926 24.6845 45 23.6063 45 22.2766C45 20.9469 43.6926 19.8687 42.0802 19.8687ZM42.0802 23.8557C41.3361 23.8557 40.7331 23.1484 40.7331 22.2766C40.7331 21.4048 41.3361 20.6975 42.0802 20.6975C42.8253 20.6975 43.4273 21.4048 43.4273 22.2766C43.4273 23.1484 42.8243 23.8557 42.0802 23.8557ZM36.3638 23.8557C35.6197 23.8557 35.0167 23.1484 35.0167 22.2766C35.0167 21.4048 35.6197 20.6975 36.3638 20.6975C37.1089 20.6975 37.712 21.4048 37.712 22.2766C37.712 23.1484 37.1079 23.8557 36.3638 23.8557Z" fill="url(#paint0_linear_2_855)"/>
<defs>
<linearGradient id="paint0_linear_2_855" x1="15.469" y1="18.75" x2="15.8647" y2="25.3451" gradientUnits="userSpaceOnUse">
<stop stop-color="#808080"/>
<stop offset="1" stop-color="#333333"/>
</linearGradient>
</defs>
</svg>
