<svg width="45" height="45" viewBox="0 0 45 45" fill="none" xmlns="http://www.w3.org/2000/svg">
<path d="M17.5383 18.7739C17.5383 18.7739 18.1978 18.7739 18.3068 18.8373C18.3241 18.8469 18.3402 18.8561 18.3556 18.8651C18.4421 18.9153 18.5077 18.9534 18.6444 18.9534C18.8209 18.9534 18.8989 18.9692 18.821 19.117C18.743 19.2647 18.5146 19.5708 18.5146 19.5708L17.4708 18.9851C17.3462 18.8901 17.4448 18.8056 17.5383 18.7739Z" fill="url(#paint0_linear_2_857)"/>
<path fill-rule="evenodd" clip-rule="evenodd" d="M13.0823 12.0295H31.9226L34.3113 15.2224C32.6599 17.0643 31.1385 20.5368 30.318 23.8721H14.4429C13.7522 20.5315 12.345 17.0115 10.7402 15.2013L13.0823 12.0295ZM14.2351 12.7157L19.5112 12.6523C17.6606 12.851 16.7516 13.036 16.043 13.1802C15.5844 13.2736 15.2098 13.3499 14.718 13.4018L14.6498 13.4711C13.9784 14.154 13.4654 14.6757 12.0385 15.6816L14.2351 12.7157ZM25.1715 16.7686C24.3767 16.7787 23.7559 16.8021 23.0852 16.8272C22.713 16.8412 22.3255 16.8557 21.8844 16.8688C21.8844 16.8688 20.9704 16.8055 21.3547 16.1036C21.739 15.4017 21.9 15.2381 21.9 15.2381C21.9 15.2381 22.3466 14.6998 22.331 14.5838C22.3155 14.4676 22.331 14.3726 22.5075 14.4202C22.6842 14.4676 23.3748 14.4043 23.3748 14.4043C23.3748 14.4043 23.5825 14.2407 23.4371 14.1932L23.3987 14.1833C23.3342 14.1665 23.2437 14.1429 23.1671 14.1298C23.0736 14.1141 22.9905 14.0982 22.9905 14.0982C22.9503 14.088 22.908 14.0712 22.8705 14.0563C22.8498 14.0482 22.8305 14.0405 22.8139 14.0349C22.749 14.0428 22.6893 14.0507 22.6296 14.0587C22.5699 14.0665 22.5102 14.0744 22.4453 14.0824C22.4453 14.0824 22.2842 14.0982 22.2687 13.9188C22.2624 13.8465 22.2199 13.7716 22.185 13.7101C22.1331 13.6189 22.098 13.5568 22.222 13.5758C22.3221 13.5834 22.4221 13.6216 22.5206 13.6593C22.6263 13.6997 22.73 13.7394 22.8296 13.7394C22.8781 13.7394 22.9875 13.7402 23.1293 13.7413C23.5931 13.745 24.4046 13.7514 24.5796 13.7394C24.8081 13.7235 26.4855 12.9108 26.4698 12.631C26.4542 12.3566 26.3712 12.3355 26.2154 12.4042C26.1263 12.4434 25.9762 12.6342 25.8339 12.8153C25.7272 12.951 25.6248 13.0811 25.5558 13.1377C25.3949 13.2855 24.8652 13.4807 24.6419 13.4649C24.5139 13.4559 24.3739 13.3721 24.2572 13.3025C24.1704 13.2505 24.0964 13.2063 24.0499 13.2063C24.005 13.2063 24.005 13.2063 23.9945 13.2172C23.9782 13.234 23.9368 13.2768 23.6656 13.3857C23.219 13.5652 22.4141 13.4491 22.4141 13.4491C22.4141 13.4491 21.9987 13.1219 21.8844 13.1219C21.5936 13.2697 20.4407 13.0427 20.5395 12.9582C20.5395 12.9582 20.3161 13.0744 20.5861 13.1219C20.7939 13.2221 21.578 13.4491 21.6611 13.3963C21.6611 13.3963 21.8688 13.4438 21.7598 13.5441C21.6455 13.6444 20.7835 13.7552 20.7835 13.7552L20.7566 13.7687C20.7024 13.796 20.647 13.8237 20.607 13.8554C20.607 13.8554 19.854 13.8713 19.8851 14.0665C19.8851 14.2618 19.9319 14.362 20.1395 14.3251C20.1872 14.3251 20.3869 14.3806 20.5417 14.4235C20.6396 14.4507 20.7195 14.4729 20.7315 14.4729C20.7315 14.4729 20.8458 14.589 20.716 14.7684C20.5706 14.9479 19.5631 15.8767 19.5631 15.8767C19.5631 15.8767 18.7635 16.8531 18.7946 17.0167C18.8018 17.0926 18.7229 17.1617 18.6409 17.2335C18.5462 17.3164 18.4475 17.4028 18.4726 17.5074C18.3947 17.6869 18.4414 18.3043 18.5349 18.3043H17.0757C17.0757 18.3043 16.5928 18.4362 16.7849 18.679C16.8472 18.9745 17.0393 19.0854 17.1068 19.0695C17.4729 19.3263 17.839 19.5727 18.2203 19.8292L18.2208 19.8295L18.2285 19.8348L17.138 21.3336C16.7973 21.7079 16.3913 22.0324 15.9924 22.3512C15.9414 22.3921 15.8904 22.4328 15.8398 22.4735C15.8398 22.4735 14.8115 23.339 14.9569 23.4182C15.1023 23.4815 15.7567 23.2704 15.7567 23.2704C15.7567 23.2704 15.6113 23.2862 15.9177 22.8799C16.2085 22.4735 16.3642 22.4735 16.3642 22.4735C16.5564 22.3099 16.7486 22.1463 16.9251 21.9827C17.2159 21.6397 17.517 21.2966 17.8079 20.9747C17.8079 20.9747 17.9221 20.8269 18.0312 20.8111C18.0852 20.8036 18.1809 20.6536 18.2805 20.4974C18.3918 20.3229 18.508 20.1409 18.5764 20.1409C18.7218 20.1409 19.4281 20.5789 19.4281 20.5789C19.4281 20.5789 20.3109 20.5789 20.3888 20.4311C20.4511 20.2834 20.0045 20.009 20.0045 20.009C20.0045 20.009 19.828 20.2834 19.667 20.2359C19.506 20.1884 18.9451 19.8611 18.9451 19.8611L19.0617 19.7574C19.2785 19.5647 19.498 19.3695 19.7137 19.1592C19.7137 19.1592 20.2434 19.3387 20.4044 19.3387C20.4813 19.3387 20.8654 19.276 21.2665 19.2106C21.7047 19.1391 22.1632 19.0643 22.2635 19.0643H23.8837C23.8837 19.0643 24.4757 19.7187 24.5277 19.8928C24.5744 20.0723 24.5432 20.2675 24.429 20.3836C24.4148 20.3981 24.3918 20.4238 24.3618 20.4577C24.2601 20.5719 24.0764 20.7786 23.8681 20.9536C23.4527 21.3283 23.0996 21.6555 22.762 21.9827C22.3155 22.0302 21.5416 23.4973 21.6248 23.434C21.5625 23.3865 22.3466 23.2229 22.3466 23.2229C22.3466 22.9485 22.4453 22.6846 22.601 22.4419C22.6391 22.3852 22.7043 22.3599 22.7708 22.3342C22.8405 22.3073 22.9116 22.2797 22.9542 22.2149C23.3229 21.6133 23.8681 21.1383 24.3978 20.943C24.3978 20.943 25.3741 20.4048 25.3118 20.2728C25.3065 20.2602 25.299 20.243 25.2898 20.2221C25.1915 19.998 24.9078 19.3508 25.1975 19.4231C25.4883 19.2437 27.2021 20.0247 27.2332 20.1884C27.441 20.4813 27.6499 20.7742 27.8589 21.067C28.068 21.3599 28.277 21.6529 28.4848 21.9458C28.7548 22.7268 29.3208 23.3126 30.1673 23.7559C30.105 23.5765 30.0375 23.3813 29.9907 23.2018C29.9907 23.2018 30.0062 22.8588 29.7986 22.8271C29.2332 22.7399 29.227 22.7093 29.1777 22.4649C29.1613 22.3838 29.1402 22.279 29.0923 22.141C28.6457 21.6027 28.116 20.8217 27.9551 20.2834C27.9551 20.2834 28.0537 20.0723 27.9394 19.9404C27.8353 19.8055 27.6533 19.7279 27.5394 19.6792L27.5085 19.6659C27.3942 19.6184 26.9788 19.2912 26.9164 19.1276C26.8541 18.964 26.3088 17.4177 26.4855 17.3491C26.662 17.2858 26.6931 17.3174 26.6931 17.3174C26.7243 17.1644 25.2495 16.6103 25.1715 16.7686Z" fill="url(#paint1_linear_2_857)"/>
<path d="M21.3237 28.1099H21.9312L21.6249 27.0649L21.3237 28.1099Z" fill="url(#paint2_linear_2_857)"/>
<path fill-rule="evenodd" clip-rule="evenodd" d="M30.2037 24.4104C29.8038 26.2205 29.6272 27.9621 29.7571 29.329L22.3518 32.7488L14.8947 29.2023C15.0401 27.883 14.9103 26.1731 14.5728 24.3945H30.2037V24.4104ZM27.768 26.5954V26.8909L27.3213 27.3818L27.8355 27.7564V29.1391H22.2218L22.1076 28.717H21.1624L21.0327 29.1391H20.4718L21.2178 26.5796H18.727V29.1233H16.7692V25.9938H23.1826L23.9136 28.5533H26.0906V27.672L25.7687 27.5242L26.2517 26.5954H24.9378V25.9938H27.7784V26.5954H27.768Z" fill="url(#paint3_linear_2_857)"/>
<path fill-rule="evenodd" clip-rule="evenodd" d="M33.1222 9.375H11.8933L7.5 15.3227L7.59867 15.4018L7.93621 15.7607L8.25817 16.1354L8.57496 16.5418L8.88134 16.9481L9.18772 17.3915L9.47334 17.8453L9.74859 18.3202L10.0186 18.8058L10.2783 19.3124L10.5327 19.819L10.756 20.3415L10.9793 20.8798L11.1923 21.4129L11.3999 21.9669L11.7531 23.0752L11.914 23.6452L12.0387 24.1993L12.1685 24.7693L12.2827 25.3235L12.4386 26.4317L12.5061 26.9858L12.5372 27.54L12.5527 28.0625V28.6007L12.5216 29.1232L12.4905 29.6298L12.423 30.1153L12.3295 30.6062L12.2983 30.7328L22.3157 35.625L32.2239 30.8964L32.1927 30.7328L32.1148 30.2315L32.0473 29.7248L32.0162 29.2024V28.1257L32.0473 27.5716L32.1148 27.0228L32.1772 26.4686L32.2759 25.8934L32.3849 25.3235L32.5147 24.7535L32.6602 24.1835L32.8211 23.6136L32.9977 23.0436L33.1898 22.4737L33.3819 21.9195L33.8286 20.8112L34.0882 20.2729L34.3427 19.7347L34.5971 19.2174L34.8879 18.7108L35.1579 18.22L35.4643 17.7503L35.7707 17.2753L36.0927 16.8373L36.4095 16.4151L36.7314 16.0035L37.0689 15.6129L37.4065 15.2541L37.5 15.1591L33.1222 9.375ZM12.828 11.4753H32.1927L34.9502 15.1747L35.0125 15.2496L34.9502 15.3225L34.488 15.8608L34.244 16.1511L34.0207 16.4782L33.7973 16.8213L33.574 17.1802L33.3508 17.5549L33.1222 17.9454L32.9146 18.3517L32.7068 18.774L32.4991 19.2172L32.2914 19.6711L32.0993 20.1249L31.7461 21.0749L31.5696 21.5446L31.4086 22.0354L31.2476 22.5209L31.1022 23.0275L30.9775 23.5184L30.8478 24.0039L30.7335 24.4947L30.64 24.9855L30.5413 25.4552L30.4634 25.9301L30.3959 26.3841L30.3337 26.8432L30.3024 27.297L30.2713 27.7192L30.2558 28.1256V28.5372L30.2713 28.9119L30.3181 29.6771L22.352 33.3608L14.334 29.5452L14.3962 28.7958L14.4119 28.4212V27.6242L14.3962 27.1968L14.3651 26.7587L14.3184 26.3048L14.2665 25.8458L14.1886 25.3761L14.1107 24.901L14.0276 24.4102L13.9342 23.9247L13.8199 23.4339L13.69 22.9484L13.5654 22.4576L13.4356 21.9668L13.2746 21.4813L13.1292 20.9904L12.9682 20.5208L12.7916 20.0617L12.6151 19.6078L12.4229 19.1486L12.2464 18.7106L12.0386 18.2885L11.8465 17.8768L11.6388 17.4862L11.4311 17.1115L11.2234 16.7685L11.0001 16.4308L10.7872 16.1194L10.5638 15.8397L10.0497 15.238L12.828 11.4753Z" fill="url(#paint4_linear_2_857)"/>
<defs>
<linearGradient id="paint0_linear_2_857" x1="17.8129" y1="9.37502" x2="24.4514" y2="30.4499" gradientUnits="userSpaceOnUse">
<stop stop-color="#808080"/>
<stop offset="1" stop-color="#333333"/>
</linearGradient>
<linearGradient id="paint1_linear_2_857" x1="17.8125" y1="9.3751" x2="24.451" y2="30.45" gradientUnits="userSpaceOnUse">
<stop stop-color="#808080"/>
<stop offset="1" stop-color="#333333"/>
</linearGradient>
<linearGradient id="paint2_linear_2_857" x1="17.8127" y1="9.37489" x2="24.4512" y2="30.4498" gradientUnits="userSpaceOnUse">
<stop stop-color="#808080"/>
<stop offset="1" stop-color="#333333"/>
</linearGradient>
<linearGradient id="paint3_linear_2_857" x1="17.8125" y1="9.37503" x2="24.451" y2="30.4499" gradientUnits="userSpaceOnUse">
<stop stop-color="#808080"/>
<stop offset="1" stop-color="#333333"/>
</linearGradient>
<linearGradient id="paint4_linear_2_857" x1="17.8127" y1="9.375" x2="24.4512" y2="30.4499" gradientUnits="userSpaceOnUse">
<stop stop-color="#808080"/>
<stop offset="1" stop-color="#333333"/>
</linearGradient>
</defs>
</svg>
