<svg width="45" height="45" viewBox="0 0 45 45" fill="none" xmlns="http://www.w3.org/2000/svg">
<path fill-rule="evenodd" clip-rule="evenodd" d="M37.2733 26.9783H7.82735C6.37093 25.8963 5.6463 24.7792 5.67615 23.6445C5.71912 21.9788 7.36774 20.6874 7.8178 20.3576H37.271C38.6557 21.4092 39.3445 22.5145 39.3254 23.6375C39.2956 25.3056 37.721 26.6344 37.2733 26.9783ZM30.1034 27.9457C29.3233 29.2267 28.2174 30.2875 26.8938 31.0246C25.5701 31.7617 24.074 32.1497 22.5516 32.1508C21.0285 32.15 19.5318 31.762 18.2076 31.025C16.8832 30.2879 15.7767 29.2269 14.9961 27.9457H30.1034ZM22.4763 36.5314C16.6877 36.5314 11.7502 32.9451 9.90337 27.9457H13.8691C15.5058 31.0149 18.7827 33.1217 22.5479 33.1217C26.318 33.1217 29.5937 31.0149 31.2316 27.9457H35.0481C33.1989 32.9451 28.2638 36.5314 22.4775 36.5314H22.4763ZM14.7871 19.3949C16.2746 16.6718 19.1982 14.8154 22.5516 14.8154C25.906 14.8154 28.8261 16.6718 30.3172 19.3949H14.7871ZM22.4775 10.657C25.2041 10.657 27.8257 11.4502 30.0617 12.9486C30.1557 13.0108 30.2687 13.0394 30.3817 13.0296C30.4948 13.0198 30.6009 12.9722 30.6824 12.8948L33.2693 10.436C33.3214 10.3875 33.3618 10.3284 33.3877 10.2629C33.4136 10.1973 33.4243 10.127 33.4193 10.0568C33.4141 9.98672 33.3932 9.91856 33.3579 9.85734C33.3228 9.79603 33.2741 9.74325 33.2156 9.70256L31.9908 8.82758L37.9299 8.49655L38.0039 14.1054L37.1408 13.1182C37.0967 13.0699 37.0431 13.0308 36.9832 13.0032C36.9232 12.9757 36.8584 12.9603 36.7922 12.9579C36.7253 12.9548 36.6586 12.9651 36.596 12.9882C36.5333 13.0113 36.4762 13.0468 36.4282 13.0924L33.5989 15.7162C33.5133 15.7942 33.4594 15.8999 33.4471 16.0138C33.4348 16.1278 33.4649 16.2422 33.5319 16.336C34.2005 17.2941 34.7257 18.32 35.1078 19.3949H31.4166C29.8504 16.1197 26.4648 13.8481 22.5479 13.8481C18.6347 13.8481 15.2515 16.1209 13.6829 19.3949H9.852C11.6558 14.3159 16.6327 10.657 22.4763 10.657H22.4775ZM37.7341 19.4885C37.6484 19.4258 37.5438 19.3928 37.4369 19.3949H36.1476C35.7737 18.2466 35.2466 17.1516 34.5802 16.1384L36.7301 14.1382L38.1436 15.7407C38.2109 15.8147 38.2993 15.8673 38.3975 15.8915C38.4956 15.9157 38.5988 15.9104 38.6939 15.8764C38.7885 15.8413 38.8698 15.7784 38.9264 15.6963C38.983 15.6143 39.0124 15.5169 39.0103 15.4178L38.91 7.97837C38.9083 7.91338 38.8934 7.84938 38.8661 7.79013C38.8389 7.73087 38.7998 7.67754 38.7512 7.63329C38.7036 7.5872 38.6465 7.55157 38.5837 7.52878C38.5209 7.50599 38.4539 7.49656 38.3872 7.50112L30.5523 7.94093C30.4513 7.94695 30.3546 7.98314 30.2752 8.04462C30.1957 8.1061 30.1375 8.18993 30.1082 8.28484C30.0799 8.38076 30.0821 8.48286 30.1146 8.57752C30.1469 8.67219 30.208 8.75493 30.2897 8.81472L32.1592 10.1436L30.2801 11.9262C27.9517 10.4625 25.2427 9.68644 22.4763 9.69084C16.08 9.69084 10.6494 13.7732 8.80745 19.3949H7.66142C7.56625 19.3929 7.47267 19.419 7.39281 19.4698C7.28299 19.5399 4.75693 21.1869 4.68889 23.6141C4.6471 25.1183 5.55079 26.5432 7.37133 27.852C7.45489 27.9105 7.55755 27.9457 7.66142 27.9457H8.85878C10.7462 33.4867 16.1362 37.4999 22.4763 37.4999C28.8165 37.4999 34.2052 33.4867 36.0915 27.9457H37.4369C37.5379 27.9463 37.6365 27.9156 37.7186 27.8579C37.8236 27.7877 40.2673 26.0963 40.3115 23.6586C40.3414 22.1707 39.4723 20.767 37.7341 19.4885Z" fill="url(#paint0_linear_2_895)"/>
<path fill-rule="evenodd" clip-rule="evenodd" d="M14.7311 21.8799H11.8863V22.4274H12.6456L11.3324 24.8124L9.91174 22.4379L10.9492 22.4309L10.9468 21.8799H6.82227V22.4379H7.77133L8.15095 23.1187L9.20626 25.0242L9.63124 25.7821H11.9198L12.7853 24.2264L13.7785 22.4309H13.8071L14.7299 22.4238L14.7311 21.8799ZM17.244 25.2768C16.8226 25.2768 16.4824 24.6136 16.4824 23.7889C16.4824 22.9654 16.8226 22.3034 17.244 22.3034C17.6654 22.3034 18.0069 22.9654 18.0069 23.7889C18.0069 24.6136 17.6654 25.2768 17.2428 25.2768H17.244ZM17.287 21.77C15.6718 21.77 14.361 22.6918 14.361 23.831C14.361 24.9657 15.6718 25.8909 17.2858 25.8909C18.9011 25.8909 20.2094 24.9668 20.2094 23.8322C20.2094 22.6918 18.9011 21.77 17.287 21.77ZM35.7143 25.2534C35.6758 25.2682 35.6351 25.2762 35.5937 25.2768C35.1712 25.2768 34.8297 24.6136 34.8297 23.7889C34.8297 22.9666 35.1723 22.3034 35.5937 22.3034C35.6534 22.3034 35.7084 22.3151 35.7644 22.3408C36.1035 22.4881 36.3542 23.0824 36.3542 23.7889C36.3566 24.5317 36.0772 25.1423 35.7131 25.2534H35.7143ZM35.6952 21.7723C35.6749 21.77 35.6534 21.77 35.6355 21.77C34.0191 21.77 32.7107 22.6929 32.7107 23.831C32.7107 24.9645 34.0084 25.8839 35.6152 25.8921H35.6355C35.9901 25.8921 36.3267 25.8477 36.6383 25.7634C37.7592 25.4745 38.5603 24.7212 38.5603 23.831C38.5603 22.9573 37.7915 22.2145 36.7088 21.9127C36.3785 21.8212 36.0371 21.774 35.694 21.7723H35.6952ZM24.2934 25.1727H23.3084V22.4379L24.2432 22.4309V21.8811H20.4839V22.4379H21.4354L21.4366 25.175H20.435V25.781L21.4378 25.7833H26.1807V23.9726H25.5611C25.5277 24.9317 24.6598 25.1739 24.2934 25.1739V25.1727ZM33.0701 21.8799H30.2276V22.4274H30.9834L29.6701 24.8124L28.2495 22.4379L29.287 22.4309L29.2834 21.8799H25.1589V22.4379H26.1103L27.9702 25.7821H30.2599L32.1162 22.4309H32.2882L33.0688 22.4238L33.0701 21.8799Z" fill="url(#paint1_linear_2_895)"/>
<defs>
<linearGradient id="paint0_linear_2_895" x1="16.9337" y1="7.5" x2="24.2844" y2="31.7469" gradientUnits="userSpaceOnUse">
<stop stop-color="#808080"/>
<stop offset="1" stop-color="#333333"/>
</linearGradient>
<linearGradient id="paint1_linear_2_895" x1="16.9335" y1="7.50024" x2="24.2843" y2="31.7472" gradientUnits="userSpaceOnUse">
<stop stop-color="#808080"/>
<stop offset="1" stop-color="#333333"/>
</linearGradient>
</defs>
</svg>
