<svg width="39" height="15" viewBox="0 0 39 15" fill="none" xmlns="http://www.w3.org/2000/svg">
<path fill-rule="evenodd" clip-rule="evenodd" d="M19.506 14.5312C29.8573 14.5312 38.25 11.3901 38.25 7.506C38.25 3.62184 29.8573 0.46875 19.506 0.46875C9.14269 0.46875 0.75 3.62184 0.75 7.506C0.75 11.3902 9.14269 14.5312 19.506 14.5312ZM1.48792 7.50647C1.48792 11.0071 9.56588 13.8125 19.5061 13.8125C29.4706 13.8125 37.5364 11.0071 37.5364 7.50647C37.5364 4.01803 29.4706 1.17666 19.5061 1.17666C9.56588 1.17666 1.48792 4.01803 1.48792 7.50647ZM36.9682 7.50619C36.9682 10.7193 29.1443 13.3207 19.5064 13.3207C9.85641 13.3207 2.05666 10.7193 2.05645 7.50619C2.05645 4.30547 9.85641 1.704 19.5064 1.704C29.1443 1.704 36.9682 4.30547 36.9682 7.50619ZM24.5542 8.193C24.4045 8.34825 24.2491 8.5095 24.0779 8.66934L24.0457 8.69803C23.8098 8.90981 23.5163 9.17297 22.8803 9.17278C22.4934 9.17278 22.1909 8.86106 22.2637 8.46544C22.3122 8.15381 22.4209 7.99809 22.6506 7.914C22.7594 8.22563 22.9648 8.39353 23.316 8.39353C23.7149 8.38153 23.9442 8.02191 23.9564 7.71037C23.9564 7.44666 23.7872 7.11084 23.3033 7.08684C22.856 7.06294 22.5173 7.26684 22.0338 7.81828C22.0338 7.81828 22.1546 7.00294 21.2477 7.02703C21.151 7.02703 21.0543 7.02703 20.9576 7.07484C20.4818 7.22428 19.8728 7.95825 19.3758 8.5575L19.3128 8.63334C19.3371 8.51334 19.3371 8.39353 19.3371 8.27344C19.3371 7.92591 19.2039 7.47028 18.9621 7.23047C18.9138 7.18256 18.8652 7.18256 18.8169 7.18256C18.6598 7.18256 18.5269 7.31456 18.5269 7.51819C18.6477 7.63819 18.8051 7.93791 18.8051 8.22563C18.8051 8.51334 18.7206 9.04087 18.5994 9.24478C18.1399 10.0238 17.5594 10.5274 16.858 10.4195C16.4832 10.3355 16.2292 9.97594 16.3018 9.4365C16.3381 9.12497 16.5317 8.69334 16.7129 8.42963C17.0153 8.02191 17.5111 7.60247 18.2366 7.49456C18.2366 7.49456 18.2727 7.35066 18.1762 7.27875C18.1399 7.21875 18.0915 7.14684 17.9222 7.14684C16.8943 7.18275 16.2657 7.914 15.9027 8.63334L15.8192 8.79103V8.79112C15.6975 9.02034 15.5548 9.28913 15.4673 9.4725C15.4673 9.4725 15.3706 9.7365 14.9232 10.0721L14.8763 10.109C14.6833 10.2602 14.6183 10.3111 14.5847 10.2998C14.5969 10.3839 14.6572 10.5039 14.7663 10.5998C14.7965 10.6197 14.8863 10.5724 14.943 10.5426C14.9505 10.5386 14.9574 10.535 14.9635 10.5318C14.9663 10.5304 14.9691 10.529 14.9715 10.5278C15.5399 10.2041 15.6005 10.0483 15.6005 10.0483C15.7213 10.7198 16.3018 11.0673 16.9428 11.0673C17.8255 11.0673 18.6355 10.2762 19.1074 9.58078C19.6032 8.84953 20.2804 8.13019 20.2804 8.13019C20.5467 7.87866 20.8245 7.71075 20.9937 7.71075C21.151 7.72247 21.2599 7.85438 21.2234 7.99847C21.1633 8.25 21.0787 8.48962 20.9092 8.78953L19.591 11.0073H20.6189C21.0758 10.1563 21.1948 9.94059 21.4918 9.40191L21.492 9.40163L21.4921 9.40153L21.4923 9.40125C21.5801 9.24178 21.6836 9.05409 21.8161 8.81334C21.973 9.40097 22.2876 9.62869 22.7957 9.64078C23.231 9.65269 23.5333 9.62887 23.8598 9.46097C23.7752 9.79659 23.8237 10.1321 23.9326 10.3598C24.0532 10.6355 24.2951 10.9832 24.8878 10.9952C25.6012 10.9952 26.3028 10.6834 26.5082 10.5038C26.5686 10.8513 26.7381 11.0311 27.1855 11.0311C28.0925 11.0071 28.8905 10.0841 29.3743 9.48459C29.4589 9.37669 29.5677 9.19706 29.5677 9.14897C29.5677 9.07706 29.4709 9.02916 29.4224 9.02916C29.3752 9.02916 29.2928 9.13238 29.2443 9.19322L29.2412 9.19706C29.0113 9.43669 28.0562 10.4197 27.5362 10.4437C27.6451 10.4437 27.355 10.5036 27.3304 10.2758C27.3204 10.1587 27.3989 10.0176 27.4546 9.91753C27.4673 9.89475 27.4788 9.87413 27.4878 9.85641L30.0755 5.31281H29.1202L27.5601 7.92609C27.5477 7.90153 27.5347 7.8735 27.5205 7.84303L27.5204 7.84294C27.3964 7.57641 27.1848 7.12153 26.5447 7.11084C25.6061 7.10138 25.1228 7.60294 24.5542 8.193ZM22.2998 4.61747C23.4487 4.61747 24.8032 3.88622 24.8032 3.50259C24.8032 3.40659 24.8032 3.31059 24.5616 3.31059C24.4225 3.31059 24.3957 3.31716 24.3071 3.33881C24.226 3.35859 24.0932 3.39103 23.7754 3.44259C23.2484 3.52303 22.6194 3.51909 22.0734 3.51572C21.9681 3.51516 21.8657 3.5145 21.7678 3.5145C20.1232 3.49041 18.1038 3.15478 17.2938 3.01097C16.5922 2.89097 15.9513 2.84306 15.383 2.84306C12.372 2.84306 11.1505 4.04184 11.1385 5.22872C11.1264 5.86416 11.5981 6.51159 12.2994 6.51159C13.557 6.51159 14.2826 5.21681 14.3431 4.74928C14.3431 4.74928 14.3674 4.66537 14.2948 4.60537C14.2585 4.58137 14.1617 4.59347 14.1254 4.67728C13.9561 5.07291 13.2789 5.52853 12.7951 5.61244C12.3475 5.69644 12.0455 5.45663 12.0212 5.08509C11.9727 4.17403 13.0128 3.17888 15.3467 3.17888C16.0119 3.17888 16.8584 3.35869 17.7897 3.5745L17.8134 3.57994C17.4398 3.66131 16.1175 4.67175 15.0805 6.24816C15.0554 6.25134 15.0231 6.25509 14.9847 6.2595H14.9846C14.5988 6.30412 13.6066 6.41888 13.2547 6.8115C13.2182 6.8595 13.1819 6.94341 13.1819 6.96741C13.2062 7.06341 13.2788 7.11131 13.3874 7.02741C13.6293 6.75187 14.6089 6.64378 14.8386 6.63178C13.4116 8.62191 12.0936 9.92859 10.9206 9.92859C10.8964 9.92859 10.8723 9.92906 10.848 9.92953C10.7508 9.9315 10.6521 9.93347 10.5456 9.9045C10.0741 9.79688 9.79584 9.30525 9.79584 8.86172C9.79584 8.27419 10.3642 7.63884 10.6907 7.51884C10.7997 7.47094 10.848 7.41113 10.848 7.36303C10.848 7.29113 10.7997 7.24303 10.6666 7.24303C9.54187 7.51884 8.93719 8.43009 8.94938 9.17334C8.97366 10.3961 9.90469 11.0795 10.9568 11.0795C12.4323 11.0795 13.1819 10.444 15.5884 6.58378C16.5439 6.48778 17.0155 6.42778 17.499 6.34387C17.499 6.34387 17.6441 6.69159 18.0069 6.69159C18.0504 6.70022 18.0563 6.67144 18.0698 6.60525C18.075 6.57966 18.0814 6.54853 18.0915 6.51178C17.9342 6.49969 17.753 6.39178 17.753 6.25988C17.8979 6.18788 18.0189 6.10387 18.128 6.02016C18.2854 5.87634 18.4425 5.57672 18.4425 5.37281C18.4425 5.18109 18.2976 5.00119 18.0797 4.96528C17.6926 4.90528 17.3903 5.217 17.3541 5.73244C17.3541 5.86444 17.4024 6.02016 17.4024 6.02016C17.4024 6.02016 16.556 6.16406 15.8303 6.20006C16.5966 4.91691 17.3097 4.34569 17.6507 4.0725L17.6508 4.07241C17.708 4.02656 17.7547 3.98916 17.7894 3.95822C17.8375 3.92222 17.9584 3.7905 17.9707 3.76641C17.9986 3.69741 17.9742 3.64425 17.9393 3.61162C18.1598 3.67087 18.4298 3.76031 18.7362 3.86184C19.6972 4.18022 21.0172 4.61747 22.2998 4.61747ZM17.9947 5.80406C17.8134 6.00797 17.6924 5.99578 17.6924 5.99578C17.6563 5.85216 17.632 5.72016 17.6924 5.52834C17.7407 5.34853 17.8495 5.26463 18.0311 5.22853C18.1158 5.21653 18.1518 5.30044 18.1641 5.37234C18.1883 5.51625 18.0672 5.73206 17.9947 5.80406ZM25.202 8.51334C25.6372 7.98581 26.1693 7.62609 26.5928 7.674C27.1121 7.73381 27.1609 8.23753 26.9069 8.70497L27.04 8.74116C27.04 8.74116 26.6289 9.4245 26.2057 9.84422C25.4561 10.5994 24.9723 10.3476 24.8634 10.2638C24.7546 10.1798 24.67 9.88022 24.7181 9.58031C24.7546 9.28069 24.9843 8.77706 25.202 8.51334Z" fill="url(#paint0_linear_2_838)"/>
<defs>
<linearGradient id="paint0_linear_2_838" x1="13.6408" y1="0.46875" x2="15.2862" y2="12.657" gradientUnits="userSpaceOnUse">
<stop stop-color="#808080"/>
<stop offset="1" stop-color="#333333"/>
</linearGradient>
</defs>
</svg>
