<svg width="48" height="48" viewBox="0 0 48 48" fill="none" xmlns="http://www.w3.org/2000/svg">
<path fill-rule="evenodd" clip-rule="evenodd" d="M23.948 13.3574C23.948 13.1454 23.8853 13.1391 23.8689 13.3485L23.2036 23.3483L23.8652 23.738L23.948 13.3561V13.3574ZM20.8522 25.6839L23.6367 24.1239L23.004 23.7685L20.7744 25.6167C20.6488 25.722 20.7053 25.7664 20.8522 25.6839Z" fill="url(#paint0_linear_2_839)"/>
<path fill-rule="evenodd" clip-rule="evenodd" d="M39.319 21.2857C39.2806 21.2299 39.2513 21.1681 39.2324 21.1029C38.0624 17.4573 37.0668 16.0243 35.1461 13.893C32.6177 11.0865 28.4862 8.91978 24.0949 8.91471C15.6963 8.91471 8.88198 15.8059 8.88198 24.2965C8.88198 26.8225 9.42557 29.0007 9.8637 30.0961C10.3784 31.3655 11.2647 33.0765 11.3087 33.154C11.3488 33.2428 11.3526 33.2809 11.3564 33.3571C11.2985 33.3105 11.2499 33.2532 11.2133 33.1882C10.9584 32.8151 9.91517 30.9149 9.58877 30.0847C8.88198 28.2772 8.35974 26.3072 8.35974 24.2381C8.35974 15.4861 15.3661 8.38666 24.0271 8.38666C31.7641 8.38666 38.0021 13.8194 39.319 21.0953C39.3228 21.1638 39.3441 21.2222 39.319 21.2857ZM10.8756 31.6727C10.3483 30.5633 9.78963 29.0007 9.55739 27.7631C9.55362 27.692 9.54107 27.6336 9.56617 27.5689C9.60384 27.6184 9.62267 27.6742 9.65405 27.7593C10.0181 28.8941 10.3332 29.9134 11.1605 31.4467L10.8756 31.6727ZM11.1655 31.5318L22.3762 23.3826L21.4171 22.8317L11.4317 31.2259C10.3106 29.1695 9.53102 26.5318 9.53102 24.0224C9.52326 22.1329 9.8841 20.2604 10.5929 18.5121C11.3017 16.7639 12.3445 15.1741 13.6617 13.8338C14.9789 12.4935 16.5446 11.429 18.2691 10.7012C19.9937 9.97343 21.8432 9.59669 23.712 9.59253L21.6682 22.4446L22.6223 23.0031L23.9065 9.5938C23.9317 9.42498 24.0446 9.42498 24.0446 9.5938L24.12 23.7368L26.3935 22.3862L24.2166 9.59126C32.0038 9.80324 38.4566 16.1512 38.4566 23.9982C38.4566 26.5293 37.6996 29.1708 36.5534 31.2398L26.578 22.8368L25.6176 23.3928L36.3387 31.255C36.5973 31.4404 36.5182 31.5241 36.2433 31.3693L24.2016 24.3486V26.9799L36.2722 31.6422C33.7426 35.8132 29.1792 38.4814 23.9568 38.4814C18.7218 38.4814 14.2312 35.8158 11.7016 31.6371L23.7923 26.9723V24.341L11.271 31.6523C10.9735 31.8174 10.8944 31.7272 11.1655 31.533V31.5318ZM23.9957 39.3915C17.9848 39.3915 13.2696 36.2308 11.0224 31.8897L11.3677 31.7615C11.9514 32.7237 12.7134 33.5703 13.7404 34.714C15.0008 36.1179 18.9942 38.8254 23.9907 38.8254C26.5137 38.835 28.9974 38.1923 31.2056 36.9581C33.4138 35.724 35.2733 33.9395 36.6074 31.7742C36.8082 31.7171 36.8723 31.6282 36.8057 31.4505C38.0059 29.3117 38.8219 26.6245 38.8219 23.997C38.8219 22.343 38.5834 20.9975 38.2005 19.7955C37.9652 19.0544 37.6783 18.3312 37.3418 17.6312C37.3042 17.569 37.285 17.4972 37.2865 17.4243C37.3506 17.4777 37.4284 17.5995 37.4284 17.5995C37.6606 18.0286 38.1816 19.0783 38.4252 19.7612C38.7541 20.6751 39.3429 21.9381 39.3429 23.997C39.3429 32.4178 32.5261 39.3966 23.9957 39.3915ZM23.9957 7.99951C15.164 7.99571 8.00195 15.1598 8.00195 23.997C8.0007 32.8316 15.1577 39.9982 23.9957 40.0008C32.8337 40.0008 39.9982 32.8354 39.9982 23.997C40.0007 15.1649 32.8399 7.99951 23.9957 7.99951Z" fill="url(#paint1_linear_2_839)"/>
<path fill-rule="evenodd" clip-rule="evenodd" d="M33.2823 29.3254L25.0343 23.7378L24.3564 24.1313L33.2421 29.3876C33.4003 29.4816 33.4342 29.4257 33.2823 29.3254Z" fill="url(#paint2_linear_2_839)"/>
<defs>
<linearGradient id="paint0_linear_2_839" x1="19.0006" y1="7.99956" x2="28.0023" y2="33.0001" gradientUnits="userSpaceOnUse">
<stop stop-color="#808080"/>
<stop offset="1" stop-color="#333333"/>
</linearGradient>
<linearGradient id="paint1_linear_2_839" x1="19.0008" y1="7.99951" x2="28.0025" y2="33" gradientUnits="userSpaceOnUse">
<stop stop-color="#808080"/>
<stop offset="1" stop-color="#333333"/>
</linearGradient>
<linearGradient id="paint2_linear_2_839" x1="19.0008" y1="7.9995" x2="28.0025" y2="33" gradientUnits="userSpaceOnUse">
<stop stop-color="#808080"/>
<stop offset="1" stop-color="#333333"/>
</linearGradient>
</defs>
</svg>
