<svg width="45" height="45" viewBox="0 0 45 45" fill="none" xmlns="http://www.w3.org/2000/svg">
<g clip-path="url(#clip0_2_869)">
<path d="M21.2465 28.1219C21.7289 27.8726 22.0328 27.3728 22.0376 26.8262C22.0376 26.4852 21.8833 25.3647 20.3589 25.3647H15.2456V30.9084H20.3686C22.0762 30.9084 22.1534 29.8465 22.1534 29.3496C22.1363 29.0782 22.0414 28.8177 21.8805 28.5998C21.7195 28.3818 21.4992 28.2159 21.2465 28.1219ZM16.8858 26.4852H19.8959C19.975 26.4785 20.0547 26.4883 20.13 26.5141C20.2052 26.5398 20.2744 26.581 20.3332 26.6349C20.392 26.6888 20.4393 26.7544 20.4719 26.8275C20.5045 26.9007 20.5219 26.9798 20.523 27.06C20.5317 27.1385 20.5232 27.218 20.498 27.2928C20.4727 27.3676 20.4315 27.4359 20.3771 27.4927C20.3227 27.5495 20.2565 27.5935 20.1833 27.6214C20.1101 27.6493 20.0317 27.6606 19.9537 27.6543H16.8858V26.4852ZM16.8858 29.788V28.5897H19.9537C20.0391 28.5813 20.1252 28.5914 20.2065 28.6192C20.2877 28.6469 20.3622 28.6917 20.4251 28.7506C20.4879 28.8095 20.5378 28.8811 20.5713 28.9609C20.6047 29.0406 20.6211 29.1266 20.6195 29.2132C20.6185 29.2943 20.6009 29.3743 20.5676 29.4482C20.5344 29.522 20.4863 29.5881 20.4264 29.6422C20.3665 29.6962 20.2961 29.7372 20.2197 29.7622C20.1433 29.7873 20.0626 29.7961 19.9827 29.788H16.8858ZM36.4996 28.7747C36.9907 28.462 37.3004 27.9271 37.3294 27.3426C37.3623 27.0787 37.3351 26.8107 37.2498 26.5592C37.1644 26.3077 37.0233 26.0791 36.8371 25.8911C36.6509 25.703 36.4246 25.5605 36.1755 25.4743C35.9264 25.3882 35.661 25.3607 35.3998 25.394H30.4987V30.9376H32.1485V29.1937H35.1103C35.5444 29.2239 35.8821 29.5834 35.8918 30.0218V30.9084H37.3582V30.051C37.3318 29.7829 37.2394 29.5257 37.0894 29.3028C36.9394 29.0799 36.7367 28.8984 36.4996 28.7747ZM35.1682 28.1707H32.1485V26.4852H35.1682C35.5734 26.4852 35.8339 26.982 35.8339 27.3717C35.845 27.5656 35.7822 27.7564 35.6584 27.905C35.5347 28.0535 35.3593 28.1486 35.1682 28.1707ZM25.1057 25.3647L22.1437 30.9084H23.7549L24.3628 29.788H27.8166L28.4148 30.9084H30.0356L27.0351 25.3647H25.1057ZM24.9995 28.5897L26.0704 26.5924L27.2089 28.5897H24.9995Z" fill="url(#paint0_linear_2_869)"/>
<path fill-rule="evenodd" clip-rule="evenodd" d="M43.3304 25.3648V29.3203C43.3304 29.5347 43.2533 29.788 42.9445 29.788H40.0502C39.9898 29.797 39.9282 29.7922 39.87 29.7737C39.8117 29.7553 39.7583 29.7239 39.7138 29.6817C39.6693 29.6395 39.6348 29.5878 39.6128 29.5303C39.5909 29.4727 39.5821 29.411 39.5872 29.3496C39.5872 27.6251 39.5196 25.394 39.5872 25.3356H37.947V29.7588C37.947 30.6161 38.8539 30.9084 39.8766 30.9084H43.6392C44.4689 30.9084 45.0188 30.4602 44.9995 29.7588V25.3648H43.3304ZM5.8972 27.479C4.57546 27.4107 3.00288 27.4205 2.03811 27.3718C1.49783 27.3718 1.49783 26.3001 2.08634 26.3001H5.0675C5.48235 26.3001 5.48235 26.758 5.48235 26.7678H6.97775C6.97775 26.7093 7.13212 25.1602 5.68495 25.1602H1.33382C0.610237 25.1602 0.0892585 25.5986 0.0892585 26.1345V27.3036C0.0892585 28.0635 0.764601 28.424 1.69078 28.4532C3.05111 28.4532 3.88082 28.5312 4.96137 28.5799C5.04563 28.569 5.13123 28.5764 5.21245 28.6015C5.29368 28.6267 5.36867 28.669 5.43244 28.7257C5.4962 28.7824 5.54727 28.8521 5.58226 28.9303C5.61725 29.0085 5.63534 29.0933 5.63534 29.179C5.63534 29.2648 5.61725 29.3497 5.58226 29.4278C5.54727 29.506 5.4962 29.5758 5.43244 29.6325C5.36867 29.6891 5.29368 29.7315 5.21245 29.7566C5.13123 29.7817 5.04563 29.7892 4.96137 29.7783H2.15388C2.0699 29.7798 1.98652 29.7637 1.90899 29.731C1.83147 29.6984 1.7615 29.6498 1.70348 29.5885C1.64546 29.5272 1.60067 29.4544 1.57192 29.3747C1.54316 29.295 1.53108 29.2102 1.53642 29.1255H0.0217243C-0.00724144 29.2996 -0.00724144 29.4774 0.0217243 29.6516C0.0703889 29.9968 0.24048 30.3128 0.500894 30.5418C0.761308 30.7708 1.09464 30.8975 1.43994 30.8987H5.81037C5.97269 30.9176 6.13716 30.9023 6.29328 30.8536C6.44941 30.8048 6.59378 30.7238 6.71721 30.6157C6.84064 30.5076 6.94041 30.3747 7.01018 30.2255C7.07995 30.0762 7.11819 29.9139 7.12246 29.749V28.5799C7.11778 28.4249 7.08186 28.2726 7.01687 28.1321C6.95189 27.9917 6.85923 27.8661 6.74454 27.763C6.62985 27.66 6.49555 27.5816 6.34987 27.5328C6.20417 27.4839 6.05015 27.4657 5.8972 27.479ZM12.9787 25.3648V29.3203C12.9787 29.5347 12.9015 29.788 12.5927 29.788H9.66947C9.60938 29.7952 9.54853 29.7891 9.49106 29.7699C9.43369 29.7509 9.381 29.7193 9.3369 29.6776C9.29278 29.6358 9.25824 29.5848 9.2357 29.5282C9.21315 29.4715 9.20315 29.4105 9.20638 29.3496V25.3356H7.5952V29.7588C7.5952 30.6064 8.47314 30.9084 9.52472 30.9084H13.297C14.1171 30.9084 14.696 30.4602 14.6863 29.7588V25.3648H12.9787Z" fill="url(#paint1_linear_2_869)"/>
<path d="M17.3874 15.4856C15.8728 16.3917 14.9272 17.6193 14.9272 18.8664C14.9272 20.1134 15.892 21.3215 17.3778 22.2178C19.0586 23.1622 20.9537 23.649 22.8771 23.6305C24.809 23.6544 26.7139 23.1709 28.4052 22.2276C29.9295 21.3312 30.8943 20.1134 30.8943 18.8664C30.8943 17.6193 29.9295 16.3917 28.4245 15.4856C26.7329 14.5322 24.8239 14.0418 22.8867 14.0632C20.9618 14.0427 19.0656 14.5332 17.3874 15.4856ZM30.6532 18.8664C30.6532 20.0258 29.7462 21.1657 28.2991 22.0133C26.6452 22.9432 24.7794 23.4201 22.8867 23.3967C21.0033 23.419 19.147 22.942 17.5032 22.0133C16.0657 21.1657 15.1685 20.0647 15.1685 18.8664C15.1685 17.668 16.0754 16.5475 17.5129 15.6902C19.1522 14.758 21.0054 14.2776 22.8867 14.297C24.7777 14.272 26.6418 14.7526 28.2894 15.6902C29.7366 16.5475 30.6532 17.707 30.6532 18.8664Z" fill="url(#paint2_linear_2_869)"/>
<path fill-rule="evenodd" clip-rule="evenodd" d="M19.9637 15.3203L19.2209 17.2104L15.9502 17.9216L19.2209 18.623L20.0023 20.6398L20.7838 18.6718L24.3342 17.9216L20.7451 17.1324L19.9637 15.3203ZM24.0158 18.9835L22.6072 19.2953L24.0158 19.6168L24.363 20.4742L24.6814 19.6558L26.2058 19.2953L24.6814 18.9835L24.3342 18.2042L24.0158 18.9835ZM28.0678 18.2042L27.7205 18.9835L26.3602 19.2953L27.7205 19.6168L28.0678 20.4742L28.3861 19.6558L29.9105 19.2953L28.3861 18.9835L28.0678 18.2042ZM27.1031 18.1652L27.4118 17.2883L28.9264 16.9765L27.4118 16.655L27.0548 15.8658L26.7461 16.655L25.3471 16.9765L26.7461 17.2883L27.1031 18.1652ZM25.6559 20.0845L25.3085 20.8736L23.9385 21.1854L25.3085 21.5069L25.6559 22.3253L26.0032 21.5069L27.5276 21.1854L25.9646 20.8347L25.6559 20.0845ZM21.6038 20.3183L21.2854 21.1562L19.8865 21.468L21.2854 21.7408L21.6424 22.6079L21.9511 21.7797L23.4755 21.468L21.9511 21.1075L21.6038 20.3183Z" fill="url(#paint3_linear_2_869)"/>
</g>
<defs>
<linearGradient id="paint0_linear_2_869" x1="15.4688" y1="14.0626" x2="17.4433" y2="28.6886" gradientUnits="userSpaceOnUse">
<stop stop-color="#808080"/>
<stop offset="1" stop-color="#333333"/>
</linearGradient>
<linearGradient id="paint1_linear_2_869" x1="15.469" y1="14.0626" x2="17.4435" y2="28.6885" gradientUnits="userSpaceOnUse">
<stop stop-color="#808080"/>
<stop offset="1" stop-color="#333333"/>
</linearGradient>
<linearGradient id="paint2_linear_2_869" x1="15.4689" y1="14.0625" x2="17.4434" y2="28.6885" gradientUnits="userSpaceOnUse">
<stop stop-color="#808080"/>
<stop offset="1" stop-color="#333333"/>
</linearGradient>
<linearGradient id="paint3_linear_2_869" x1="15.4692" y1="14.0625" x2="17.4436" y2="28.6884" gradientUnits="userSpaceOnUse">
<stop stop-color="#808080"/>
<stop offset="1" stop-color="#333333"/>
</linearGradient>
<clipPath id="clip0_2_869">
<rect width="45" height="45" fill="white"/>
</clipPath>
</defs>
</svg>
