<svg width="45" height="21" viewBox="0 0 45 21" fill="none" xmlns="http://www.w3.org/2000/svg">
<path fill-rule="evenodd" clip-rule="evenodd" d="M11.5509 6.09244L12.6138 3.99038C12.654 3.91031 12.721 3.86353 12.8807 3.86353H18.2534C18.4362 3.86353 18.5544 3.78956 18.5544 3.55791V2.35416C18.5544 2.13609 18.6471 2.05228 18.8495 2.05228H24.383C24.5817 2.05228 24.6792 2.14341 24.6792 2.35781V3.56409C24.6792 3.76866 24.7755 3.86231 24.9839 3.86231H31.339C31.5401 3.86231 31.6096 3.99656 31.6096 4.1025C31.6099 4.14169 31.5993 4.18003 31.5791 4.21341L30.5187 6.31912C30.4517 6.43622 30.3359 6.43866 30.253 6.43866H24.9839C24.7645 6.43866 24.6829 6.53972 24.6829 6.74428L24.6817 7.95422C24.6817 8.15138 24.5963 8.24625 24.3842 8.24625H18.8495C18.6641 8.24625 18.552 8.18212 18.552 7.95056V6.74053C18.552 6.52125 18.4508 6.43866 18.2534 6.43866H11.791C11.6314 6.43866 11.5253 6.34013 11.5253 6.20091C11.5256 6.16256 11.534 6.12478 11.5497 6.09L11.5509 6.09244ZM9.79453 7.84453H16.8761C17.0943 7.84453 17.1686 7.94681 17.1686 8.14031V9.19125C17.1686 9.5055 17.3514 9.64959 17.6232 9.64959H25.6129C25.8847 9.64959 26.0675 9.51169 26.0675 9.19125V8.14519C26.0675 7.932 26.1552 7.84331 26.3624 7.84331H30.8039C31.1074 7.84331 31.3281 7.7595 31.4841 7.47L33.6841 3.12056L33.6951 3.10013C33.738 3.02034 33.7682 2.96447 33.7682 2.86547C33.7682 2.56734 33.5159 2.46384 33.3403 2.46384H26.3624C26.1796 2.46384 26.0675 2.41453 26.0675 2.16562V1.11834C26.0675 0.817687 25.9042 0.65625 25.6129 0.65625H17.622C17.3246 0.65625 17.1686 0.822562 17.1686 1.11834V2.16319C17.1686 2.38744 17.065 2.46131 16.8761 2.46131L12.3018 2.46384C11.9507 2.46384 11.7459 2.63381 11.6411 2.85562L9.41306 7.25681C9.38316 7.31559 9.36732 7.38056 9.36676 7.44656C9.36676 7.61906 9.48009 7.84331 9.79331 7.84331L9.79453 7.84453ZM26.8172 1.47581H26.9488C27 1.47581 27.067 1.48322 27.067 1.54734C27.067 1.59412 27.0451 1.63603 26.9476 1.63603H26.8172V1.47581ZM26.8184 1.69397H26.9123L27.0536 1.91203H27.1292L26.9854 1.68778C27.0719 1.68534 27.1402 1.64709 27.1402 1.54734C27.1402 1.44384 27.05 1.41422 26.9659 1.41422H26.7501V1.91203H26.8184V1.69397ZM27.1709 1.40166C27.1024 1.33228 27.0094 1.29337 26.9123 1.29337C26.7088 1.29337 26.5443 1.46091 26.5443 1.66303C26.5443 1.76138 26.5829 1.85569 26.6517 1.92525C26.7205 1.99481 26.8139 2.03391 26.9111 2.03391C27.0084 2.03391 27.1018 1.99481 27.1706 1.92525C27.2393 1.85569 27.2781 1.76138 27.2781 1.66303C27.2781 1.56497 27.2395 1.47094 27.1709 1.40166ZM27.2197 1.97672C27.1382 2.05903 27.0277 2.10534 26.9123 2.10534C26.8012 2.09934 26.6963 2.0505 26.6197 1.96875C26.5431 1.88709 26.5003 1.77872 26.5003 1.66612C26.5003 1.55344 26.5431 1.44506 26.6197 1.36341C26.6963 1.28166 26.8012 1.23281 26.9123 1.22681C27.0277 1.22681 27.1382 1.27312 27.2197 1.35544C27.3011 1.43784 27.3469 1.54959 27.3469 1.66612C27.3469 1.78256 27.3011 1.89431 27.2197 1.97672ZM7.60212 17.4984H5.72265V20.3386H4.41238V13.993H5.72265V16.5337H7.60212V13.993H8.91238V20.3398H7.60212V17.4984ZM41.9616 20.3398H40.6489V14.9627H38.8717V13.9942H43.741V14.9627H41.9616V20.3398ZM30.6397 13.993H31.9499V19.3701H34.3876V20.3386H30.6397V13.993ZM17.2506 20.3435H16.0403C15.6867 20.3435 15.432 20.1673 15.3577 19.7816L13.7732 13.993H15.2992L16.6801 19.2826C16.702 19.3417 16.7508 19.3713 16.819 19.3713C16.8874 19.3713 16.9361 19.3516 16.9556 19.285L18.3146 13.9955H19.4713L17.9233 19.7952C17.8331 20.1575 17.6064 20.3435 17.2506 20.3435ZM0.978741 20.3438L3.91008 20.3401V19.3716H1.78928C1.42728 19.3716 1.31027 19.2804 1.31027 18.8849V15.446C1.31027 15.0628 1.39924 14.963 1.78928 14.963H3.91008V13.997H0.982397C0.312026 13.997 0 14.3445 0 14.9814V19.3494C0 20.0567 0.355905 20.3438 0.978741 20.3438ZM13.6414 14.9616H11.4889C11.0891 14.9616 11.0111 15.0774 11.0111 15.4459V16.5326H13.6121V17.4986H11.0099V18.8872C11.0099 19.2877 11.1245 19.3703 11.4877 19.3703H13.9119V20.3423H10.6772C10.0214 20.3423 9.69844 20.017 9.69844 19.3493V14.9813C9.69844 14.3333 10.0019 13.9956 10.6796 13.9956H13.6414V14.9616ZM24.2747 14.9813V16.6644L24.2759 16.6657C24.2759 17.3815 23.9017 17.6588 23.2959 17.6588H23.0034L24.7342 20.3387H23.1131L21.4554 17.4826L21.4384 17.4531C21.3877 17.3657 21.3336 17.2727 21.3336 17.1499C21.3336 16.8763 21.4896 16.7026 21.7687 16.7026H22.4854C22.862 16.7026 22.9643 16.5893 22.9643 16.2159L22.962 15.4459C22.962 15.0774 22.8876 14.9616 22.4829 14.9616H20.9533V20.3423H19.6431V13.9956H23.2935C23.9626 13.9956 24.2747 14.3197 24.2747 14.9813ZM26.3078 15.4459C26.3078 15.1132 26.3517 14.9616 26.7856 14.9616H28.0568C28.3982 14.9616 28.5359 15.0207 28.5359 15.4459L28.5371 18.8872C28.5371 19.2913 28.4128 19.3715 28.0568 19.3715H26.7856C26.4114 19.3715 26.3078 19.2667 26.3078 18.8872V15.4459ZM27.4292 20.3436H28.8662C29.4939 20.3436 29.8474 20.0393 29.8474 19.3493L29.8449 14.9813C29.8449 14.3345 29.5427 13.9956 28.8662 13.9956H25.9775C25.2877 13.9956 24.9976 14.348 24.9976 14.9813V19.3493C24.9976 20.0676 25.3791 20.3436 25.9775 20.3436H27.4292ZM35.6235 20.3435H35.6225C34.9662 20.3431 34.6435 20.0166 34.6435 19.3504L34.646 14.9824C34.646 14.3355 34.9471 13.9979 35.6247 13.9979L38.5853 13.9942V14.9627H36.4353C36.0354 14.9627 35.9562 15.0798 35.9562 15.4469V16.5337H38.5573V17.4984H35.9526V18.8833C35.9526 19.2875 36.0683 19.3701 36.4341 19.3701H38.8571V20.3397L35.6235 20.3435ZM44.4674 14.2667H44.5978C44.6502 14.2667 44.7197 14.2729 44.7197 14.3369C44.7197 14.3924 44.6953 14.4256 44.5978 14.4256H44.4661V14.2667H44.4674ZM44.4674 14.4848H44.5649L44.7038 14.7029H44.7782L44.6344 14.4787C44.7209 14.4761 44.7867 14.4416 44.7867 14.3369C44.7867 14.2346 44.7014 14.2075 44.6112 14.2075H44.3966V14.7029H44.4674V14.4848ZM44.8224 14.1892C44.7532 14.1192 44.6592 14.0799 44.5613 14.0799C44.3577 14.0799 44.192 14.2499 44.192 14.4508C44.1915 14.5 44.2007 14.549 44.2191 14.5946C44.2373 14.6403 44.2645 14.6818 44.2988 14.7168C44.3333 14.7517 44.3741 14.7794 44.4191 14.7983C44.4642 14.8171 44.5125 14.8267 44.5613 14.8266C44.6592 14.8266 44.7532 14.7873 44.8224 14.7172C44.8916 14.6472 44.9305 14.5523 44.9305 14.4533C44.9305 14.3543 44.8916 14.2593 44.8224 14.1892ZM44.7292 14.863C44.6758 14.8847 44.6187 14.8954 44.5613 14.8943C44.5042 14.8943 44.4475 14.883 44.3948 14.8609C44.342 14.8387 44.294 14.8064 44.2536 14.7655C44.2132 14.7247 44.1811 14.6762 44.1592 14.6228C44.1374 14.5694 44.1262 14.5122 44.1262 14.4545C44.1262 14.3967 44.1374 14.3395 44.1592 14.2862C44.1811 14.2328 44.2132 14.1843 44.2536 14.1434C44.294 14.1026 44.342 14.0702 44.3948 14.0481C44.4475 14.026 44.5042 14.0146 44.5613 14.0146C44.6188 14.0139 44.676 14.0249 44.7293 14.0468C44.7828 14.0687 44.8313 14.1011 44.8721 14.1422C44.9129 14.1833 44.9453 14.2321 44.9673 14.2859C44.9892 14.3398 45.0004 14.3975 45 14.4557C45.0004 14.5138 44.9892 14.5715 44.9672 14.6251C44.9453 14.6788 44.9128 14.7276 44.8719 14.7683C44.8311 14.8092 44.7826 14.8415 44.7292 14.863Z" fill="url(#paint0_linear_2_816)"/>
<defs>
<linearGradient id="paint0_linear_2_816" x1="15.469" y1="0.65625" x2="18.1392" y2="17.6102" gradientUnits="userSpaceOnUse">
<stop stop-color="#333333"/>
<stop offset="1" stop-color="#808080"/>
</linearGradient>
</defs>
</svg>
