<svg width="45" height="45" viewBox="0 0 45 45" fill="none" xmlns="http://www.w3.org/2000/svg">
<path fill-rule="evenodd" clip-rule="evenodd" d="M37.1401 22.4981V22.5019C37.1402 24.4235 36.7607 26.3262 36.0235 28.1009C35.2863 29.8755 34.2059 31.4871 32.8442 32.843C31.4882 34.206 29.876 35.2874 28.1003 36.0248C26.3247 36.7623 24.4208 37.1413 22.4981 37.1401C20.5759 37.1412 18.6724 36.7621 16.8972 36.0247C15.122 35.2872 13.5102 34.2059 12.1546 32.843C10.7923 31.4873 9.71128 29.876 8.97366 28.1013C8.23601 26.3266 7.85628 24.4237 7.85626 22.5019V22.4981C7.85626 18.468 9.50166 14.8075 12.1546 12.1534C13.511 10.7918 15.1229 9.71147 16.8981 8.97469C18.6731 8.23789 20.5763 7.85905 22.4981 7.85993C26.532 7.85993 30.1938 9.50409 32.8442 12.1558C34.2058 13.5123 35.2863 15.1243 36.0234 16.8993C36.7606 18.6743 37.1401 20.5774 37.1401 22.4993V22.4981ZM22.4981 7.5C20.5287 7.49915 18.5786 7.88753 16.7598 8.64282C14.9409 9.39816 13.2893 10.5054 11.8999 11.9012C10.5045 13.2905 9.39741 14.9419 8.64231 16.7605C7.88722 18.5791 7.49901 20.529 7.5 22.4981V22.5019C7.49963 24.4706 7.88787 26.4202 8.6425 28.2386C9.39713 30.0571 10.5033 31.7088 11.8974 33.0989C13.2874 34.4942 14.9392 35.6013 16.758 36.3567C18.5768 37.1122 20.5268 37.501 22.4963 37.501C24.4658 37.501 26.4158 37.1122 28.2347 36.3567C30.0535 35.6013 31.7052 34.4942 33.0952 33.0989C34.4914 31.7097 35.5994 30.0584 36.3556 28.2398C37.1118 26.4212 37.5013 24.4712 37.5018 22.5016C37.5023 20.5321 37.1136 18.5818 36.3582 16.763C35.6029 14.944 34.4956 13.2922 33.1001 11.9024C31.71 10.5064 30.0578 9.39881 28.2383 8.64335C26.4189 7.88785 24.4682 7.49929 22.4981 7.5Z" fill="url(#paint0_linear_2_843)"/>
<path fill-rule="evenodd" clip-rule="evenodd" d="M27.3487 10.6494L27.4663 10.7008C27.7466 10.8184 27.9192 10.964 28.0012 11.1342C28.0808 11.3031 28.0687 11.5113 27.9584 11.7598C27.8543 12.0071 27.7136 12.1638 27.5409 12.2225C27.3598 12.2838 27.137 12.2544 26.8579 12.1369L26.7391 12.0829L27.3487 10.6506V10.6494ZM26.4526 12.6498C26.7905 12.7918 27.0464 12.8799 27.2239 12.9142C27.3977 12.9437 27.5692 12.9411 27.7332 12.9069C27.9418 12.8646 28.1354 12.7674 28.2938 12.6253C28.453 12.4834 28.584 12.2947 28.6795 12.0659C28.7774 11.8357 28.819 11.6153 28.8141 11.3999C28.8042 11.1874 28.7392 10.981 28.6256 10.8012C28.5323 10.6522 28.4104 10.5232 28.2669 10.4217C28.1164 10.3128 27.8385 10.1732 27.4332 10.0018L26.8921 9.77285L25.7903 12.3719L26.3327 12.6045L26.4526 12.6498ZM21.6928 9.94057C21.7572 9.86332 21.8382 9.80173 21.9298 9.7601C22.0213 9.71857 22.1212 9.69823 22.2217 9.70057C22.4286 9.70057 22.6072 9.78016 22.7456 9.94057C22.8892 10.1024 22.9651 10.3132 22.9574 10.5294C22.9574 10.7694 22.8901 10.9701 22.7493 11.1293C22.6835 11.204 22.6022 11.2635 22.5111 11.3037C22.4199 11.3438 22.3212 11.3637 22.2217 11.3619C22.1214 11.3648 22.0218 11.3455 21.9299 11.3053C21.838 11.2651 21.7562 11.205 21.6903 11.1293C21.5482 10.9626 21.4747 10.7482 21.4847 10.5294C21.4847 10.2919 21.5556 10.0936 21.6928 9.94179V9.94057ZM21.1578 11.5786C21.2966 11.7188 21.4626 11.8293 21.6455 11.9033C21.8284 11.9774 22.0244 12.0136 22.2217 12.0095C22.4199 12.0095 22.6097 11.9728 22.797 11.9006C23.1618 11.7512 23.4541 11.4658 23.6123 11.1049C23.6895 10.9236 23.7275 10.7327 23.7275 10.5294C23.7275 10.3274 23.6895 10.1389 23.6123 9.96138C23.5358 9.78129 23.4246 9.61816 23.2849 9.48119C23.1451 9.3442 22.9798 9.23613 22.7982 9.16317C22.615 9.08893 22.4194 9.05029 22.2217 9.04932C22.0208 9.04932 21.825 9.08971 21.6413 9.16317C21.4601 9.23785 21.2936 9.3468 21.1578 9.48269C21.0159 9.61844 20.9027 9.78119 20.8248 9.96138C20.675 10.3261 20.675 10.7352 20.8248 11.0999C20.9019 11.2787 21.0084 11.4403 21.1578 11.5786ZM32.1441 14.1214C32.1062 14.1727 32.0804 14.2131 32.0646 14.2376L31.5356 15.0567L31.0447 14.469L31.9372 14.0895C31.9935 14.065 32.0474 14.0381 32.1086 14.01C32.1662 13.983 32.2261 13.9488 32.2897 13.9193C32.2392 13.9859 32.1902 14.0537 32.1428 14.1226L32.1441 14.1214ZM29.5426 14.3209L30.0323 14.911L30.5159 14.6979L31.2198 15.5341L30.9235 15.9699L31.4133 16.5527L32.9472 13.9928L32.3277 13.2533L29.5426 14.3209ZM12.3763 13.4014L12.096 12.6914L11.9013 12.9167L11.954 13.3868L11.4838 13.404L11.288 13.6255L12.0274 13.8043L12.3763 13.4014ZM12.4583 15.0579C12.6162 15.1938 12.7766 15.2574 12.9419 15.2501C13.1072 15.2403 13.3092 15.1595 13.5479 14.9955C13.7193 14.8828 13.8405 14.8204 13.9177 14.8094C13.9947 14.7971 14.0646 14.824 14.138 14.8878C14.1685 14.9137 14.1929 14.9463 14.2092 14.9829C14.2255 15.0196 14.2334 15.0594 14.2323 15.0995C14.227 15.1909 14.1907 15.2777 14.1294 15.3455C14.0497 15.4327 13.9483 15.4973 13.8356 15.5329C13.6932 15.5781 13.5442 15.5992 13.3949 15.5953L13.5981 16.2332C13.8062 16.2136 13.9862 16.1683 14.1442 16.0887C14.3065 16.0039 14.4515 15.8893 14.5714 15.7508C14.7868 15.5023 14.8872 15.2452 14.8799 14.9795C14.875 14.8448 14.8409 14.7128 14.7801 14.5925C14.7192 14.4723 14.633 14.3666 14.5273 14.283C14.4465 14.2088 14.3532 14.1496 14.2519 14.1079C14.1606 14.0714 14.0622 14.0559 13.9642 14.0626C13.8209 14.0662 13.6164 14.1618 13.3483 14.3442L13.3165 14.3637C13.2325 14.4289 13.137 14.4775 13.0349 14.5069C13.0023 14.5118 12.9689 14.5095 12.9372 14.5002C12.9055 14.4908 12.8762 14.4748 12.8513 14.4531C12.8264 14.431 12.8072 14.4032 12.7953 14.3721C12.7834 14.341 12.7791 14.3074 12.7827 14.2744C12.7916 14.195 12.8259 14.1207 12.8807 14.0626C12.9427 13.991 13.0184 13.9327 13.1035 13.8912C13.1988 13.8453 13.301 13.8151 13.4059 13.8019L13.1452 13.2558C13.0024 13.2917 12.8661 13.3495 12.7411 13.4272C12.6187 13.5055 12.5085 13.6047 12.4069 13.721C12.3181 13.8138 12.2485 13.9232 12.2023 14.043C12.1561 14.1627 12.1341 14.2905 12.1376 14.4188C12.1429 14.5419 12.1742 14.6626 12.2295 14.7727C12.2848 14.8829 12.3628 14.98 12.4583 15.0579ZM17.4728 13.2509L16.9182 12.1124L18.3016 12.8469L19.161 12.4234L17.5108 11.6226L17.8425 9.92829L17.0382 10.3189L16.797 11.8639L16.2364 10.7131L15.5557 11.0473L16.7872 13.5814L17.4728 13.2509ZM32.8223 27.1582C32.7268 27.0567 32.635 26.9575 32.5358 26.8571C31.9959 27.6773 31.9054 28.6323 32.0266 29.6472C31.8209 29.8956 31.6079 30.1442 31.3986 30.3927C31.3525 30.109 31.3036 29.8258 31.2517 29.5431C31.3117 29.4769 31.3691 29.406 31.4303 29.3399C31.3533 28.7523 30.866 28.7523 30.7865 29.1635C30.7362 29.2799 30.7227 29.4121 30.9456 29.6472C30.9823 29.9899 31.0252 30.3266 31.0631 30.6669C30.4179 31.208 29.7838 31.8508 29.135 32.3883C29.1251 32.3442 29.1007 32.1923 29.0921 32.1397C29.3945 31.6329 29.6834 31.1175 30.26 30.8004C30.44 30.3964 30.5538 30.0389 30.4375 29.6913C29.6491 30.2397 29.0051 30.8689 28.5644 31.6182C28.502 31.9609 28.4407 32.3099 28.3771 32.6526C28.136 32.8094 27.8911 32.9636 27.6474 33.1203C27.6512 32.9122 27.7723 32.7004 27.7785 32.4923C28.3587 31.7553 27.5031 31.4602 27.2962 32.125C27.3696 32.5609 27.3696 32.9134 27.2079 33.2673C26.3572 33.6003 25.5956 33.9369 24.7423 34.2748C24.735 34.2001 24.8342 33.9981 24.8305 33.9246C25.3141 33.4546 25.7487 33.2673 26.5077 33.1497C26.8309 32.8828 26.9607 32.6037 26.9019 32.2596C26.2078 32.3821 25.5099 32.5768 24.9308 32.9759C24.3836 33.3125 24.031 33.7642 23.9564 34.3324L22.9598 34.4217C23.1704 34.1891 23.3785 33.9614 23.5879 33.7337C23.7006 33.6798 23.8119 33.6235 23.9221 33.5733C24.0666 32.9355 23.7679 32.9452 23.3981 33.0469C23.3454 33.1062 23.3054 33.1757 23.2806 33.251C23.2557 33.3264 23.2465 33.4061 23.2536 33.4851C23.0211 33.7373 22.7848 33.9919 22.4628 34.1487L21.6744 33.2954C21.6903 33.2157 21.6853 33.1333 21.66 33.056C21.6347 32.9789 21.5899 32.9095 21.53 32.8547C21.1626 32.753 20.8603 32.7409 21.0011 33.3799C21.1235 33.4974 21.2362 33.5672 21.339 33.539C21.5496 33.7692 21.7552 33.9981 21.9658 34.2307L20.9741 34.1401C20.8957 33.5733 20.5383 33.1204 19.9935 32.7812C19.4145 32.3821 18.7228 32.1923 18.0249 32.0687C17.9637 32.4115 18.091 32.6906 18.4192 32.9587C19.1769 33.0738 19.6116 33.2648 20.0988 33.73C20.0927 33.8034 20.1882 34.0103 20.1845 34.0826C19.3312 33.7459 18.5685 33.408 17.7176 33.0738C17.5585 32.7187 17.5585 32.3674 17.6295 31.934C17.4189 31.268 16.5718 31.5631 17.1484 32.3013C17.1532 32.5119 17.2757 32.7199 17.2793 32.9281L16.5486 32.4629C16.4873 32.1165 16.4224 31.7724 16.3587 31.426C15.9217 30.678 15.2778 30.0475 14.4893 29.4978C14.3767 29.8455 14.4869 30.2042 14.6669 30.6094C15.2422 30.9241 15.5324 31.4394 15.836 31.9512C15.8238 31.9989 15.7993 32.1495 15.7907 32.1997C15.1443 31.661 14.5089 31.0183 13.8637 30.4759C13.9005 30.1369 13.9421 29.7941 13.9801 29.4525C14.2041 29.2223 14.1919 29.0889 14.1442 28.9726C14.0633 28.5613 13.576 28.5613 13.5002 29.1489L13.6752 29.3533L13.5283 30.1981C13.3165 29.9532 13.1121 29.7047 12.9003 29.4513C13.0191 28.4389 12.9308 27.4864 12.3886 26.6661C12.2955 26.7678 12.1987 26.8669 12.1033 26.9673C11.9099 26.8939 11.8462 26.6882 11.9197 26.3454C11.6283 26.0858 11.4446 26.1801 11.3834 26.6208C11.5549 26.7799 11.6932 26.9636 11.6319 27.2782C11.4545 27.1828 11.2769 27.0885 11.1055 26.9881C11.0994 27.206 11.097 27.4276 11.0921 27.6443C10.9697 27.5781 10.8644 27.4842 10.7848 27.3701C10.7064 27.2109 10.6293 27.0542 10.5498 26.8999C10.1421 26.8045 9.9854 26.9575 10.0845 27.3701C10.2045 27.43 10.3269 27.4924 10.4482 27.5574C10.59 27.622 10.7045 27.7348 10.7713 27.8757L10.1861 28.0226C10.802 28.8135 11.501 29.4856 12.5048 29.7317C12.6995 29.9152 13.0288 30.2324 13.221 30.4196C13.0852 30.4662 12.7901 30.4123 12.6554 30.4612C12.5575 30.3793 12.4963 30.2654 12.4032 30.1846C11.9932 30.1552 11.6748 30.1969 12.0114 30.7538C12.1657 30.8518 12.3616 30.8689 12.593 30.8126C12.8892 30.7722 13.1782 30.7368 13.472 30.6964C14.1367 31.2644 14.9044 31.8789 15.5752 32.4469C14.9632 32.3404 14.2408 32.0993 13.6752 31.4847C13.5035 31.3414 13.2977 31.2445 13.0777 31.2036C12.8578 31.1627 12.631 31.179 12.4192 31.2509C12.8684 31.8459 13.3851 32.3234 13.9519 32.7261C14.7526 33.1644 15.5189 33.1742 16.3184 32.9832C16.5353 33.0802 16.7537 33.1741 16.9733 33.2648L16.2143 33.528C16.0404 33.43 15.863 33.4484 15.6854 33.5855C15.5422 33.8671 15.5752 34.0495 15.7785 34.1401C15.9412 34.2576 16.1249 34.2001 16.3282 33.9675C16.6929 33.8389 17.0529 33.7129 17.4092 33.5855C17.7115 33.6712 18.0164 33.7618 18.3151 33.8475C18.8942 34.0275 19.4744 34.2099 20.0511 34.3862C19.6532 34.5601 19.1452 34.5563 18.4767 34.3005C17.8621 33.9515 17.3577 34.0275 16.8998 34.3005C17.4471 34.8489 18.2074 35.1783 19.1769 35.2958C19.9715 35.1722 20.5297 34.8796 21.0452 34.5613C21.2655 34.5698 21.4847 34.5723 21.7038 34.5796C21.0648 35.0509 20.5714 35.5957 20.5934 36.4196C21.0622 35.6521 21.6193 35.1219 22.4628 34.9236C23.31 35.3142 23.8658 35.8443 24.3335 36.6094C24.3567 35.7867 23.8633 35.2419 23.2255 34.7694C23.4446 34.762 23.6626 34.7596 23.8817 34.7571C24.4008 35.073 24.9542 35.3619 25.7487 35.488C26.7207 35.368 27.4822 35.0399 28.0258 34.4927C27.5692 34.2221 27.066 34.1426 26.4502 34.4927C25.7793 34.7498 25.2712 34.7498 24.8734 34.5784C25.4524 34.4009 26.0315 34.2221 26.6093 34.0398C26.9117 33.9541 27.2092 33.8646 27.5177 33.7789C27.8776 33.9038 28.2338 34.0299 28.5938 34.1572C28.8007 34.3898 28.9855 34.4486 29.152 34.3286C29.3565 34.2417 29.3834 34.0594 29.2378 33.7777C29.059 33.6381 28.8864 33.6223 28.7137 33.7189C28.4603 33.6296 28.2057 33.5439 27.9535 33.4546L28.611 33.1778C29.4092 33.3651 30.1779 33.3554 30.9738 32.9159C31.5586 32.5083 32.0758 32.0113 32.5065 31.4431C32.2949 31.3716 32.0686 31.3553 31.849 31.3958C31.6294 31.4363 31.4238 31.5322 31.2517 31.6744C30.6848 32.2891 29.9613 32.5314 29.3565 32.6404C30.0225 32.0687 30.7926 31.4566 31.4549 30.8885C31.7487 30.9253 32.0413 30.9619 32.3351 31.0024C32.5677 31.0611 32.7623 31.0415 32.9141 30.9461C33.2508 30.389 32.9313 30.3462 32.5224 30.3731C32.4281 30.4576 32.3669 30.569 32.2751 30.6523C32.1404 30.6057 31.8417 30.6572 31.7083 30.6094C31.8993 30.4246 32.2224 30.1075 32.422 29.9226C33.4247 29.6765 34.1261 29.0081 34.7407 28.2136C34.5498 28.1646 34.349 28.1156 34.1568 28.0703C34.2057 27.9418 34.3147 27.8377 34.4799 27.7472L34.846 27.5599C34.9402 27.1485 34.7824 26.9943 34.3783 27.0909C34.2975 27.2464 34.2217 27.4031 34.1421 27.5599C34.0608 27.6735 33.956 27.7683 33.8347 27.8377C33.8323 27.6173 33.8262 27.397 33.8226 27.179L33.2986 27.468C33.2313 27.1546 33.3744 26.9771 33.5434 26.8118C33.4822 26.3699 33.3022 26.278 33.0048 26.5364C33.0818 26.8791 33.0206 27.0873 32.8211 27.1582" fill="url(#paint1_linear_2_843)"/>
<path fill-rule="evenodd" clip-rule="evenodd" d="M23.5229 23.7546C23.7027 23.5818 23.9432 23.4866 24.1925 23.4893C24.4418 23.492 24.6802 23.5926 24.8561 23.7693C25.0338 23.9454 25.1347 24.1845 25.1371 24.4346C25.1393 24.6848 25.0428 24.9256 24.8683 25.105C24.6891 25.2783 24.4485 25.3737 24.1992 25.3702C23.9498 25.3668 23.712 25.2648 23.5376 25.0866C23.3601 24.9113 23.259 24.6731 23.2562 24.4236C23.2535 24.1742 23.3493 23.9338 23.5229 23.7546ZM20.8357 15.8766C21.6804 16.5022 22.1456 16.9025 22.5742 17.8746L22.202 18.09C21.5004 17.1658 20.6692 16.212 19.7107 15.6697C18.6798 15.1225 16.2852 17.8281 16.5815 17.953C17.5401 18.4035 18.7826 18.985 19.4902 19.4955L19.1842 19.9815C18.2097 19.416 16.6537 18.6398 15.8702 18.6887C15.4662 18.75 14.6018 21.5595 15.0377 21.6685C15.9436 21.7444 17.6331 22.6565 18.4154 23.052C18.9602 23.4853 20.6287 26.2925 19.9554 26.6892C19.7376 26.8201 19.0691 26.6696 18.3872 26.3316C15.2617 25.0634 15.0267 26.4786 15.6119 26.9107C16.0832 27.2045 15.9216 27.7248 15.9448 27.8546C15.9179 28.643 16.7602 29.2588 18.3811 28.1558C21.7037 28.1962 23.5951 28.2708 26.9239 28.3173C27.2287 29.2931 29.3307 28.3051 30.0089 27.4971C29.7249 26.8115 27.2862 25.1001 26.9716 26.8434L26.0962 26.6769C27.9816 22.659 27.4123 15.0784 22.9953 14.3366C22.3219 14.2263 19.5784 14.9487 20.8357 15.879" fill="url(#paint2_linear_2_843)"/>
<path fill-rule="evenodd" clip-rule="evenodd" d="M32.1659 22.5841C32.1665 23.8428 31.9181 25.0892 31.435 26.2514C30.952 27.4137 30.2439 28.4691 29.3515 29.3566C28.4638 30.247 27.4092 30.9535 26.2479 31.4356C25.0867 31.9177 23.8418 32.1657 22.5845 32.1657C21.3271 32.1657 20.0822 31.9177 18.921 31.4356C17.7598 30.9535 16.7052 30.247 15.8174 29.3566C14.9265 28.4681 14.2197 27.4126 13.7373 26.2505C13.255 25.0883 13.0066 23.8424 13.0066 22.5841C13.0066 19.9483 14.0815 17.5525 15.8174 15.8178C16.7049 14.9276 17.7593 14.2213 18.9202 13.7393C20.0811 13.2575 21.3256 13.0094 22.5826 13.0093H22.5887C25.2257 13.0093 27.6179 14.0842 29.3515 15.8178C30.2433 16.7045 30.9511 17.7588 31.4341 18.92C31.9171 20.0812 32.1658 21.3264 32.1659 22.5841ZM22.5887 12.6445H22.5826C21.2784 12.6456 19.9872 12.904 18.7829 13.405C17.5787 13.9061 16.4853 14.6399 15.5653 15.5644C14.6402 16.4844 13.9061 17.5782 13.405 18.7829C12.9039 19.9876 12.6458 21.2794 12.6455 22.5841C12.6455 25.3227 13.7632 27.8092 15.5604 29.6113C16.4825 30.5352 17.5779 31.2682 18.7837 31.7681C19.9895 32.2681 21.2821 32.5252 22.5875 32.525C23.8914 32.525 25.1824 32.2675 26.3866 31.7676C27.5908 31.2676 28.6844 30.5347 29.6049 29.6113C30.53 28.6905 31.2642 27.5961 31.7651 26.3908C32.2661 25.1855 32.5239 23.893 32.5239 22.5878C32.5239 21.2826 32.2661 19.9901 31.7651 18.7849C31.2642 17.5795 30.53 16.4851 29.6049 15.5644C28.6853 14.6392 27.592 13.905 26.3877 13.4039C25.1834 12.9028 23.8919 12.6448 22.5875 12.6445" fill="url(#paint3_linear_2_843)"/>
<defs>
<linearGradient id="paint0_linear_2_843" x1="17.8133" y1="7.5" x2="26.251" y2="30.9388" gradientUnits="userSpaceOnUse">
<stop stop-color="#808080"/>
<stop offset="1" stop-color="#333333"/>
</linearGradient>
<linearGradient id="paint1_linear_2_843" x1="17.8134" y1="7.49988" x2="26.2512" y2="30.9387" gradientUnits="userSpaceOnUse">
<stop stop-color="#808080"/>
<stop offset="1" stop-color="#333333"/>
</linearGradient>
<linearGradient id="paint2_linear_2_843" x1="17.8132" y1="7.50005" x2="26.2509" y2="30.9389" gradientUnits="userSpaceOnUse">
<stop stop-color="#808080"/>
<stop offset="1" stop-color="#333333"/>
</linearGradient>
<linearGradient id="paint3_linear_2_843" x1="17.8134" y1="7.50009" x2="26.2512" y2="30.9389" gradientUnits="userSpaceOnUse">
<stop stop-color="#808080"/>
<stop offset="1" stop-color="#333333"/>
</linearGradient>
</defs>
</svg>
