<svg width="45" height="45" viewBox="0 0 45 45" fill="none" xmlns="http://www.w3.org/2000/svg">
<path fill-rule="evenodd" clip-rule="evenodd" d="M17.9395 12.9626C17.6392 12.9653 17.3297 12.9695 17.0441 13.0445C15.5631 13.4589 14.1194 13.9771 12.7857 14.768C11.9909 15.233 11.2483 15.777 10.6545 16.4997C10.1385 17.1256 9.78994 17.8264 9.77794 18.6609C9.76378 18.6629 9.75019 18.6675 9.73772 18.6745C9.76256 18.7849 9.78394 18.8964 9.80531 19.0078V19.0079C9.84825 19.2324 9.89119 19.4567 9.96291 19.67C10.2403 20.4894 10.7792 21.133 11.3797 21.7262C11.6531 21.9852 11.9386 22.2198 12.2978 22.3534C12.5954 22.4529 12.7831 22.4066 12.9493 22.1325C13.0746 21.9389 13.1763 21.7306 13.2522 21.5121C14.0979 19.13 15.3713 16.9919 16.8444 14.9561C17.0722 14.6412 17.3077 14.334 17.5436 14.0261C17.7295 13.7834 17.9159 13.5402 18.099 13.2926C18.2505 13.0853 18.1942 12.9599 17.9395 12.9626ZM23.084 12.3109C22.3387 12.334 21.6886 12.5713 21.1672 13.1289C20.3442 14.0098 20.0118 15.0953 19.9207 16.1452C19.9086 16.846 20.0814 17.3137 20.6324 17.5687C20.9738 17.7131 21.3439 17.7739 21.7127 17.7459C22.5706 17.7037 23.3962 17.4923 24.2072 17.2237C26.3354 16.4877 28.3729 15.5039 30.2791 14.2921C30.3967 14.2207 30.5033 14.1321 30.5955 14.0289C30.7348 13.8748 30.7228 13.7235 30.5553 13.6008C30.4199 13.5135 30.2724 13.4344 30.1183 13.3826C29.6318 13.2258 29.1384 13.0676 28.6465 12.9449C26.8222 12.4826 24.9685 12.2426 23.084 12.3109ZM32.6262 15.7391L32.5417 15.9106V15.9093C32.353 16.2879 32.1672 16.6675 31.9814 17.0468L31.9804 17.0489L31.9802 17.0494L31.98 17.0498C31.5696 17.888 31.1598 18.7247 30.7228 19.5473C30.0728 20.7744 29.3677 21.9689 28.5407 23.0815L28.4398 23.2163C28.2405 23.4825 28.0429 23.7464 27.8571 24.0183C27.8341 24.0589 27.8198 24.1039 27.8153 24.1504C27.8107 24.197 27.8157 24.2439 27.8302 24.2883C27.8369 24.3224 27.9763 24.3428 28.0474 24.3333C29.739 24.0461 31.3706 23.4694 32.8728 22.6275C33.7548 22.1312 34.563 21.538 35.1809 20.713C35.642 20.1063 35.9248 19.4341 35.9128 18.6473C35.9128 18.6107 35.9149 18.573 35.9169 18.5352V18.5351C35.9211 18.4588 35.9253 18.3816 35.9128 18.3105C35.6702 16.7738 34.8337 15.6924 33.4732 15.0107C33.1891 14.8621 33.0363 14.933 32.8835 15.2234C32.7961 15.3941 32.7109 15.5672 32.6262 15.7391ZM24.2474 24.4806C25.1361 23.6801 25.7044 22.6861 25.8974 21.4903C25.9604 21.1112 25.9363 20.724 25.7285 20.3803C25.4377 19.8758 24.9551 19.719 24.4283 19.6823C23.7193 19.6317 23.0344 19.7586 22.3534 19.9181C19.737 20.529 17.3431 21.6239 15.2333 23.3338C15.0121 23.5138 15.0188 23.6774 15.2869 23.7893C15.6118 23.9128 15.9419 24.022 16.2761 24.1165C17.2519 24.3974 18.2492 24.5719 19.2545 24.711C20.2626 24.8597 21.2787 24.9458 22.2971 24.9687C22.3486 24.966 22.41 24.9634 22.4784 24.9605C22.6507 24.9532 22.8673 24.944 23.0813 24.9264C23.5075 24.891 23.9163 24.7764 24.2474 24.4806ZM8.76324 19.9413C8.37319 18.6637 8.60642 17.4842 9.3128 16.3892C9.96291 15.3802 10.8543 14.633 11.8475 14.003C13.3621 13.0553 15.0148 12.4445 16.7372 12.0054C17.9798 11.6836 19.2504 11.4804 20.5332 11.3604C20.8087 11.3325 21.0841 11.3167 21.3608 11.3007C21.4894 11.2933 21.6183 11.2859 21.7476 11.2773C21.7702 11.2749 21.7928 11.2688 21.8154 11.2626C21.833 11.2578 21.8506 11.253 21.8682 11.25H24.25C24.3202 11.2562 24.39 11.2629 24.4598 11.2696C24.6345 11.2863 24.8092 11.303 24.9873 11.3127C26.0746 11.3833 27.1561 11.5282 28.2243 11.7463C29.7563 12.0559 31.2456 12.5018 32.661 13.1876C33.8472 13.7575 34.9463 14.4584 35.8471 15.4443C36.4409 16.1002 36.8939 16.8352 37.0816 17.7215C37.3121 18.7959 37.099 19.794 36.5508 20.7213C35.9946 21.6771 35.2024 22.3998 34.3123 23.0188C32.8701 24.0238 31.2656 24.6687 29.5915 25.1446C28.3035 25.5047 26.9887 25.7564 25.6601 25.8973C24.376 26.0378 23.0826 26.0855 21.7905 26.0419C19.1365 25.9491 16.5375 25.5264 14.0457 24.5337C12.7657 24.0238 11.5566 23.3774 10.5111 22.4502C9.72694 21.763 9.08092 20.964 8.76324 19.9413ZM30.8931 32.4028C31.2804 32.3974 31.3876 32.2937 31.4064 31.8928H31.405C31.4077 31.8751 31.4069 31.8603 31.406 31.8438C31.4055 31.835 31.405 31.8256 31.405 31.8151C31.405 31.6259 31.4055 31.4367 31.406 31.2477V31.2473V31.2471V31.2468V31.2465V31.2461V31.2458C31.4068 30.8686 31.4077 30.4918 31.405 30.1162C31.4047 30.0363 31.3958 29.9567 31.3782 29.8789C31.3367 29.6416 31.2415 29.523 31.0029 29.5162C30.5925 29.5092 30.1813 29.5103 29.7668 29.5113C29.6155 29.5117 29.4637 29.512 29.3114 29.512V32.4028H30.8931ZM31.8488 28.184C31.9537 28.1836 32.0585 28.1909 32.1623 28.2058H32.161C32.7334 28.3176 32.9854 28.6367 33.0082 29.328C33.0196 29.6112 33.0174 29.8952 33.0153 30.1803V30.1805V30.1806V30.1807V30.1808V30.1809V30.181C33.0144 30.2951 33.0135 30.4094 33.0135 30.5239C33.0135 30.7482 33.0138 30.9724 33.0142 31.1966V31.1973C33.0147 31.6459 33.0153 32.0948 33.0135 32.5474C33.0135 32.6851 33.0054 32.8241 32.9747 32.9605C32.9529 33.1271 32.8845 33.284 32.7775 33.4121C32.6706 33.5403 32.5297 33.6344 32.3715 33.6832L32.3406 33.6946L32.3004 33.7099L32.3003 33.71C32.2646 33.7237 32.2293 33.7372 32.1945 33.7486H27.6828C27.6838 33.7251 27.6852 33.7005 27.6867 33.6757L27.6868 33.6756C27.6894 33.6317 27.6922 33.5868 27.6922 33.5441V28.1963C27.7251 28.1949 27.7552 28.1923 27.7838 28.1897H27.7838C27.8169 28.1867 27.8476 28.184 27.8771 28.184H31.8488ZM35.3094 31.1242H37.4032V29.5207C37.3483 29.5207 37.2937 29.52 37.2393 29.5194H37.2391H37.239H37.2389H37.2388C37.1312 29.5182 37.0247 29.517 36.9206 29.5207C36.8018 29.5226 36.6825 29.5235 36.5632 29.5243C36.265 29.5264 35.9662 29.5284 35.6713 29.5479C35.4636 29.5588 35.3188 29.7034 35.3161 29.9134C35.3035 30.2046 35.3057 30.4964 35.3078 30.7891V30.7902C35.3086 30.9014 35.3094 31.0128 35.3094 31.1242ZM38.9942 28.1789V28.3698H38.9955L38.9915 33.5595C38.9915 33.5907 38.9928 33.6222 38.9941 33.6539C38.9955 33.686 38.9968 33.7182 38.9968 33.7504H37.4072V32.5327H35.3094V33.7504H33.7533C33.7533 33.4078 33.7529 33.065 33.7526 32.722V32.7215V32.7208V32.7202V32.7197V32.7191V32.7186V32.7168V32.7161V32.7156V32.715V32.7143V32.7138C33.7517 31.596 33.7508 30.4762 33.7599 29.3557C33.7653 28.6889 34.2318 28.2348 34.8912 28.1966C34.9102 28.1951 34.929 28.193 34.9478 28.1907C34.9808 28.1869 35.0138 28.183 35.0481 28.183C35.5871 28.1801 36.1257 28.178 36.6638 28.1757H36.6641H36.6645H36.6649H36.6652H36.6655H36.6659C37.3875 28.1729 38.1082 28.17 38.828 28.1653C38.857 28.1653 38.8853 28.1682 38.9188 28.1718C38.9409 28.1741 38.9655 28.1768 38.9942 28.1789ZM20.7546 28.1663C20.6314 28.1663 20.5079 28.1669 20.3843 28.1676C20.0745 28.1693 19.7634 28.1709 19.453 28.1622C19.3043 28.1595 19.2694 28.2113 19.2721 28.3558C19.2747 29.5653 19.2747 30.7829 19.2721 31.9938C19.2721 32.3088 19.1782 32.3947 18.8753 32.3974H17.1891V28.1812H15.5712V28.4049C15.5712 28.7623 15.5708 29.1194 15.5704 29.4763C15.5694 30.1898 15.5686 30.9026 15.5712 31.6161L15.5721 32.1488V32.1491C15.5728 32.6846 15.5736 33.2173 15.5766 33.75H20.1205C20.1296 33.748 20.1374 33.7422 20.1452 33.7365C20.1535 33.7303 20.1618 33.7241 20.1714 33.7227C20.6165 33.6437 20.8376 33.356 20.8993 32.9237C20.9207 32.7928 20.9341 32.6537 20.9341 32.5188C20.9365 31.6923 20.9375 30.8619 20.9385 30.0326V30.0305V30.0258C20.9392 29.4727 20.9397 28.9201 20.9408 28.3694V28.1785C20.9164 28.1767 20.8935 28.1745 20.8718 28.1725C20.8296 28.1685 20.7918 28.1649 20.7546 28.1649V28.1663ZM26.9445 29.152C26.97 29.5762 26.9739 30.0098 26.9739 30.4433L26.9753 30.4447C26.978 31.511 26.9753 32.5827 26.9713 33.66C26.9722 33.691 26.9776 33.7219 26.9873 33.7513H25.2971C25.3062 33.726 25.3107 33.6992 25.3105 33.6723C25.3105 33.2521 25.311 32.8315 25.3115 32.4108V32.4103V32.4098V32.4095V32.409V32.4069V32.4061V32.4053V32.4045C25.3123 31.5628 25.3132 30.7207 25.3105 29.8802C25.3105 29.6212 25.202 29.5107 24.9473 29.5107C24.4112 29.5079 23.8657 29.5107 23.3281 29.5148C23.299 29.5151 23.2702 29.5197 23.2423 29.5284C23.2395 29.5394 23.2364 29.5478 23.2338 29.5551C23.2303 29.5649 23.2276 29.5723 23.2276 29.5802C23.2329 30.9724 23.2329 32.3605 23.2329 33.7513H21.6138C21.6164 32.4205 21.6164 31.0938 21.6164 29.7616V28.173C21.6618 28.1667 21.7074 28.1631 21.7532 28.1621H22.0753H22.0759H22.076H22.0761C23.2575 28.162 24.4368 28.1619 25.6162 28.1744C25.8371 28.1789 26.0568 28.2105 26.2703 28.2684C26.667 28.3762 26.9109 28.6926 26.9445 29.152ZM7.47895 28.1662C7.38331 28.1662 7.38471 28.2291 7.38612 28.2929C7.3863 28.3007 7.38647 28.3085 7.38647 28.3162V30.1555H5.29949V28.1662H5.10111L3.75 28.1552V33.7499H5.30887V31.56H7.40658V33.7499H9.02844C9.03247 33.7389 9.03247 33.7226 9.03247 33.7049V28.3025C9.03247 28.2789 9.02819 28.2545 9.02361 28.2281C9.02048 28.2102 9.01721 28.1915 9.01504 28.1716C8.755 28.1689 8.49832 28.1689 8.24298 28.1689C7.98763 28.1689 7.73362 28.1689 7.47895 28.1662ZM13.6634 28.2803C13.6956 28.2325 13.7666 28.1739 13.8162 28.1739L13.8148 28.1753C14.1742 28.1667 14.5328 28.1688 14.8898 28.1708H14.8907C15.0462 28.1717 15.2015 28.1725 15.3562 28.1725C15.3696 28.1725 15.3838 28.1792 15.406 28.1894H15.4061L15.4139 28.1931L15.4107 28.1986C15.3838 28.2456 15.3592 28.2886 15.3294 28.3267C14.8694 29.006 14.4065 29.687 13.9444 30.3668L13.9441 30.3671L13.9427 30.3693C13.6986 30.7283 13.4547 31.0871 13.2116 31.4451C13.1675 31.5173 13.1352 31.6169 13.1352 31.6987C13.1272 32.3832 13.1273 33.0691 13.1273 33.7508H11.5054C11.5061 33.6014 11.5051 33.4518 11.504 33.3021V33.302C11.5013 32.9463 11.4988 32.5904 11.5214 32.2373C11.555 31.7805 11.433 31.411 11.1729 31.0415C10.7471 30.4286 10.3419 29.8019 9.93722 29.176L9.93703 29.1758C9.75834 28.8994 9.57984 28.6233 9.39956 28.3485C9.38184 28.3237 9.36532 28.2971 9.34462 28.2639C9.32781 28.237 9.30822 28.2056 9.28299 28.1671H9.48675L9.49078 28.1672H9.49088H9.49097C9.98813 28.1739 10.4841 28.1808 10.9773 28.1808C11.0804 28.1808 11.1287 28.2271 11.1783 28.3021C11.5392 28.8657 11.9016 29.4284 12.2653 29.9902C12.2833 30.02 12.3019 30.0477 12.3259 30.0834L12.3592 30.1334C12.3743 30.1124 12.3888 30.0938 12.4024 30.0765C12.4259 30.0463 12.4467 30.0196 12.4637 29.9902C12.6554 29.7198 12.8453 29.4474 13.0353 29.175C13.2438 28.8761 13.4523 28.5771 13.6634 28.2803ZM39.73 28.1621H41.25V28.1944C41.2506 28.1944 41.2511 28.1944 41.2518 28.1944V33.7481H41.25V33.7499H39.73V33.7481H39.7291C39.7291 33.7379 39.7294 33.7274 39.73 33.7168V28.1621Z" fill="url(#paint0_linear_2_879)"/>
<defs>
<linearGradient id="paint0_linear_2_879" x1="16.6415" y1="11.25" x2="20.7396" y2="30.2226" gradientUnits="userSpaceOnUse">
<stop stop-color="#808080"/>
<stop offset="1" stop-color="#333333"/>
</linearGradient>
</defs>
</svg>
