<svg width="45" height="45" viewBox="0 0 45 45" fill="none" xmlns="http://www.w3.org/2000/svg">
<path fill-rule="evenodd" clip-rule="evenodd" d="M34.7623 11.1525C31.7019 8.1575 26.6863 7.5 22.4708 7.5C18.2554 7.5 13.0598 8.1575 10.0418 11.4075L9.90431 11.5725C8.24252 13.5778 7.38923 16.1311 7.51154 18.7325C7.51154 28.4475 16.0201 30 22.4708 30C28.9216 30 37.4851 28.45 37.4851 18.7325C37.6253 16.1291 36.7708 13.5697 35.0948 11.5725C34.971 11.4433 34.8596 11.3027 34.7623 11.1525ZM12.7271 12.9775C14.6874 10.115 18.6079 9.33 22.5259 9.33C26.4438 9.33 30.1917 9.98747 32.3271 12.835L32.4645 13.0175C28.9766 14.8425 25.0136 14.9925 22.6633 19.7575C19.8606 15.3575 15.9601 15.32 12.5096 13.4925C12.5722 13.3675 12.6446 13.245 12.7247 13.1275V12.9825L12.7271 12.9775ZM22.4708 27.955C16.6877 27.955 11.297 26.2925 11.297 18.6775C11.2929 18.1445 11.3381 17.6122 11.432 17.0875C11.432 16.9775 11.432 16.87 11.532 16.76L17.4128 18.585C19.813 19.475 21.6983 21.265 22.6058 23.5175C23.481 21.2525 25.3162 19.4225 27.684 18.4575L33.5647 16.485C33.5747 16.535 33.5747 16.585 33.5647 16.6325C33.6722 17.34 33.7247 18.0525 33.7222 18.7675C33.7622 26.4375 28.2516 27.9925 22.4708 27.955Z" fill="url(#paint0_linear_2_818)"/>
<path fill-rule="evenodd" clip-rule="evenodd" d="M22.9989 34.0667L25.2082 32.3486L21.2144 32.3502V34.0667H22.9989Z" fill="url(#paint1_linear_2_818)"/>
<path fill-rule="evenodd" clip-rule="evenodd" d="M35.8988 32.3485H32.4112V33.7577H35.2345C36.0454 33.7577 35.8988 34.276 35.8988 34.276H33.6472C33.3504 34.2415 33.0498 34.2828 32.7732 34.3959C32.4967 34.509 32.2534 34.6904 32.0657 34.9231V34.6442C32.0657 32.3081 30.2588 32.3485 30.2588 32.3485H25.5292L20.7128 36.0749V33.798C20.7129 33.5996 20.6711 33.4035 20.5902 33.2225C20.5092 33.0414 20.391 32.8795 20.2432 32.7475C20.0929 32.6132 19.917 32.5108 19.726 32.4466C19.5351 32.3825 19.333 32.3326 19.1323 32.3489H15.618V33.7577H18.408C19.218 33.7577 19.1117 34.276 19.1117 34.276H16.8737C16.5857 34.2336 16.2916 34.2633 16.0177 34.3626C15.744 34.4619 15.4991 34.6277 15.3052 34.845V34.2957C15.336 34.0402 15.3088 33.7808 15.2258 33.5371C15.1426 33.2934 15.0057 33.0716 14.8252 32.8883C14.6411 32.7019 14.4189 32.5575 14.1739 32.4653C13.9289 32.3729 13.6668 32.3349 13.4057 32.3536H7.5V37.4995H9.28714V33.9009H10.5428V37.4995H12.2495V33.9009H12.828C13.6577 33.9009 13.5514 34.5481 13.5514 34.5481V37.4995H15.3052V36.8525C15.6034 37.2541 16.0792 37.4944 16.5874 37.4995H21.4834L26.3332 33.7139V37.4995H30.126C30.9428 37.5184 31.6628 36.9597 31.8532 36.1856C31.9757 36.9219 32.622 37.4875 33.3874 37.4995H37.5V33.798C37.5014 33.5975 37.4599 33.399 37.3781 33.216C37.2963 33.033 37.1763 32.8697 37.026 32.7372C36.8732 32.6023 36.6941 32.5004 36.5003 32.438C36.3063 32.3754 36.1015 32.3282 35.8988 32.3485ZM19.092 36.0954H17.2123C17.1634 36.0991 17.1143 36.0927 17.068 36.0766C17.0217 36.0606 16.9793 36.0352 16.9432 36.002C16.9076 35.9694 16.8795 35.9297 16.8606 35.8854C16.8417 35.8412 16.8324 35.7935 16.8334 35.7453C16.8334 35.4346 17.1325 35.4158 17.2388 35.4158H19.092V36.0954ZM29.6408 35.9917H28.0405V33.8169H29.6605C29.6605 33.8169 30.4252 33.8821 30.4252 34.833C30.4252 35.7848 30.066 35.9917 29.6408 35.9917ZM35.8388 36.0946H33.966C33.9167 36.0994 33.8669 36.0938 33.8198 36.0783C33.7728 36.0627 33.7294 36.0376 33.6925 36.0045C33.6564 35.9719 33.6277 35.9318 33.6085 35.8871C33.5893 35.8424 33.5799 35.794 33.5812 35.7453C33.5812 35.4346 33.8992 35.4158 34.0054 35.4158H35.8397V36.0954L35.8388 36.0946Z" fill="url(#paint2_linear_2_818)"/>
<path fill-rule="evenodd" clip-rule="evenodd" d="M21.8809 37.4996H26.333V35.7634H24.0863L21.8809 37.4996Z" fill="url(#paint3_linear_2_818)"/>
<defs>
<linearGradient id="paint0_linear_2_818" x1="17.8127" y1="7.5" x2="26.2503" y2="30.9379" gradientUnits="userSpaceOnUse">
<stop stop-color="#808080"/>
<stop offset="1" stop-color="#333333"/>
</linearGradient>
<linearGradient id="paint1_linear_2_818" x1="17.8127" y1="7.5001" x2="26.2503" y2="30.938" gradientUnits="userSpaceOnUse">
<stop stop-color="#333333"/>
<stop offset="0.0001" stop-color="#333333"/>
</linearGradient>
<linearGradient id="paint2_linear_2_818" x1="17.8127" y1="7.50001" x2="26.2503" y2="30.9379" gradientUnits="userSpaceOnUse">
<stop stop-color="#333333"/>
<stop offset="1" stop-color="#424242"/>
</linearGradient>
<linearGradient id="paint3_linear_2_818" x1="17.8125" y1="7.50002" x2="26.2501" y2="30.9379" gradientUnits="userSpaceOnUse">
<stop stop-color="#808080"/>
<stop offset="1" stop-color="#333333"/>
</linearGradient>
</defs>
</svg>
