<svg width="24" height="24" viewBox="0 0 24 24" fill="none" xmlns="http://www.w3.org/2000/svg">
<g clip-path="url(#clip0_2_3175)">
<circle cx="12" cy="12" r="12" fill="#3B5998"/>
<path d="M22.59 1.37333C19.6733 -1.52833 16.11 -3 12 -3C7.85167 -3 4.27833 -1.52667 1.37833 1.375C-1.52667 4.27667 -3 7.85333 -3 12C-3 16.1083 -1.52833 19.6717 1.37333 22.59C4.275 25.5167 7.85 27 12 27C16.1117 27 19.675 25.5167 22.5933 22.595C25.5183 19.6733 27 16.1083 27 12C27 7.85333 25.5167 4.27667 22.59 1.37333ZM20.2367 20.2383C18.3417 22.1367 16.1767 23.2183 13.6667 23.5467V15.3333H17V12H13.6667V9.66667C13.6667 9.5352 13.6926 9.40503 13.7429 9.2836C13.7933 9.16216 13.8671 9.05185 13.9601 8.95897C14.0532 8.86609 14.1636 8.79247 14.2851 8.74231C14.4067 8.69215 14.5369 8.66645 14.6683 8.66667H17V5.33333H14.6717C13.435 5.33333 12.4033 5.78833 11.5767 6.70333C10.75 7.615 10.3333 8.72833 10.3333 10.05V12H7V15.3333H10.3333V23.55C7.79667 23.225 5.62333 22.1417 3.73833 20.2433C1.44667 17.9367 0.333333 15.24 0.333333 12C0.333333 8.72333 1.445 6.02 3.73667 3.73333C6.02 1.445 8.72333 0.333333 12 0.333333C15.2417 0.333333 17.9367 1.44667 20.2417 3.73833C22.5467 6.025 23.6667 8.72833 23.6667 12C23.6667 15.235 22.545 17.9317 20.2367 20.2383Z" fill="white"/>
</g>
<defs>
<clipPath id="clip0_2_3175">
<rect width="24" height="24" fill="white"/>
</clipPath>
</defs>
</svg>
