<svg width="50" height="50" viewBox="0 0 50 50" fill="none" xmlns="http://www.w3.org/2000/svg">
<rect width="50" height="50" rx="25" transform="matrix(-1 0 0 1 50 0)" fill="#F3E03B"/>
<path d="M28.2933 9.82987C28.4457 9.82987 28.5335 9.83549 28.5335 9.83549H31.8794L31.8622 13.2105H28.5386C26.7096 13.2105 26.7519 14.5818 26.7519 14.5818V19.9323H33.2235L32.3202 23.3028H26.7308V40.17H22.8909L22.8883 23.3028H17.787L17.7768 19.9323H22.8902V14.6876C22.8908 10.1145 27.2164 9.82983 28.2933 9.82983V9.82987ZM31.8794 9.83546H31.8858H31.8794ZM28.2933 7.57983C27.372 7.57983 25.5718 7.71374 23.8665 8.61599C22.2521 9.46874 20.3283 11.2153 20.3283 14.6871V17.6818H17.7773C17.0963 17.6818 16.4435 17.9203 15.9618 18.3433C15.7238 18.5531 15.5353 18.8022 15.4071 19.0761C15.2789 19.3501 15.2136 19.6435 15.2149 19.9397L15.2251 23.3102C15.2302 24.5494 16.3763 25.5523 17.7876 25.5523H20.3264L20.329 40.1694C20.329 41.412 21.4764 42.4194 22.8915 42.4194H26.7314C28.1465 42.4194 29.2939 41.412 29.2939 40.1694V25.5523H32.3209C33.458 25.5523 34.4592 24.8942 34.7795 23.9363L35.6828 20.5657C35.9102 19.8857 35.759 19.1505 35.2747 18.5841C35.0365 18.3039 34.727 18.0765 34.371 17.9199C34.015 17.7633 33.6223 17.6817 33.2241 17.6818H29.315V15.4616L31.8627 15.4605C33.2728 15.4605 34.4188 14.4598 34.4252 13.2206L34.4425 9.95981C34.4451 9.91841 34.4464 9.87696 34.4464 9.83549C34.4464 8.59293 33.3016 7.58549 31.8865 7.58549H28.6058C28.5322 7.58212 28.4258 7.57987 28.2933 7.57983Z" fill="black"/>
</svg>
