<svg width="75" height="73" viewBox="0 0 75 73" fill="none" xmlns="http://www.w3.org/2000/svg">
<rect width="50" height="50" rx="25" transform="matrix(-1 0 0 1 63 11)" fill="#F3E03B"/>
<g clip-path="url(#clip0_2_4541)">
<path d="M37.9609 18.1484C43.3516 18.1484 44.0156 18.1855 46.125 18.2598C48.1953 18.334 49.6406 18.668 50.9297 19.1504C52.2578 19.6328 53.3516 20.2637 54.4453 21.3027C55.5391 22.3418 56.2031 23.3809 56.7109 24.6426C57.2188 25.8672 57.5703 27.2402 57.6484 29.207C57.7266 31.2109 57.7656 31.8418 57.7656 36.9629C57.7656 42.084 57.7266 42.7148 57.6484 44.7188C57.5703 46.6855 57.2188 48.0586 56.7109 49.2832C56.2031 50.5449 55.5391 51.584 54.4453 52.623C53.3516 53.6621 52.2578 54.293 50.9297 54.7754C49.6406 55.2578 48.1953 55.5918 46.125 55.666C44.0156 55.7402 43.3516 55.7773 37.9609 55.7773C32.5703 55.7773 31.9062 55.7402 29.7969 55.666C27.7266 55.5918 26.2812 55.2578 24.9922 54.7754C23.6641 54.293 22.5703 53.6621 21.4766 52.623C20.3828 51.584 19.7188 50.5449 19.2109 49.2832C18.7031 48.0586 18.3516 46.6855 18.2734 44.7188C18.1953 42.7148 18.1562 42.084 18.1562 36.9629C18.1562 31.8418 18.1953 31.2109 18.2734 29.207C18.3516 27.2402 18.7031 25.8672 19.2109 24.6426C19.7188 23.3809 20.3828 22.3418 21.4766 21.3027C22.5703 20.2637 23.6641 19.6328 24.9922 19.1504C26.2812 18.668 27.7266 18.334 29.7969 18.2598C31.9062 18.1855 32.5703 18.1484 37.9609 18.1484ZM37.9609 20.5977C32.3359 20.5977 31.6719 20.6348 29.4844 20.709C27.4531 20.7832 26.3203 21.1543 25.5781 21.4141C23.6641 22.1562 22.375 23.3809 21.5938 25.1992C21.3203 25.9043 20.9297 26.9805 20.8516 28.9102C20.7734 30.9883 20.7344 31.6191 20.7344 36.9629C20.7344 42.3066 20.7734 42.9375 20.8516 45.0156C20.9297 46.9453 21.3203 48.0215 21.5938 48.7266C22.375 50.5449 23.6641 51.7695 25.5781 52.5117C26.3203 52.7715 27.4531 53.1426 29.4844 53.2168C31.6719 53.291 32.3359 53.3281 37.9609 53.3281C43.5859 53.3281 44.25 53.291 46.4375 53.2168C48.4688 53.1426 49.6016 52.7715 50.3438 52.5117C52.2578 51.7695 53.5469 50.5449 54.3281 48.7266C54.6016 48.0215 54.9922 46.9453 55.0703 45.0156C55.1484 42.9375 55.1875 42.3066 55.1875 36.9629C55.1875 31.6191 55.1484 30.9883 55.0703 28.9102C54.9922 26.9805 54.6016 25.9043 54.3281 25.1992C53.5469 23.3809 52.2578 22.1562 50.3438 21.4141C49.6016 21.1543 48.4688 20.7832 46.4375 20.709C44.25 20.6348 43.5859 20.5977 37.9609 20.5977ZM37.9609 44.4961C42.3359 44.4961 45.8906 41.1191 45.8906 36.9629C45.8906 32.8066 42.3359 29.4297 37.9609 29.4297C33.5859 29.4297 30.0312 32.8066 30.0312 36.9629C30.0312 41.1191 33.5859 44.4961 37.9609 44.4961ZM37.9609 27.3145C43.5859 27.3145 48.1172 31.6191 48.1172 36.9629C48.1172 42.3066 43.5859 46.6113 37.9609 46.6113C32.3359 46.6113 27.8047 42.3066 27.8047 36.9629C27.8047 31.6191 32.3359 27.3145 37.9609 27.3145ZM50.9297 26.9434C50.9297 28.2051 49.8359 29.1699 48.5078 29.1699C47.1797 29.1699 46.1641 28.2051 46.1641 26.9434C46.1641 25.6816 47.1797 24.6426 48.5078 24.6426C49.8359 24.6426 50.9297 25.6816 50.9297 26.9434Z" fill="black"/>
</g>
<defs>
<clipPath id="clip0_2_4541">
<rect width="40" height="38" fill="white" transform="translate(18 18)"/>
</clipPath>
</defs>
</svg>
