<svg width="50" height="50" viewBox="0 0 50 50" fill="none" xmlns="http://www.w3.org/2000/svg">
<rect width="50" height="50" rx="25" transform="matrix(-1 0 0 1 50 0)" fill="#F3E03B"/>
<g clip-path="url(#clip0_2_4535)">
<path d="M44.3404 10.5362C43.1212 9.6587 39.7237 8.49292 25.4875 8.49292C10.2318 8.49292 7.96848 9.83167 7.2421 10.2697C3.37632 12.5921 3.00929 22.8739 2.97559 24.9587C3.02199 27.7122 3.46707 36.8732 7.23934 39.1394C7.9643 39.576 10.215 40.907 25.4875 40.907C39.7328 40.907 43.1261 39.7468 44.3404 38.8728C47.6353 36.5026 48.0143 28.34 48.0234 24.9229C48.015 22.1751 47.7267 12.9754 44.3405 10.5362L44.3404 10.5362ZM42.6979 36.5905C42.2079 36.9435 39.3939 38.0944 25.4875 38.0944C12.043 38.0944 9.22206 37.051 8.68909 36.7297C7.33206 35.9155 5.89979 31.5933 5.78734 24.9509C5.89843 18.3233 7.35039 13.4851 8.69199 12.6807C9.22637 12.358 12.0578 11.3061 25.4875 11.3061C39.3826 11.3061 42.2043 12.4649 42.6979 12.8192C43.9024 13.6869 45.1919 18.2544 45.2109 24.932C45.1919 31.7143 43.8939 35.7299 42.6979 36.5905H42.6979ZM34.6584 23.5938L22.005 15.8292C21.7917 15.7006 21.5481 15.6309 21.299 15.6273C21.0499 15.6237 20.8044 15.6864 20.5875 15.8088C20.3703 15.9313 20.1897 16.1092 20.0639 16.3244C19.9381 16.5396 19.8718 16.7844 19.8717 17.0336V32.5657C19.8719 32.9386 20.0201 33.2962 20.2838 33.5598C20.5474 33.8235 20.905 33.9717 21.2779 33.9719C21.5339 33.972 21.785 33.9022 22.0042 33.7701L34.6577 26.0027C35.0796 25.7475 35.3376 25.2912 35.3376 24.7983C35.3376 24.3054 35.0803 23.8477 34.6584 23.5938H34.6584ZM22.6849 30.0745V19.5234L31.2103 24.7982L22.6849 30.0745Z" fill="#333333"/>
</g>
<defs>
<clipPath id="clip0_2_4535">
<rect width="45" height="45" fill="white" transform="translate(3 4)"/>
</clipPath>
</defs>
</svg>
