<svg width="27" height="25" viewBox="0 0 27 25" fill="none" xmlns="http://www.w3.org/2000/svg">
<path d="M23.031 3.64444C20.406 1.22639 17.199 0 13.5 0C9.7665 0 6.5505 1.22778 3.9405 3.64583C1.326 6.06389 0 9.04444 0 12.5C0 15.9236 1.3245 18.8931 3.936 21.325C6.5475 23.7639 9.765 25 13.5 25C17.2005 25 20.4075 23.7639 23.034 21.3292C25.6665 18.8944 27 15.9236 27 12.5C27 9.04444 25.665 6.06389 23.031 3.64444ZM20.913 19.3653C19.2075 20.9472 17.259 21.8486 15 22.1222V15.2778H18V12.5H15V10.5556C15 10.446 15.0233 10.3375 15.0687 10.2363C15.114 10.1351 15.1804 10.0432 15.2641 9.96581C15.3479 9.88841 15.4473 9.82705 15.5566 9.78526C15.666 9.74346 15.7832 9.72204 15.9015 9.72222H18V6.94444H15.9045C14.7915 6.94444 13.863 7.32361 13.119 8.08611C12.375 8.84583 12 9.77361 12 10.875V12.5H9V15.2778H12V22.125C9.717 21.8542 7.761 20.9514 6.0645 19.3694C4.002 17.4472 3 15.2 3 12.5C3 9.76944 4.0005 7.51667 6.063 5.61111C8.118 3.70417 10.551 2.77778 13.5 2.77778C16.4175 2.77778 18.843 3.70556 20.9175 5.61528C22.992 7.52083 24 9.77361 24 12.5C24 15.1958 22.9905 17.4431 20.913 19.3653Z" fill="#4F4F4F"/>
</svg>
