<svg width="30" height="23" viewBox="0 0 30 23" fill="none" xmlns="http://www.w3.org/2000/svg">
<path d="M30 2.72284C28.8767 3.1923 27.6852 3.5003 26.4652 3.63657C27.7503 2.91117 28.7119 1.7697 29.1709 0.424895C27.963 1.10139 26.6413 1.57776 25.2629 1.83336C24.687 1.25388 23.9912 0.792155 23.2184 0.476791C22.4456 0.161427 21.6125 -0.000854235 20.7705 3.38153e-06C17.3717 3.38153e-06 14.6157 2.59934 14.6157 5.8066C14.6157 6.26127 14.6702 6.7049 14.7754 7.13016C9.66001 6.88794 5.12513 4.57604 2.0894 1.0626C1.54205 1.94879 1.25443 2.9564 1.25605 3.98207C1.25525 4.93808 1.50476 5.87947 1.98244 6.72261C2.46011 7.56574 3.15114 8.2845 3.99413 8.81502C3.01691 8.78574 2.06123 8.53674 1.20658 8.08874C1.2058 8.113 1.2058 8.13689 1.2058 8.16188C1.2058 10.9744 3.32714 13.3212 6.14236 13.8553C5.23587 14.0868 4.28543 14.1207 3.36299 13.9545C4.14607 16.2609 6.41897 17.9403 9.11224 17.9873C6.93204 19.6014 4.23978 20.477 1.46838 20.4731C0.97165 20.4731 0.481929 20.4459 0 20.3918C2.81418 22.0977 6.08943 23.0032 9.43444 23C20.7553 23 26.946 14.1526 26.946 6.48033C26.946 6.22892 26.9397 5.97788 26.928 5.72831C28.1337 4.90716 29.174 3.88933 30 2.72284Z" fill="#4F4F4F"/>
</svg>
