<svg width="16" height="16" viewBox="0 0 16 16" fill="none" xmlns="http://www.w3.org/2000/svg">
<path d="M13.648 2.33244C12.0924 0.784889 10.192 0 8 0C5.78756 0 3.88178 0.785778 2.33511 2.33333C0.785778 3.88089 0 5.78844 0 8C0 10.1911 0.784889 12.0916 2.33244 13.648C3.88 15.2089 5.78667 16 8 16C10.1929 16 12.0933 15.2089 13.6498 13.6507C15.2098 12.0924 16 10.1911 16 8C16 5.78844 15.2089 3.88089 13.648 2.33244ZM12.3929 12.3938C11.3822 13.4062 10.2276 13.9831 8.88889 14.1582V9.77778H10.6667V8H8.88889V6.75556C8.88889 6.68544 8.90271 6.61602 8.92957 6.55125C8.95643 6.48649 8.99579 6.42765 9.04541 6.37812C9.09503 6.32858 9.15393 6.28931 9.21874 6.26256C9.28355 6.23581 9.353 6.22211 9.42311 6.22222H10.6667V4.44444H9.42489C8.76533 4.44444 8.21511 4.68711 7.77422 5.17511C7.33333 5.66133 7.11111 6.25511 7.11111 6.96V8H5.33333V9.77778H7.11111V14.16C5.75822 13.9867 4.59911 13.4089 3.59378 12.3964C2.37156 11.1662 1.77778 9.728 1.77778 8C1.77778 6.25244 2.37067 4.81067 3.59289 3.59111C4.81067 2.37067 6.25244 1.77778 8 1.77778C9.72889 1.77778 11.1662 2.37156 12.3956 3.59378C13.6249 4.81333 14.2222 6.25511 14.2222 8C14.2222 9.72533 13.624 11.1636 12.3929 12.3938Z" fill="#F9F9F9"/>
</svg>
