<svg width="18" height="14" viewBox="0 0 18 14" fill="none" xmlns="http://www.w3.org/2000/svg">
<path d="M17.6842 1.65738C17.0221 1.94314 16.3197 2.13062 15.6005 2.21357C16.3581 1.77202 16.9249 1.07721 17.1955 0.258631C16.4835 0.670413 15.7043 0.960379 14.8918 1.11596C14.5524 0.763232 14.1422 0.482181 13.6866 0.290221C13.2311 0.0982601 12.74 -0.000519969 12.2437 2.05832e-06C10.2401 2.05832e-06 8.61555 1.5822 8.61555 3.53445C8.61555 3.81121 8.6477 4.08124 8.70971 4.3401C5.69432 4.19266 3.02113 2.78541 1.23165 0.646799C0.908995 1.18622 0.739453 1.79955 0.740411 2.42387C0.739936 3.00579 0.887019 3.57881 1.16859 4.09202C1.45017 4.60523 1.85751 5.04274 2.35443 5.36567C1.77839 5.34784 1.21504 5.19628 0.711245 4.92358C0.710786 4.93835 0.710786 4.95289 0.710786 4.9681C0.710786 6.68007 1.96126 8.10857 3.62076 8.43365C3.08641 8.57457 2.52615 8.59522 1.98239 8.49405C2.444 9.89795 3.78381 10.9202 5.37143 10.9488C4.08625 11.9313 2.49924 12.4642 0.865574 12.4619C0.572762 12.4619 0.284085 12.4453 0 12.4124C1.65888 13.4508 3.58956 14.0019 5.56135 14C12.2347 14 15.8839 8.61464 15.8839 3.94455C15.8839 3.79152 15.8803 3.63871 15.8734 3.4868C16.584 2.98697 17.1973 2.36742 17.6842 1.65738Z" fill="#F9F9F9"/>
</svg>
