<svg width="26" height="26" viewBox="0 0 26 26" fill="none" xmlns="http://www.w3.org/2000/svg">
<path d="M21.4128 4.55787C19.0957 2.25265 16.2648 1.0835 12.9997 1.0835C9.70405 1.0835 6.86524 2.25398 4.56135 4.55919C2.25349 6.8644 1.08301 9.70587 1.08301 13.0002C1.08301 16.264 2.25217 19.0949 4.55738 21.4133C6.86259 23.7384 9.70273 24.9168 12.9997 24.9168C16.2662 24.9168 19.097 23.7384 21.4155 21.4173C23.7392 19.0962 24.9163 16.264 24.9163 13.0002C24.9163 9.70587 23.7379 6.8644 21.4128 4.55787ZM19.5432 19.5451C18.0378 21.0532 16.3178 21.9125 14.3237 22.1733V15.6483H16.9719V13.0002H14.3237V11.1465C14.3237 11.042 14.3443 10.9386 14.3843 10.8421C14.4244 10.7457 14.483 10.658 14.5569 10.5842C14.6308 10.5104 14.7186 10.452 14.8151 10.4121C14.9116 10.3723 15.0151 10.3518 15.1195 10.352H16.9719V7.70387H15.1222C14.1397 7.70387 13.3201 8.06534 12.6634 8.79225C12.0066 9.51652 11.6756 10.401 11.6756 11.451V13.0002H9.02745V15.6483H11.6756V22.176C9.66036 21.9178 7.93377 21.0572 6.43624 19.549C4.61564 17.7165 3.73116 15.5742 3.73116 13.0002C3.73116 10.397 4.61431 8.24938 6.43492 6.43275C8.2489 4.6148 10.3965 3.73164 12.9997 3.73164C15.575 3.73164 17.716 4.61613 19.5472 6.43673C21.3784 8.25336 22.2682 10.401 22.2682 13.0002C22.2682 15.5702 21.3771 17.7125 19.5432 19.5451Z" fill="#1DA1F2"/>
</svg>
