<svg width="28" height="28" viewBox="0 0 28 28" fill="none" xmlns="http://www.w3.org/2000/svg">
<circle cx="14" cy="14" r="12" fill="#F9F9F9"/>
<path d="M22 10.4206C21.4384 10.6655 20.8426 10.8262 20.2326 10.8973C20.8751 10.5189 21.356 9.92332 21.5855 9.22168C20.9815 9.57464 20.3206 9.82318 19.6315 9.95653C19.3435 9.6542 18.9956 9.4133 18.6092 9.24876C18.2228 9.08422 17.8062 8.99955 17.3852 9C15.6858 9 14.3078 10.3562 14.3078 12.0295C14.3078 12.2667 14.3351 12.4982 14.3877 12.7201C11.83 12.5937 9.56256 11.3875 8.0447 9.5544C7.77102 10.0168 7.62721 10.5425 7.62803 11.0776C7.62762 11.5764 7.75238 12.0676 7.99122 12.5074C8.23005 12.9473 8.57557 13.3223 8.99707 13.5991C8.50845 13.5839 8.03061 13.454 7.60329 13.2202C7.6029 13.2329 7.6029 13.2453 7.6029 13.2584C7.6029 14.7258 8.66357 15.9502 10.0712 16.2288C9.61793 16.3496 9.14272 16.3673 8.68149 16.2806C9.07304 17.484 10.2095 18.3601 11.5561 18.3847C10.466 19.2268 9.11989 19.6836 7.73419 19.6816C7.48583 19.6816 7.24096 19.6674 7 19.6392C8.40709 20.5292 10.0447 21.0016 11.7172 21C17.3776 21 20.473 16.384 20.473 12.381C20.473 12.2499 20.4699 12.1189 20.464 11.9887C21.0668 11.5603 21.587 11.0292 22 10.4206Z" fill="#1DA1F2"/>
</svg>
