<svg width="24" height="24" viewBox="0 0 24 24" fill="none" xmlns="http://www.w3.org/2000/svg">
<path fill-rule="evenodd" clip-rule="evenodd" d="M6.67875 11.8925L2 7.215L3.7675 5.44625L6.67875 8.3575L13.035 2L14.8038 3.7675L6.67875 11.8925Z" fill="#F3E03B"/>
<path fill-rule="evenodd" clip-rule="evenodd" d="M8.25 14.5H20.75C21.0815 14.5 21.3995 14.6317 21.6339 14.8661C21.8683 15.1005 22 15.4185 22 15.75C22 16.0815 21.8683 16.3995 21.6339 16.6339C21.3995 16.8683 21.0815 17 20.75 17H8.25C7.91848 17 7.60054 16.8683 7.36612 16.6339C7.1317 16.3995 7 16.0815 7 15.75C7 15.4185 7.1317 15.1005 7.36612 14.8661C7.60054 14.6317 7.91848 14.5 8.25 14.5ZM8.25 19.5H20.75C21.0815 19.5 21.3995 19.6317 21.6339 19.8661C21.8683 20.1005 22 20.4185 22 20.75C22 21.0815 21.8683 21.3995 21.6339 21.6339C21.3995 21.8683 21.0815 22 20.75 22H8.25C7.91848 22 7.60054 21.8683 7.36612 21.6339C7.1317 21.3995 7 21.0815 7 20.75C7 20.4185 7.1317 20.1005 7.36612 19.8661C7.60054 19.6317 7.91848 19.5 8.25 19.5ZM15.75 9.5H20.75C21.0815 9.5 21.3995 9.6317 21.6339 9.86612C21.8683 10.1005 22 10.4185 22 10.75C22 11.0815 21.8683 11.3995 21.6339 11.6339C21.3995 11.8683 21.0815 12 20.75 12H15.75C15.4185 12 15.1005 11.8683 14.8661 11.6339C14.6317 11.3995 14.5 11.0815 14.5 10.75C14.5 10.4185 14.6317 10.1005 14.8661 9.86612C15.1005 9.6317 15.4185 9.5 15.75 9.5Z" fill="#003333"/>
</svg>
