<svg width="20" height="20" viewBox="0 0 20 20" fill="none" xmlns="http://www.w3.org/2000/svg">
<g clip-path="url(#clip0_2_4879)">
<ellipse cx="4" cy="16.5" rx="3" ry="3.5" fill="#F3E03B"/>
<ellipse cx="15.3977" cy="15.4188" rx="3.62496" ry="1.4962" transform="rotate(38.2383 15.3977 15.4188)" fill="#F3E03B"/>
<path d="M1.25 -0.000104599L0 1.2499L2.75 5.10115C2.86577 5.26333 3.01864 5.39548 3.19585 5.48659C3.37306 5.57769 3.56949 5.62511 3.76875 5.6249H3.85625C4.0206 5.62477 4.18336 5.65705 4.33522 5.71989C4.48708 5.78274 4.62505 5.87492 4.74125 5.99115L8.085 9.3349L4.81375 12.6524C4.25424 12.4877 3.66405 12.4556 3.09 12.5588C2.51594 12.6619 1.97382 12.8974 1.50662 13.2465C1.03943 13.5957 0.660026 14.0489 0.398504 14.5702C0.136983 15.0916 0.000540251 15.6666 0 16.2499C0.000749329 16.7873 0.117005 17.3183 0.340889 17.8069C0.564774 18.2954 0.891057 18.7302 1.29763 19.0816C1.70421 19.4331 2.18158 19.6931 2.69739 19.8439C3.21321 19.9948 3.75543 20.033 4.28731 19.956C4.81919 19.879 5.3283 19.6885 5.78016 19.3976C6.23201 19.1066 6.61605 18.722 6.90626 18.2696C7.19646 17.8173 7.38605 17.3079 7.46218 16.7759C7.53831 16.2439 7.4992 15.7017 7.3475 15.1861L10.665 11.9149L11.875 13.1249L11.4937 14.2674C11.4205 14.4876 11.41 14.7239 11.4634 14.9497C11.5168 15.1756 11.6321 15.3821 11.7963 15.5461L15.8837 19.6336C15.9996 19.7501 16.1373 19.8426 16.2889 19.9056C16.4406 19.9687 16.6032 20.0012 16.7675 20.0012C16.9318 20.0012 17.0944 19.9687 17.2461 19.9056C17.3977 19.8426 17.5354 19.7501 17.6513 19.6336L19.6337 17.6511C19.7502 17.5353 19.8427 17.3976 19.9057 17.246C19.9688 17.0943 20.0013 16.9317 20.0013 16.7674C20.0013 16.6031 19.9688 16.4405 19.9057 16.2888C19.8427 16.1372 19.7502 15.9995 19.6337 15.8836L15.5463 11.7961C15.3822 11.632 15.1757 11.5167 14.9498 11.4633C14.724 11.4099 14.4877 11.4204 14.2675 11.4936L13.125 11.8749L11.925 10.6749L15.275 7.37115C15.8307 7.51949 16.4131 7.53823 16.9772 7.42591C17.5414 7.31359 18.0721 7.07322 18.5287 6.72333C18.9852 6.37344 19.3553 5.92338 19.6104 5.40785C19.8655 4.89232 19.9988 4.32509 20 3.7499C20 3.41365 19.9562 3.0874 19.8725 2.77865L17.1975 5.4549L15 4.9999L14.545 2.80365L17.2213 0.127395C16.5846 -0.043778 15.9141 -0.0440975 15.2773 0.126469C14.6405 0.297036 14.0599 0.63246 13.5941 1.09893C13.1283 1.5654 12.7936 2.14644 12.6239 2.78346C12.4542 3.42049 12.4555 4.091 12.6275 4.7274L9.3275 8.0749L5.99125 4.74115C5.75681 4.50678 5.62507 4.18889 5.625 3.8574V3.76865C5.62502 3.5696 5.5775 3.37342 5.4864 3.19644C5.3953 3.01946 5.26326 2.86679 5.10125 2.75115L1.25 -0.000104599ZM13.3075 13.3074C13.3656 13.2492 13.4345 13.203 13.5105 13.1715C13.5864 13.14 13.6678 13.1238 13.75 13.1238C13.8322 13.1238 13.9136 13.14 13.9895 13.1715C14.0655 13.203 14.1344 13.2492 14.1925 13.3074L17.835 16.9511C17.9488 17.069 18.0118 17.2269 18.0104 17.3908C18.009 17.5546 17.9433 17.7114 17.8274 17.8273C17.7115 17.9432 17.5547 18.0089 17.3909 18.0103C17.227 18.0117 17.0691 17.9487 16.9513 17.8349L13.3075 14.1924C13.2493 14.1343 13.2031 14.0654 13.1716 13.9894C13.1401 13.9135 13.1239 13.8321 13.1239 13.7499C13.1239 13.6677 13.1401 13.5863 13.1716 13.5104C13.2031 13.4344 13.2493 13.3655 13.3075 13.3074ZM3.75 13.7499L4.33875 14.0524L5 14.0849L5.35875 14.6411L5.915 14.9999L5.9475 15.6611L6.25 16.2499L5.9475 16.8386L5.915 17.4999L5.35875 17.8586L5 18.4149L4.33875 18.4474L3.75 18.7499L3.16125 18.4474L2.5 18.4149L2.14125 17.8586L1.585 17.4999L1.5525 16.8386L1.25 16.2499L1.5525 15.6611L1.585 14.9999L2.14125 14.6411L2.5 14.0849L3.16125 14.0524L3.75 13.7499Z" fill="url(#paint0_linear_2_4879)"/>
</g>
<defs>
<linearGradient id="paint0_linear_2_4879" x1="10.0006" y1="-0.0012207" x2="10.0006" y2="20.0012" gradientUnits="userSpaceOnUse">
<stop offset="1" stop-color="#333333"/>
</linearGradient>
<clipPath id="clip0_2_4879">
<rect width="20" height="20" fill="white"/>
</clipPath>
</defs>
</svg>
