<svg width="22" height="22" viewBox="0 0 22 22" fill="none" xmlns="http://www.w3.org/2000/svg">
<mask id="mask0_2_4918" style="mask-type:alpha" maskUnits="userSpaceOnUse" x="0" y="0" width="22" height="22">
<path d="M21 11H15M11 21C16.523 21 21 16.523 21 11C21 5.477 16.523 1 11 1C5.477 1 1 5.477 1 11C1 16.523 5.477 21 11 21ZM11 21V15V21ZM1 11H7H1Z" stroke="white" stroke-width="2" stroke-linecap="round" stroke-linejoin="round"/>
<path d="M15 11C15 12.0609 14.5786 13.0783 13.8284 13.8284C13.0783 14.5786 12.0609 15 11 15C9.93913 15 8.92172 14.5786 8.17157 13.8284C7.42143 13.0783 7 12.0609 7 11C7 9.93913 7.42143 8.92172 8.17157 8.17157C8.92172 7.42143 9.93913 7 11 7C12.0609 7 13.0783 7.42143 13.8284 8.17157C14.5786 8.92172 15 9.93913 15 11Z" fill="white"/>
<path d="M15 11C15 12.0609 14.5786 13.0783 13.8284 13.8284C13.0783 14.5786 12.0609 15 11 15C9.93913 15 8.92172 14.5786 8.17157 13.8284C7.42143 13.0783 7 12.0609 7 11C7 9.93913 7.42143 8.92172 8.17157 8.17157C8.92172 7.42143 9.93913 7 11 7C12.0609 7 13.0783 7.42143 13.8284 8.17157C14.5786 8.92172 15 9.93913 15 11Z" fill="white"/>
<path d="M15 11C15 12.0609 14.5786 13.0783 13.8284 13.8284C13.0783 14.5786 12.0609 15 11 15C9.93913 15 8.92172 14.5786 8.17157 13.8284C7.42143 13.0783 7 12.0609 7 11C7 9.93913 7.42143 8.92172 8.17157 8.17157C8.92172 7.42143 9.93913 7 11 7C12.0609 7 13.0783 7.42143 13.8284 8.17157C14.5786 8.92172 15 9.93913 15 11V11Z" stroke="white" stroke-width="2" stroke-linecap="round" stroke-linejoin="round"/>
</mask>
<g mask="url(#mask0_2_4918)">
<path d="M-1 -1H23V23H-1V-1Z" fill="url(#paint0_linear_2_4918)"/>
</g>
<path d="M20.1189 10.5189C20.1189 9.38428 19.883 8.26077 19.4247 7.21252C18.9664 6.16427 18.2946 5.2118 17.4477 4.4095C16.6008 3.60721 15.5955 2.97079 14.489 2.53659C13.3825 2.10239 12.1966 1.87891 10.9989 1.87891C9.80125 1.87891 8.61532 2.10239 7.50883 2.53659C6.40234 2.97079 5.39696 3.60721 4.55009 4.4095C3.70322 5.2118 3.03145 6.16427 2.57312 7.21252C2.1148 8.26077 1.87891 9.38429 1.87891 10.5189L6.16831 10.5189C6.16831 9.91793 6.29326 9.32284 6.53602 8.76761C6.77878 8.21238 7.1346 7.70789 7.58316 7.28294C8.03172 6.85798 8.56424 6.52089 9.15032 6.29091C9.73639 6.06093 10.3645 5.94255 10.9989 5.94255C11.6333 5.94255 12.2614 6.06093 12.8475 6.29091C13.4336 6.52089 13.9661 6.85798 14.4147 7.28294C14.8632 7.70789 15.219 8.21238 15.4618 8.76761C15.7046 9.32284 15.8295 9.91793 15.8295 10.5189H20.1189Z" fill="#D9D9D9"/>
<defs>
<linearGradient id="paint0_linear_2_4918" x1="11" y1="-1" x2="11" y2="23" gradientUnits="userSpaceOnUse">
<stop stop-color="#808080"/>
<stop offset="1" stop-color="#333333"/>
</linearGradient>
</defs>
</svg>
