<svg width="28" height="20" viewBox="0 0 28 20" fill="none" xmlns="http://www.w3.org/2000/svg">
<path d="M7.5 6.42969H19.2857V17.144V18.2154H14.1327C13.6553 18.2154 13.1936 18.0446 12.8311 17.7339L9.64286 15.0011H7.5V6.42969Z" fill="#D9D9D9"/>
<path d="M8.75 7.5H18.75V17.5H12.5L10 15H7.5V8.75L8.75 7.5ZM7.5 0V2.5H11.25V5H7.5L5 7.5V11.25H2.5V7.5H0V17.5H2.5V13.75H5V17.5H8.75L11.25 20H21.25V15H23.75V18.75H27.5V6.25H23.75V10H21.25V5H13.75V2.5H17.5V0H7.5Z" fill="url(#paint0_linear_2_4989)"/>
<defs>
<linearGradient id="paint0_linear_2_4989" x1="13.75" y1="0" x2="13.75" y2="20" gradientUnits="userSpaceOnUse">
<stop stop-color="#808080"/>
<stop offset="1" stop-color="#333333"/>
</linearGradient>
</defs>
</svg>
