<svg width="20" height="20" viewBox="0 0 20 20" fill="none" xmlns="http://www.w3.org/2000/svg">
<path d="M12.4995 3.75001C12.4995 5.39126 12.1195 6.88501 11.4995 8.00001C11.237 7.80227 10.9379 7.65849 10.6195 7.57696C10.3012 7.49544 9.96978 7.47778 9.64453 7.52501C9.29453 6.29751 8.50703 4.97501 7.34703 3.81376C7.15009 3.61649 6.94534 3.42717 6.73328 3.24626C7.75148 2.75341 8.86832 2.49824 9.99953 2.50001C10.8633 2.50001 11.6933 2.64626 12.4658 2.91501C12.4883 3.18876 12.4995 3.46751 12.4995 3.75001ZM12.4995 10C12.4995 10.0913 12.4945 10.1825 12.4845 10.2713C13.757 10.2475 15.2345 9.83001 16.6483 9.01376C16.8917 8.87296 17.1294 8.72242 17.3608 8.56251C16.9802 6.614 15.843 4.89568 14.1983 3.78376C14.1476 4.05254 14.0871 4.31938 14.017 4.58376C13.592 6.17001 12.837 7.51626 11.947 8.43251C12.2933 8.86126 12.4995 9.40751 12.4995 10ZM12.3283 10.91C12.2077 11.2178 12.0274 11.4987 11.7979 11.7366C11.5683 11.9745 11.2941 12.1647 10.9908 12.2963C11.647 13.3838 12.747 14.4525 14.1595 15.2675C14.4095 15.4125 14.662 15.545 14.9158 15.6638C15.6609 15.0185 16.2712 14.2323 16.7116 13.3504C17.152 12.4686 17.4138 11.5084 17.482 10.525C17.222 10.6163 16.9558 10.7 16.6808 10.7738C15.1008 11.1975 13.5645 11.2188 12.3283 10.9113V10.91ZM9.99953 12.5C9.43703 12.5 8.91703 12.3138 8.49953 12C7.88203 13.1125 7.50453 14.6025 7.50453 16.2388C7.50453 16.5263 7.51703 16.81 7.53828 17.0863C8.32977 17.3609 9.16174 17.5008 9.99953 17.5C11.1745 17.5 12.287 17.23 13.2783 16.7475C13.0636 16.5651 12.8563 16.3741 12.657 16.175C11.5008 15.0175 10.7133 13.6988 10.362 12.475C10.2445 12.4913 10.1233 12.5 9.99953 12.5ZM7.49953 10C7.49953 9.90001 7.50578 9.80001 7.51703 9.70126C6.24203 9.72251 4.76078 10.14 3.34203 10.96C3.09945 11.1 2.86259 11.2497 2.63203 11.4088C2.81723 12.3767 3.19129 13.2987 3.73284 14.1221C4.27439 14.9455 4.97284 15.6541 5.78828 16.2075C5.83904 15.9331 5.90075 15.6608 5.97328 15.3913C6.39828 13.8075 7.14828 12.4638 8.03578 11.5475C7.6873 11.1071 7.49828 10.5616 7.49953 10ZM3.31578 9.21001C4.89953 8.78501 6.43828 8.76626 7.67578 9.07626C7.92078 8.45876 8.40453 7.96376 9.01328 7.70126C8.35828 6.60876 7.25578 5.53501 5.83703 4.71626C5.59485 4.57638 5.34715 4.44627 5.09453 4.32626C4.34855 4.97011 3.73707 5.75494 3.29518 6.63571C2.85329 7.51648 2.5897 8.47585 2.51953 9.45876C2.77703 9.36626 3.04203 9.28376 3.31578 9.21001ZM9.99953 11.25C10.3311 11.25 10.649 11.1183 10.8834 10.8839C11.1178 10.6495 11.2495 10.3315 11.2495 10C11.2495 9.66849 11.1178 9.35055 10.8834 9.11613C10.649 8.88171 10.3311 8.75001 9.99953 8.75001C9.66801 8.75001 9.35007 8.88171 9.11565 9.11613C8.88123 9.35055 8.74953 9.66849 8.74953 10C8.74953 10.3315 8.88123 10.6495 9.11565 10.8839C9.35007 11.1183 9.66801 11.25 9.99953 11.25Z" fill="#333333"/>
<path d="M10 18.75C7.67936 18.75 5.45376 17.8281 3.81282 16.1872C2.17187 14.5462 1.25 12.3206 1.25 10C1.25 7.67936 2.17187 5.45376 3.81282 3.81282C5.45376 2.17187 7.67936 1.25 10 1.25C12.3206 1.25 14.5462 2.17187 16.1872 3.81282C17.8281 5.45376 18.75 7.67936 18.75 10C18.75 12.3206 17.8281 14.5462 16.1872 16.1872C14.5462 17.8281 12.3206 18.75 10 18.75ZM10 20C12.6522 20 15.1957 18.9464 17.0711 17.0711C18.9464 15.1957 20 12.6522 20 10C20 7.34784 18.9464 4.8043 17.0711 2.92893C15.1957 1.05357 12.6522 0 10 0C7.34784 0 4.8043 1.05357 2.92893 2.92893C1.05357 4.8043 0 7.34784 0 10C0 12.6522 1.05357 15.1957 2.92893 17.0711C4.8043 18.9464 7.34784 20 10 20Z" fill="#333333"/>
</svg>
