<svg width="20" height="20" viewBox="0 0 20 20" fill="none" xmlns="http://www.w3.org/2000/svg">
<mask id="path-1-inside-1_2_5744" fill="white">
<path d="M17.273 10C17.273 14.0166 14.0169 17.2727 10.0003 17.2727C5.98365 17.2727 2.72754 14.0166 2.72754 10C2.72754 5.98341 5.98365 2.72729 10.0003 2.72729C14.0169 2.72729 17.273 5.98341 17.273 10ZM3.37741 10C3.37741 13.6577 6.34256 16.6229 10.0003 16.6229C13.658 16.6229 16.6231 13.6577 16.6231 10C16.6231 6.34232 13.658 3.37716 10.0003 3.37716C6.34256 3.37716 3.37741 6.34232 3.37741 10Z"/>
</mask>
<path d="M17.273 10C17.273 14.0166 14.0169 17.2727 10.0003 17.2727C5.98365 17.2727 2.72754 14.0166 2.72754 10C2.72754 5.98341 5.98365 2.72729 10.0003 2.72729C14.0169 2.72729 17.273 5.98341 17.273 10ZM3.37741 10C3.37741 13.6577 6.34256 16.6229 10.0003 16.6229C13.658 16.6229 16.6231 13.6577 16.6231 10C16.6231 6.34232 13.658 3.37716 10.0003 3.37716C6.34256 3.37716 3.37741 6.34232 3.37741 10Z" stroke="#333333" stroke-width="2" stroke-linejoin="round" stroke-dasharray="3 3" mask="url(#path-1-inside-1_2_5744)"/>
<circle cx="9.99973" cy="9.99998" r="2.72727" fill="#333333"/>
<path d="M10 18.75C7.67936 18.75 5.45376 17.8281 3.81282 16.1872C2.17187 14.5462 1.25 12.3206 1.25 10C1.25 7.67936 2.17187 5.45376 3.81282 3.81282C5.45376 2.17187 7.67936 1.25 10 1.25C12.3206 1.25 14.5462 2.17187 16.1872 3.81282C17.8281 5.45376 18.75 7.67936 18.75 10C18.75 12.3206 17.8281 14.5462 16.1872 16.1872C14.5462 17.8281 12.3206 18.75 10 18.75ZM10 20C12.6522 20 15.1957 18.9464 17.0711 17.0711C18.9464 15.1957 20 12.6522 20 10C20 7.34784 18.9464 4.8043 17.0711 2.92893C15.1957 1.05357 12.6522 0 10 0C7.34784 0 4.8043 1.05357 2.92893 2.92893C1.05357 4.8043 0 7.34784 0 10C0 12.6522 1.05357 15.1957 2.92893 17.0711C4.8043 18.9464 7.34784 20 10 20Z" fill="#333333"/>
</svg>
