<svg width="21" height="20" viewBox="0 0 21 20" fill="none" xmlns="http://www.w3.org/2000/svg">
<g clip-path="url(#clip0_2_1286)">
<path d="M14.8524 8.74991H19.7674C19.8268 8.74993 19.8849 8.76687 19.935 8.79874C19.9851 8.83062 20.0251 8.8761 20.0503 8.92988C20.0755 8.98365 20.0848 9.04349 20.0772 9.10238C20.0696 9.16127 20.0454 9.21678 20.0074 9.26241L17.5499 12.2124C17.5206 12.2476 17.4839 12.2759 17.4424 12.2953C17.4009 12.3147 17.3557 12.3248 17.3099 12.3248C17.2641 12.3248 17.2189 12.3147 17.1774 12.2953C17.1359 12.2759 17.0992 12.2476 17.0699 12.2124L14.6124 9.26241C14.5744 9.21678 14.5502 9.16127 14.5426 9.10238C14.535 9.04349 14.5444 8.98365 14.5695 8.92988C14.5947 8.8761 14.6347 8.83062 14.6848 8.79874C14.7349 8.76687 14.793 8.74993 14.8524 8.74991ZM1.10242 11.2499H6.01742C6.0768 11.2499 6.13495 11.2329 6.18505 11.2011C6.23515 11.1692 6.27513 11.1237 6.30031 11.0699C6.32549 11.0162 6.33483 10.9563 6.32724 10.8974C6.31964 10.8385 6.29542 10.783 6.25742 10.7374L3.79992 7.78741C3.77059 7.75224 3.73389 7.72395 3.69242 7.70453C3.65095 7.68511 3.60572 7.67505 3.55992 7.67505C3.51413 7.67505 3.4689 7.68511 3.42742 7.70453C3.38595 7.72395 3.34925 7.75224 3.31992 7.78741L0.862422 10.7374C0.824419 10.783 0.800202 10.8385 0.792606 10.8974C0.785011 10.9563 0.794351 11.0162 0.819534 11.0699C0.844716 11.1237 0.884698 11.1692 0.934798 11.2011C0.984899 11.2329 1.04304 11.2499 1.10242 11.2499Z" fill="white"/>
<path fill-rule="evenodd" clip-rule="evenodd" d="M10.4353 3.74992C8.49531 3.74992 6.76031 4.63367 5.61406 6.02242C5.56288 6.08877 5.49888 6.14414 5.42586 6.18525C5.35285 6.22636 5.27232 6.25237 5.18905 6.26173C5.10578 6.27109 5.02148 6.26362 4.94116 6.23974C4.86085 6.21587 4.78615 6.1761 4.72151 6.12278C4.65687 6.06946 4.60362 6.00368 4.56491 5.92937C4.5262 5.85505 4.50283 5.77371 4.49619 5.69019C4.48955 5.60666 4.49977 5.52265 4.52624 5.44315C4.55272 5.36365 4.59491 5.29029 4.65031 5.22742C5.56555 4.11933 6.7798 3.29744 8.14864 2.85949C9.51748 2.42155 10.9833 2.38599 12.3718 2.75704C13.7603 3.12808 15.0129 3.89013 15.9808 4.95253C16.9487 6.01494 17.5911 7.33299 17.8316 8.74992H16.5603C16.2717 7.33844 15.5045 6.06992 14.3885 5.15886C13.2724 4.2478 11.876 3.7501 10.4353 3.74992ZM4.31031 11.2499C4.54695 12.4057 5.10575 13.471 5.92216 14.3226C6.73857 15.1742 7.77926 15.7775 8.92402 16.0628C10.0688 16.348 11.2709 16.3036 12.3914 15.9346C13.512 15.5656 14.5053 14.887 15.2566 13.9774C15.3077 13.9111 15.3717 13.8557 15.4448 13.8146C15.5178 13.7735 15.5983 13.7475 15.6816 13.7381C15.7648 13.7288 15.8491 13.7362 15.9295 13.7601C16.0098 13.784 16.0845 13.8238 16.1491 13.8771C16.2138 13.9304 16.267 13.9962 16.3057 14.0705C16.3444 14.1448 16.3678 14.2261 16.3744 14.3097C16.3811 14.3932 16.3709 14.4772 16.3444 14.5567C16.3179 14.6362 16.2757 14.7096 16.2203 14.7724C15.3051 15.8805 14.0908 16.7024 12.722 17.1404C11.3531 17.5783 9.88731 17.6139 8.49884 17.2428C7.11037 16.8718 5.85769 16.1097 4.8898 15.0473C3.9219 13.9849 3.27952 12.6669 3.03906 11.2499H4.31031Z" fill="white"/>
</g>
<defs>
<clipPath id="clip0_2_1286">
<rect width="20" height="20" fill="white" transform="translate(0.43457)"/>
</clipPath>
</defs>
</svg>
