<svg width="22" height="22" viewBox="0 0 22 22" fill="none" xmlns="http://www.w3.org/2000/svg">
<path d="M15.1552 14.4107C16.3064 13.1651 16.9985 11.5684 16.9985 9.82549C16.9985 5.83164 13.3622 2.61514 8.92425 2.61514C4.48635 2.61514 0.85 5.83164 0.85 9.82549C0.85 13.8193 4.48635 17.0358 8.92425 17.0358C10.6405 17.0358 12.2314 16.5551 13.5413 15.7363L19.5893 21.1122L19.6891 21.2008L19.7888 21.112L21.0998 19.944L21.2253 19.8321L21.0999 19.7201L15.1552 14.4107ZM8.92425 3.74577C12.7256 3.74577 15.7662 6.47833 15.7662 9.82549C15.7662 13.1726 12.7256 15.9052 8.92425 15.9052C5.1229 15.9052 2.08227 13.1726 2.08227 9.82549C2.08227 6.47833 5.1229 3.74577 8.92425 3.74577Z" fill="#333333" stroke="#333333" stroke-width="0.3"/>
<path d="M3.79688 11.902L4.96221 9.82544L7.29287 11.902L8.4582 6.71058L10.7889 9.82544L13.1195 1" stroke="#F3E03B" stroke-width="2"/>
</svg>
