<svg width="22" height="22" viewBox="0 0 22 22" fill="none" xmlns="http://www.w3.org/2000/svg">
<path d="M15.1552 14.4112C16.3064 13.1656 16.9985 11.5689 16.9985 9.82598C16.9985 5.83212 13.3622 2.61562 8.92425 2.61562C4.48635 2.61562 0.85 5.83212 0.85 9.82598C0.85 13.8198 4.48635 17.0363 8.92425 17.0363C10.6405 17.0363 12.2314 16.5556 13.5413 15.7368L19.5893 21.1126L19.6891 21.2013L19.7888 21.1125L21.0998 19.9445L21.2253 19.8326L21.0999 19.7206L15.1552 14.4112ZM8.92425 3.74625C12.7256 3.74625 15.7662 6.47881 15.7662 9.82598C15.7662 13.1731 12.7256 15.9057 8.92425 15.9057C5.1229 15.9057 2.08227 13.1731 2.08227 9.82598C2.08227 6.47881 5.1229 3.74625 8.92425 3.74625Z" fill="url(#paint0_linear_2_4885)" stroke="url(#paint1_linear_2_4885)" stroke-width="0.3"/>
<path d="M3.79688 11.902L4.96221 9.82544L7.29287 11.902L8.4582 6.71058L10.7889 9.82544L13.1195 1" stroke="#D9D9D9" stroke-width="2"/>
<defs>
<linearGradient id="paint0_linear_2_4885" x1="11" y1="2.76562" x2="11" y2="21.0005" gradientUnits="userSpaceOnUse">
<stop stop-color="#808080"/>
<stop offset="1" stop-color="#333333"/>
</linearGradient>
<linearGradient id="paint1_linear_2_4885" x1="11" y1="2.76562" x2="11" y2="21.0005" gradientUnits="userSpaceOnUse">
<stop stop-color="#808080"/>
<stop offset="1" stop-color="#333333"/>
</linearGradient>
</defs>
</svg>
