<svg width="23" height="27" viewBox="0 0 23 27" fill="none" xmlns="http://www.w3.org/2000/svg">
<path d="M10.232 25C-10.54 12.925 10.232 2 10.232 2C10.232 2 12.0696 9.31029 11.998 14.075C11.933 18.3958 10.232 25 10.232 25Z" stroke="url(#paint0_linear_2_4940)" stroke-width="2"/>
<path d="M8.51562 19C-0.484375 12.7 8.51562 7 8.51562 7C8.51562 7 9.01562 10.6487 9.01562 13C9.01562 15.3513 8.51562 19 8.51562 19Z" fill="#D9D9D9" stroke="#D9D9D9"/>
<path d="M19.5156 10C20.0679 10 20.5156 9.55228 20.5156 9C20.5156 8.44772 20.0679 8 19.5156 8V10ZM14.5156 10H19.5156V8H14.5156V10Z" fill="url(#paint1_linear_2_4940)"/>
<path d="M21.5156 14C22.0679 14 22.5156 13.5523 22.5156 13C22.5156 12.4477 22.0679 12 21.5156 12V14ZM15.5156 14H21.5156V12H15.5156V14Z" fill="url(#paint2_linear_2_4940)"/>
<path d="M19.5156 18C20.0679 18 20.5156 17.5523 20.5156 17C20.5156 16.4477 20.0679 16 19.5156 16V18ZM14.5156 18H19.5156V16H14.5156V18Z" fill="url(#paint3_linear_2_4940)"/>
<defs>
<linearGradient id="paint0_linear_2_4940" x1="6.5" y1="2" x2="6.5" y2="25" gradientUnits="userSpaceOnUse">
<stop stop-color="#808080"/>
<stop offset="1" stop-color="#333333"/>
</linearGradient>
<linearGradient id="paint1_linear_2_4940" x1="17.0156" y1="9" x2="17.0156" y2="10" gradientUnits="userSpaceOnUse">
<stop stop-color="#808080"/>
<stop offset="1" stop-color="#333333"/>
</linearGradient>
<linearGradient id="paint2_linear_2_4940" x1="18.5156" y1="13" x2="18.5156" y2="14" gradientUnits="userSpaceOnUse">
<stop stop-color="#808080"/>
<stop offset="1" stop-color="#333333"/>
</linearGradient>
<linearGradient id="paint3_linear_2_4940" x1="17.0156" y1="17" x2="17.0156" y2="18" gradientUnits="userSpaceOnUse">
<stop stop-color="#808080"/>
<stop offset="1" stop-color="#333333"/>
</linearGradient>
</defs>
</svg>
