<svg width="22" height="22" viewBox="0 0 22 22" fill="none" xmlns="http://www.w3.org/2000/svg">
<mask id="mask0_2_5684" style="mask-type:alpha" maskUnits="userSpaceOnUse" x="0" y="0" width="22" height="22">
<path d="M21 11H15M11 21C16.523 21 21 16.523 21 11C21 5.477 16.523 1 11 1C5.477 1 1 5.477 1 11C1 16.523 5.477 21 11 21ZM11 21V15V21ZM1 11H7H1Z" stroke="white" stroke-width="2" stroke-linecap="round" stroke-linejoin="round"/>
<path d="M15 11C15 12.0609 14.5786 13.0783 13.8284 13.8284C13.0783 14.5786 12.0609 15 11 15C9.93913 15 8.92172 14.5786 8.17157 13.8284C7.42143 13.0783 7 12.0609 7 11C7 9.93913 7.42143 8.92172 8.17157 8.17157C8.92172 7.42143 9.93913 7 11 7C12.0609 7 13.0783 7.42143 13.8284 8.17157C14.5786 8.92172 15 9.93913 15 11Z" fill="white"/>
<path d="M15 11C15 12.0609 14.5786 13.0783 13.8284 13.8284C13.0783 14.5786 12.0609 15 11 15C9.93913 15 8.92172 14.5786 8.17157 13.8284C7.42143 13.0783 7 12.0609 7 11C7 9.93913 7.42143 8.92172 8.17157 8.17157C8.92172 7.42143 9.93913 7 11 7C12.0609 7 13.0783 7.42143 13.8284 8.17157C14.5786 8.92172 15 9.93913 15 11Z" fill="white"/>
<path d="M15 11C15 12.0609 14.5786 13.0783 13.8284 13.8284C13.0783 14.5786 12.0609 15 11 15C9.93913 15 8.92172 14.5786 8.17157 13.8284C7.42143 13.0783 7 12.0609 7 11C7 9.93913 7.42143 8.92172 8.17157 8.17157C8.92172 7.42143 9.93913 7 11 7C12.0609 7 13.0783 7.42143 13.8284 8.17157C14.5786 8.92172 15 9.93913 15 11V11Z" stroke="white" stroke-width="2" stroke-linecap="round" stroke-linejoin="round"/>
</mask>
<g mask="url(#mask0_2_5684)">
<path d="M-1 -1H23V23H-1V-1Z" fill="#333333"/>
</g>
<path d="M20.1189 10.5199C20.1189 9.38526 19.883 8.26175 19.4247 7.2135C18.9664 6.16524 18.2946 5.21278 17.4477 4.41048C16.6008 3.60818 15.5955 2.97176 14.489 2.53756C13.3825 2.10336 12.1966 1.87988 10.9989 1.87988C9.80125 1.87988 8.61532 2.10336 7.50883 2.53756C6.40234 2.97176 5.39696 3.60818 4.55009 4.41048C3.70322 5.21278 3.03145 6.16525 2.57312 7.2135C2.1148 8.26175 1.87891 9.38526 1.87891 10.5199L6.16831 10.5199C6.16831 9.91891 6.29326 9.32382 6.53602 8.76859C6.77878 8.21336 7.1346 7.70887 7.58316 7.28391C8.03172 6.85896 8.56424 6.52187 9.15032 6.29188C9.73639 6.0619 10.3645 5.94353 10.9989 5.94353C11.6333 5.94353 12.2614 6.0619 12.8475 6.29188C13.4336 6.52187 13.9661 6.85896 14.4147 7.28391C14.8632 7.70887 15.219 8.21336 15.4618 8.76859C15.7046 9.32382 15.8295 9.91891 15.8295 10.5199H20.1189Z" fill="#F3E03B"/>
</svg>
