<svg width="23" height="20" viewBox="0 0 23 20" fill="none" xmlns="http://www.w3.org/2000/svg">
<rect x="7.66602" y="1" width="9.11116" height="6.88893" fill="#D9D9D9" stroke="url(#paint0_linear_2_4979)" stroke-width="2"/>
<rect x="18.5195" y="2.96094" width="4.44446" height="3.70372" fill="url(#paint1_linear_2_4979)"/>
<rect x="7.66602" y="12.1094" width="9.11116" height="6.88893" fill="#D9D9D9" stroke="url(#paint2_linear_2_4979)" stroke-width="2"/>
<rect x="18.5195" y="14.0742" width="4.44446" height="3.70372" fill="url(#paint3_linear_2_4979)"/>
<rect y="8.89062" width="2.22223" height="2.22223" fill="url(#paint4_linear_2_4979)"/>
<path d="M5.55664 4.44628C5.55664 4.44628 3.00487 4.00374 2.59367 5.9276C2.38204 6.91771 2.43719 13.4458 2.59367 14.4462C2.9541 16.7504 5.55664 16.2982 5.55664 16.2982" stroke="url(#paint5_linear_2_4979)" stroke-width="2"/>
<defs>
<linearGradient id="paint0_linear_2_4979" x1="12.2216" y1="0" x2="12.2216" y2="8.88893" gradientUnits="userSpaceOnUse">
<stop stop-color="#808080"/>
<stop offset="1" stop-color="#333333"/>
</linearGradient>
<linearGradient id="paint1_linear_2_4979" x1="20.7418" y1="2.96094" x2="20.7418" y2="6.66466" gradientUnits="userSpaceOnUse">
<stop stop-color="#808080"/>
<stop offset="1" stop-color="#333333"/>
</linearGradient>
<linearGradient id="paint2_linear_2_4979" x1="12.2216" y1="11.1094" x2="12.2216" y2="19.9983" gradientUnits="userSpaceOnUse">
<stop stop-color="#808080"/>
<stop offset="1" stop-color="#333333"/>
</linearGradient>
<linearGradient id="paint3_linear_2_4979" x1="20.7418" y1="14.0742" x2="20.7418" y2="17.7779" gradientUnits="userSpaceOnUse">
<stop stop-color="#808080"/>
<stop offset="1" stop-color="#333333"/>
</linearGradient>
<linearGradient id="paint4_linear_2_4979" x1="1.11112" y1="8.89062" x2="1.11112" y2="11.1129" gradientUnits="userSpaceOnUse">
<stop stop-color="#808080"/>
<stop offset="1" stop-color="#333333"/>
</linearGradient>
<linearGradient id="paint5_linear_2_4979" x1="5.55664" y1="10.3682" x2="2.45486" y2="10.3682" gradientUnits="userSpaceOnUse">
<stop stop-color="#808080"/>
<stop offset="1" stop-color="#333333"/>
</linearGradient>
</defs>
</svg>
