<svg width="21" height="20" viewBox="0 0 21 20" fill="none" xmlns="http://www.w3.org/2000/svg">
<path d="M11.4058 0L9.75492 0.948766L10.9029 2.93169L10.3432 5L7.68661 5.71158L6.14961 4.19355L6.18756 1.90702H4.29951V3.64326H2.55378L2.56327 5.5408H4.84031L6.40578 7.06831L5.6942 9.71537L3.58794 10.2657L1.60502 9.12713L0.65625 10.7685L2.1553 11.6319L1.29192 13.1309L2.94278 14.0797L4.07181 12.0968L6.18756 11.5465L6.66194 12.0304L7.99021 10.7021L7.47788 10.1898L8.18946 7.55218L10.8365 6.83112L11.3394 7.34345L12.6771 6.00569L12.1743 5.49336L12.734 3.42505L14.717 2.29602L13.7682 0.635674L12.2692 1.49905L11.4058 0ZM18.8062 2.29602L2.94278 18.1594L4.14771 19.3738L8.78718 14.7343C9.41193 15.1683 10.132 15.4453 10.8865 15.5419C11.641 15.6385 12.4077 15.5519 13.1216 15.2894C13.8356 15.0269 14.4757 14.5963 14.9879 14.0339C15.5002 13.4716 15.8693 12.7941 16.0642 12.0588C16.4342 10.7021 16.1591 9.27894 15.3811 8.14042L20.0206 3.50095L18.8062 2.29602ZM16.9276 7.03985C17.3451 7.63757 17.6771 8.34914 17.8859 9.11765C18.0946 9.88615 18.1515 10.6546 18.0851 11.4137L20.6373 8.37761L16.9276 7.03985ZM17.4779 13.6338C17.1743 14.3169 16.6999 14.962 16.1591 15.5218C15.5993 16.0816 14.9542 16.5275 14.29 16.8501L18.1705 17.5332L17.4779 13.6338ZM7.68661 16.2524L9.02437 20L12.0414 17.4288C11.3014 17.4763 10.5329 17.4478 9.76441 17.2486C8.97693 17.0398 8.27485 16.6888 7.68661 16.2524Z" fill="url(#paint0_linear_2_5704)"/>
<defs>
<linearGradient id="paint0_linear_2_5704" x1="7.80046" y1="10.9298" x2="8.71128" y2="11.8406" gradientUnits="userSpaceOnUse">
<stop stop-color="#333333"/>
<stop offset="1" stop-color="#F3E03B"/>
</linearGradient>
</defs>
</svg>
