<svg width="174" height="61" viewBox="0 0 174 61" fill="none" xmlns="http://www.w3.org/2000/svg">
<g filter="url(#filter0_ddd_2_5828)">
<path d="M69.8453 44.1115V33.8732H66.7878V44.1115H61.3741V33.8732H58.3447V46.7763H69.3123V49.4411H72.0893V44.1115H69.8453Z" fill="#808080"/>
<path d="M83.335 41.026H94.6673C94.7047 40.8577 94.7234 40.7081 94.7234 40.5772C94.7234 40.4276 94.7234 40.2967 94.7234 40.1845C94.7234 38.8194 94.4616 37.6506 93.938 36.6782C93.4144 35.6871 92.6664 34.9298 91.6939 34.4062C90.7402 33.8639 89.5995 33.5927 88.2718 33.5927C87.0563 33.5927 85.9811 33.8171 85.0461 34.2659C84.1111 34.7147 83.3537 35.3412 82.774 36.1453C82.213 36.9494 81.839 37.8844 81.652 38.9503C81.6146 39.1747 81.5865 39.3991 81.5678 39.6235C81.5491 39.8479 81.5398 40.0817 81.5398 40.3248C81.5398 41.6151 81.8109 42.7745 82.3532 43.803C82.8955 44.8128 83.6623 45.6075 84.6534 46.1872C85.6445 46.7669 86.8039 47.0568 88.1316 47.0568C89.3097 47.0568 90.2914 46.9165 91.0768 46.636C91.8809 46.3368 92.5541 45.9254 93.0965 45.4018C93.6575 44.8782 94.153 44.2705 94.5831 43.5786L91.9744 42.5127C91.7313 42.9241 91.4321 43.2887 91.0768 43.6066C90.7215 43.9058 90.3101 44.1396 89.8426 44.3079C89.3938 44.4762 88.8702 44.5603 88.2718 44.5603C87.5425 44.5603 86.8974 44.4107 86.3364 44.1115C85.7941 43.7936 85.364 43.3261 85.0461 42.709C84.7469 42.0732 84.5973 41.2785 84.5973 40.3248L84.6534 39.5394C84.6534 38.7913 84.8123 38.1462 85.1302 37.6039C85.4481 37.0429 85.8782 36.6221 86.4205 36.3416C86.9628 36.0424 87.5706 35.8928 88.2438 35.8928C88.8983 35.8928 89.4499 36.0237 89.8987 36.2855C90.3475 36.5286 90.6935 36.8839 90.9366 37.3514C91.1984 37.8002 91.3667 38.3332 91.4415 38.9503H83.335V41.026Z" fill="#808080"/>
<path d="M106.674 41.2224H116.548V38.7259H106.674V41.2224ZM114.921 33.8732V46.7763H117.895V33.8732H114.921ZM105.356 33.8732V46.7763H108.329V33.8732H105.356Z" fill="#808080"/>
<path d="M127.683 33.8732V36.538H135.846V33.8732H127.683ZM130.292 34.4342V46.7763H133.265V34.4342H130.292Z" fill="#808080"/>
<path d="M148.574 52.9473V33.8732H145.517V52.9473H148.574ZM159.261 40.3248C159.261 38.8849 158.971 37.66 158.392 36.6502C157.812 35.6404 157.045 34.8737 156.092 34.3501C155.138 33.8078 154.1 33.5366 152.978 33.5366C151.875 33.5366 150.912 33.8171 150.089 34.3781C149.285 34.9204 148.658 35.6965 148.21 36.7063C147.779 37.7161 147.564 38.9223 147.564 40.3248C147.564 41.7086 147.779 42.9147 148.21 43.9432C148.658 44.953 149.285 45.7384 150.089 46.2994C150.912 46.8417 151.875 47.1129 152.978 47.1129C154.1 47.1129 155.138 46.8511 156.092 46.3275C157.045 45.7852 157.812 45.0091 158.392 43.9993C158.971 42.9708 159.261 41.746 159.261 40.3248ZM156.12 40.3248C156.12 41.185 155.942 41.9236 155.587 42.5407C155.231 43.1391 154.755 43.5973 154.156 43.9152C153.576 44.2144 152.931 44.364 152.221 44.364C151.641 44.364 151.071 44.2144 150.51 43.9152C149.949 43.5973 149.481 43.1391 149.107 42.5407C148.752 41.9423 148.574 41.2037 148.574 40.3248C148.574 39.4459 148.752 38.7072 149.107 38.1088C149.481 37.5104 149.949 37.0616 150.51 36.7624C151.071 36.4445 151.641 36.2855 152.221 36.2855C152.931 36.2855 153.576 36.4445 154.156 36.7624C154.755 37.0616 155.231 37.5197 155.587 38.1368C155.942 38.7352 156.12 39.4646 156.12 40.3248Z" fill="#808080"/>
<path d="M61.6826 25.3691L72.5247 0.566907H80.7449L91.587 25.3691H82.9417L74.9341 4.53527H78.1938L70.1862 25.3691H61.6826ZM68.1312 21.0465L70.2571 15.0231H81.6661L83.792 21.0465H68.1312Z" fill="#333333"/>
<path d="M93.8763 25.3691V0.566907H106.455C109.525 0.566907 111.899 1.13382 113.576 2.26763C115.277 3.40145 116.127 4.99588 116.127 7.05092C116.127 9.05872 115.348 10.6532 113.789 11.8342C112.23 12.9916 110.128 13.5704 107.482 13.5704L108.191 11.6571C111.002 11.6571 113.21 12.2121 114.816 13.3223C116.423 14.4325 117.226 16.0506 117.226 18.1765C117.226 20.3733 116.352 22.1212 114.604 23.4204C112.856 24.7196 110.364 25.3691 107.128 25.3691H93.8763ZM102.096 19.5229H106.738C107.423 19.5229 107.931 19.3576 108.262 19.0269C108.616 18.6725 108.793 18.1765 108.793 17.5387C108.793 16.901 108.616 16.4285 108.262 16.1215C107.931 15.7908 107.423 15.6254 106.738 15.6254H102.096V19.5229ZM102.096 10.0981H105.64C106.348 10.0981 106.868 9.94452 107.199 9.63744C107.529 9.33037 107.695 8.88156 107.695 8.29103C107.695 7.67688 107.529 7.21627 107.199 6.90919C106.868 6.5785 106.348 6.41315 105.64 6.41315H102.096V10.0981Z" fill="#333333"/>
<path d="M125.496 25.3691V5.2439L127.303 7.05092H118.232V0.566907H140.979V7.05092H131.909L133.716 5.2439V25.3691H125.496Z" fill="#333333"/>
<path d="M156.004 25.9361C153.997 25.9361 152.131 25.6172 150.406 24.9794C148.706 24.3416 147.229 23.444 145.977 22.2866C144.725 21.1055 143.745 19.7237 143.036 18.1411C142.351 16.5584 142.009 14.8341 142.009 12.968C142.009 11.0783 142.351 9.35399 143.036 7.79499C143.745 6.21237 144.725 4.84234 145.977 3.6849C147.229 2.50384 148.706 1.59443 150.406 0.956658C152.131 0.318886 153.997 0 156.004 0C158.036 0 159.902 0.318886 161.603 0.956658C163.303 1.59443 164.78 2.50384 166.032 3.6849C167.284 4.84234 168.252 6.21237 168.937 7.79499C169.646 9.35399 170 11.0783 170 12.968C170 14.8341 169.646 16.5584 168.937 18.1411C168.252 19.7237 167.284 21.1055 166.032 22.2866C164.78 23.444 163.303 24.3416 161.603 24.9794C159.902 25.6172 158.036 25.9361 156.004 25.9361ZM156.004 19.1686C156.784 19.1686 157.504 19.0269 158.166 18.7434C158.851 18.4599 159.441 18.0584 159.937 17.5387C160.457 16.9954 160.859 16.3459 161.142 15.59C161.426 14.8105 161.567 13.9365 161.567 12.968C161.567 11.9996 161.426 11.1374 161.142 10.3815C160.859 9.60201 160.457 8.95243 159.937 8.43276C159.441 7.88947 158.851 7.4761 158.166 7.19265C157.504 6.90919 156.784 6.76747 156.004 6.76747C155.225 6.76747 154.493 6.90919 153.808 7.19265C153.146 7.4761 152.556 7.88947 152.036 8.43276C151.54 8.95243 151.15 9.60201 150.867 10.3815C150.583 11.1374 150.442 11.9996 150.442 12.968C150.442 13.9365 150.583 14.8105 150.867 15.59C151.15 16.3459 151.54 16.9954 152.036 17.5387C152.556 18.0584 153.146 18.4599 153.808 18.7434C154.493 19.0269 155.225 19.1686 156.004 19.1686Z" fill="#333333"/>
<path d="M21.676 13.9351H61.9234L57.2283 22.8835H17.9199L21.676 13.9351Z" fill="#F3E03B"/>
<path d="M27.3101 1.00977H68.6271L63.932 9.95812H23.5541L27.3101 1.00977Z" fill="#F3E03B"/>
<path d="M40.7876 31.8317C40.7876 41.7158 32.5524 49.7284 22.3938 49.7284C12.2352 49.7284 4 41.7158 4 31.8317C4 21.9477 12.2352 13.9351 22.3938 13.9351C32.5524 13.9351 40.7876 21.9477 40.7876 31.8317ZM14.9368 31.8317C14.9368 35.022 17.0987 39.7858 22.3938 39.7858C27.6889 39.7858 29.8507 35.022 29.8507 31.8317C29.8507 27.6471 28.6831 22.8834 22.3938 22.8834C17.0987 22.8834 14.9368 27.6471 14.9368 31.8317Z" fill="#F3E03B"/>
</g>
<defs>
<filter id="filter0_ddd_2_5828" x="0" y="0" width="174" height="60.9473" filterUnits="userSpaceOnUse" color-interpolation-filters="sRGB">
<feFlood flood-opacity="0" result="BackgroundImageFix"/>
<feColorMatrix in="SourceAlpha" type="matrix" values="0 0 0 0 0 0 0 0 0 0 0 0 0 0 0 0 0 0 127 0" result="hardAlpha"/>
<feOffset dy="4"/>
<feGaussianBlur stdDeviation="2"/>
<feComposite in2="hardAlpha" operator="out"/>
<feColorMatrix type="matrix" values="0 0 0 0 0 0 0 0 0 0 0 0 0 0 0 0 0 0 0.25 0"/>
<feBlend mode="normal" in2="BackgroundImageFix" result="effect1_dropShadow_2_5828"/>
<feColorMatrix in="SourceAlpha" type="matrix" values="0 0 0 0 0 0 0 0 0 0 0 0 0 0 0 0 0 0 127 0" result="hardAlpha"/>
<feOffset dy="4"/>
<feGaussianBlur stdDeviation="2"/>
<feComposite in2="hardAlpha" operator="out"/>
<feColorMatrix type="matrix" values="0 0 0 0 0 0 0 0 0 0 0 0 0 0 0 0 0 0 0.25 0"/>
<feBlend mode="normal" in2="effect1_dropShadow_2_5828" result="effect2_dropShadow_2_5828"/>
<feColorMatrix in="SourceAlpha" type="matrix" values="0 0 0 0 0 0 0 0 0 0 0 0 0 0 0 0 0 0 127 0" result="hardAlpha"/>
<feOffset dy="4"/>
<feGaussianBlur stdDeviation="2"/>
<feComposite in2="hardAlpha" operator="out"/>
<feColorMatrix type="matrix" values="0 0 0 0 0 0 0 0 0 0 0 0 0 0 0 0 0 0 0.25 0"/>
<feBlend mode="normal" in2="effect2_dropShadow_2_5828" result="effect3_dropShadow_2_5828"/>
<feBlend mode="normal" in="SourceGraphic" in2="effect3_dropShadow_2_5828" result="shape"/>
</filter>
</defs>
</svg>
