<svg width="166" height="53" viewBox="0 0 166 53" fill="none" xmlns="http://www.w3.org/2000/svg">
<path d="M65.8453 44.1115V33.8732H62.7878V44.1115H57.3741V33.8732H54.3447V46.7763H65.3123V49.4411H68.0893V44.1115H65.8453Z" fill="#808080"/>
<path d="M79.335 41.026H90.6673C90.7047 40.8577 90.7234 40.7081 90.7234 40.5772C90.7234 40.4276 90.7234 40.2967 90.7234 40.1845C90.7234 38.8194 90.4616 37.6506 89.938 36.6782C89.4144 35.6871 88.6664 34.9298 87.6939 34.4062C86.7402 33.8639 85.5995 33.5927 84.2718 33.5927C83.0563 33.5927 81.9811 33.8171 81.0461 34.2659C80.1111 34.7147 79.3537 35.3412 78.774 36.1453C78.213 36.9494 77.839 37.8844 77.652 38.9503C77.6146 39.1747 77.5865 39.3991 77.5678 39.6235C77.5491 39.8479 77.5398 40.0817 77.5398 40.3248C77.5398 41.6151 77.8109 42.7745 78.3532 43.803C78.8955 44.8128 79.6623 45.6075 80.6534 46.1872C81.6445 46.7669 82.8039 47.0568 84.1316 47.0568C85.3097 47.0568 86.2914 46.9165 87.0768 46.636C87.8809 46.3368 88.5541 45.9254 89.0965 45.4018C89.6575 44.8782 90.153 44.2705 90.5831 43.5786L87.9744 42.5127C87.7313 42.9241 87.4321 43.2887 87.0768 43.6066C86.7215 43.9058 86.3101 44.1396 85.8426 44.3079C85.3938 44.4762 84.8702 44.5603 84.2718 44.5603C83.5425 44.5603 82.8974 44.4107 82.3364 44.1115C81.7941 43.7936 81.364 43.3261 81.0461 42.709C80.7469 42.0732 80.5973 41.2785 80.5973 40.3248L80.6534 39.5394C80.6534 38.7913 80.8123 38.1462 81.1302 37.6039C81.4481 37.0429 81.8782 36.6221 82.4205 36.3416C82.9628 36.0424 83.5706 35.8928 84.2438 35.8928C84.8983 35.8928 85.4499 36.0237 85.8987 36.2855C86.3475 36.5286 86.6935 36.8839 86.9366 37.3514C87.1984 37.8002 87.3667 38.3332 87.4415 38.9503H79.335V41.026Z" fill="#808080"/>
<path d="M102.674 41.2224H112.548V38.7259H102.674V41.2224ZM110.921 33.8732V46.7763H113.895V33.8732H110.921ZM101.356 33.8732V46.7763H104.329V33.8732H101.356Z" fill="#808080"/>
<path d="M123.683 33.8732V36.538H131.846V33.8732H123.683ZM126.292 34.4342V46.7763H129.265V34.4342H126.292Z" fill="#808080"/>
<path d="M144.574 52.9473V33.8732H141.517V52.9473H144.574ZM155.261 40.3248C155.261 38.8849 154.971 37.66 154.392 36.6502C153.812 35.6404 153.045 34.8737 152.092 34.3501C151.138 33.8078 150.1 33.5366 148.978 33.5366C147.875 33.5366 146.912 33.8171 146.089 34.3781C145.285 34.9204 144.658 35.6965 144.21 36.7063C143.779 37.7161 143.564 38.9223 143.564 40.3248C143.564 41.7086 143.779 42.9147 144.21 43.9432C144.658 44.953 145.285 45.7384 146.089 46.2994C146.912 46.8417 147.875 47.1129 148.978 47.1129C150.1 47.1129 151.138 46.8511 152.092 46.3275C153.045 45.7852 153.812 45.0091 154.392 43.9993C154.971 42.9708 155.261 41.746 155.261 40.3248ZM152.12 40.3248C152.12 41.185 151.942 41.9236 151.587 42.5407C151.231 43.1391 150.755 43.5973 150.156 43.9152C149.576 44.2144 148.931 44.364 148.221 44.364C147.641 44.364 147.071 44.2144 146.51 43.9152C145.949 43.5973 145.481 43.1391 145.107 42.5407C144.752 41.9423 144.574 41.2037 144.574 40.3248C144.574 39.4459 144.752 38.7072 145.107 38.1088C145.481 37.5104 145.949 37.0616 146.51 36.7624C147.071 36.4445 147.641 36.2855 148.221 36.2855C148.931 36.2855 149.576 36.4445 150.156 36.7624C150.755 37.0616 151.231 37.5197 151.587 38.1368C151.942 38.7352 152.12 39.4646 152.12 40.3248Z" fill="#808080"/>
<path d="M57.6826 25.3691L68.5247 0.566907H76.7449L87.587 25.3691H78.9417L70.9341 4.53527H74.1938L66.1862 25.3691H57.6826ZM64.1312 21.0465L66.2571 15.0231H77.6661L79.792 21.0465H64.1312Z" fill="#333333"/>
<path d="M89.8763 25.3691V0.566907H102.455C105.525 0.566907 107.899 1.13382 109.576 2.26763C111.277 3.40145 112.127 4.99588 112.127 7.05092C112.127 9.05872 111.348 10.6532 109.789 11.8342C108.23 12.9916 106.128 13.5704 103.482 13.5704L104.191 11.6571C107.002 11.6571 109.21 12.2121 110.816 13.3223C112.423 14.4325 113.226 16.0506 113.226 18.1765C113.226 20.3733 112.352 22.1212 110.604 23.4204C108.856 24.7196 106.364 25.3691 103.128 25.3691H89.8763ZM98.0964 19.5229H102.738C103.423 19.5229 103.931 19.3576 104.262 19.0269C104.616 18.6725 104.793 18.1765 104.793 17.5387C104.793 16.901 104.616 16.4285 104.262 16.1215C103.931 15.7908 103.423 15.6254 102.738 15.6254H98.0964V19.5229ZM98.0964 10.0981H101.64C102.348 10.0981 102.868 9.94452 103.199 9.63744C103.529 9.33037 103.695 8.88156 103.695 8.29103C103.695 7.67688 103.529 7.21627 103.199 6.90919C102.868 6.5785 102.348 6.41315 101.64 6.41315H98.0964V10.0981Z" fill="#333333"/>
<path d="M121.496 25.3691V5.2439L123.303 7.05092H114.232V0.566907H136.979V7.05092H127.909L129.716 5.2439V25.3691H121.496Z" fill="#333333"/>
<path d="M152.004 25.9361C149.997 25.9361 148.131 25.6172 146.406 24.9794C144.706 24.3416 143.229 23.444 141.977 22.2866C140.725 21.1055 139.745 19.7237 139.036 18.1411C138.351 16.5584 138.009 14.8341 138.009 12.968C138.009 11.0783 138.351 9.35399 139.036 7.79499C139.745 6.21237 140.725 4.84234 141.977 3.6849C143.229 2.50384 144.706 1.59443 146.406 0.956658C148.131 0.318886 149.997 0 152.004 0C154.036 0 155.902 0.318886 157.603 0.956658C159.303 1.59443 160.78 2.50384 162.032 3.6849C163.284 4.84234 164.252 6.21237 164.937 7.79499C165.646 9.35399 166 11.0783 166 12.968C166 14.8341 165.646 16.5584 164.937 18.1411C164.252 19.7237 163.284 21.1055 162.032 22.2866C160.78 23.444 159.303 24.3416 157.603 24.9794C155.902 25.6172 154.036 25.9361 152.004 25.9361ZM152.004 19.1686C152.784 19.1686 153.504 19.0269 154.166 18.7434C154.851 18.4599 155.441 18.0584 155.937 17.5387C156.457 16.9954 156.859 16.3459 157.142 15.59C157.426 14.8105 157.567 13.9365 157.567 12.968C157.567 11.9996 157.426 11.1374 157.142 10.3815C156.859 9.60201 156.457 8.95243 155.937 8.43276C155.441 7.88947 154.851 7.4761 154.166 7.19265C153.504 6.90919 152.784 6.76747 152.004 6.76747C151.225 6.76747 150.493 6.90919 149.808 7.19265C149.146 7.4761 148.556 7.88947 148.036 8.43276C147.54 8.95243 147.15 9.60201 146.867 10.3815C146.583 11.1374 146.442 11.9996 146.442 12.968C146.442 13.9365 146.583 14.8105 146.867 15.59C147.15 16.3459 147.54 16.9954 148.036 17.5387C148.556 18.0584 149.146 18.4599 149.808 18.7434C150.493 19.0269 151.225 19.1686 152.004 19.1686Z" fill="#333333"/>
<path d="M17.676 13.9351H57.9234L53.2283 22.8835H13.9199L17.676 13.9351Z" fill="#F3E03B"/>
<path d="M23.3101 1.00977H64.6271L59.932 9.95812H19.5541L23.3101 1.00977Z" fill="#F3E03B"/>
<path d="M36.7876 31.8317C36.7876 41.7158 28.5524 49.7284 18.3938 49.7284C8.23518 49.7284 0 41.7158 0 31.8317C0 21.9477 8.23518 13.9351 18.3938 13.9351C28.5524 13.9351 36.7876 21.9477 36.7876 31.8317ZM10.9368 31.8317C10.9368 35.022 13.0987 39.7858 18.3938 39.7858C23.6889 39.7858 25.8507 35.022 25.8507 31.8317C25.8507 27.6471 24.6831 22.8834 18.3938 22.8834C13.0987 22.8834 10.9368 27.6471 10.9368 31.8317Z" fill="#F3E03B"/>
</svg>
