<svg width="132" height="42" viewBox="0 0 132 42" fill="none" xmlns="http://www.w3.org/2000/svg">
<path d="M52.2317 34.991V26.8695H49.8063V34.991H45.512V26.8695H43.1089V37.1049H51.8089V39.2187H54.0117V34.991H52.2317Z" fill="#808080"/>
<path d="M62.9323 32.5435H71.9216C71.9513 32.41 71.9661 32.2913 71.9661 32.1875C71.9661 32.0688 71.9661 31.965 71.9661 31.8759C71.9661 30.7931 71.7584 29.866 71.3431 29.0946C70.9277 28.3084 70.3344 27.7077 69.563 27.2923C68.8065 26.8621 67.9016 26.647 66.8484 26.647C65.8843 26.647 65.0313 26.825 64.2896 27.1811C63.5479 27.5371 62.9472 28.034 62.4873 28.6719C62.0423 29.3097 61.7456 30.0514 61.5973 30.8969C61.5676 31.0749 61.5454 31.2529 61.5305 31.4309C61.5157 31.6089 61.5083 31.7944 61.5083 31.9872C61.5083 33.0107 61.7234 33.9304 62.1536 34.7463C62.5837 35.5473 63.1919 36.1777 63.9781 36.6376C64.7643 37.0974 65.684 37.3274 66.7372 37.3274C67.6717 37.3274 68.4505 37.2161 69.0735 36.9936C69.7114 36.7563 70.2454 36.4299 70.6756 36.0146C71.1206 35.5992 71.5137 35.1171 71.8548 34.5683L69.7855 33.7228C69.5927 34.0491 69.3554 34.3384 69.0735 34.5905C68.7917 34.8279 68.4653 35.0133 68.0945 35.1468C67.7385 35.2803 67.3231 35.3471 66.8484 35.3471C66.2699 35.3471 65.7582 35.2284 65.3131 34.991C64.883 34.7389 64.5418 34.368 64.2896 33.8785C64.0523 33.3742 63.9336 32.7437 63.9336 31.9872L63.9781 31.3642C63.9781 30.7708 64.1042 30.2591 64.3564 29.8289C64.6085 29.3839 64.9497 29.0501 65.3799 28.8276C65.8101 28.5903 66.2922 28.4716 66.8262 28.4716C67.3454 28.4716 67.783 28.5754 68.139 28.7831C68.495 28.9759 68.7694 29.2578 68.9623 29.6286C69.1699 29.9846 69.3034 30.4074 69.3628 30.8969H62.9323V32.5435Z" fill="#808080"/>
<path d="M81.4463 32.6992H89.2785V30.7189H81.4463V32.6992ZM87.988 26.8695V37.1049H90.3465V26.8695H87.988ZM80.4005 26.8695V37.1049H82.7591V26.8695H80.4005Z" fill="#808080"/>
<path d="M98.1112 26.8695V28.9834H104.586V26.8695H98.1112ZM100.18 27.3146V37.1049H102.539V27.3146H100.18Z" fill="#808080"/>
<path d="M114.683 42V26.8695H112.258V42H114.683ZM123.161 31.9872C123.161 30.845 122.931 29.8734 122.471 29.0724C122.011 28.2713 121.403 27.6632 120.646 27.2478C119.89 26.8176 119.066 26.6025 118.176 26.6025C117.301 26.6025 116.537 26.825 115.885 27.2701C115.247 27.7002 114.75 28.3158 114.394 29.1169C114.053 29.9179 113.882 30.8747 113.882 31.9872C113.882 33.0849 114.053 34.0417 114.394 34.8575C114.75 35.6586 115.247 36.2816 115.885 36.7266C116.537 37.1568 117.301 37.3719 118.176 37.3719C119.066 37.3719 119.89 37.1642 120.646 36.7488C121.403 36.3187 122.011 35.7031 122.471 34.902C122.931 34.0862 123.161 33.1146 123.161 31.9872ZM120.668 31.9872C120.668 32.6696 120.528 33.2555 120.246 33.745C119.964 34.2197 119.586 34.5831 119.111 34.8353C118.651 35.0726 118.139 35.1913 117.576 35.1913C117.116 35.1913 116.663 35.0726 116.218 34.8353C115.773 34.5831 115.402 34.2197 115.106 33.745C114.824 33.2703 114.683 32.6844 114.683 31.9872C114.683 31.29 114.824 30.7041 115.106 30.2294C115.402 29.7547 115.773 29.3987 116.218 29.1614C116.663 28.9092 117.116 28.7831 117.576 28.7831C118.139 28.7831 118.651 28.9092 119.111 29.1614C119.586 29.3987 119.964 29.7621 120.246 30.2517C120.528 30.7263 120.668 31.3048 120.668 31.9872Z" fill="#808080"/>
<path d="M45.7559 20.124L54.3563 0.449697H60.877L69.4774 20.124H62.6195L56.2675 3.59758H58.8533L52.5013 20.124H45.7559ZM50.8712 16.695L52.5575 11.917H61.6077L63.2941 16.695H50.8712Z" fill="#424242"/>
<path d="M71.2933 20.124V0.449697H81.271C83.7069 0.449697 85.59 0.899395 86.9203 1.79879C88.2694 2.69819 88.944 3.96296 88.944 5.59312C88.944 7.1858 88.3257 8.45057 87.089 9.38744C85.8523 10.3056 84.1847 10.7646 82.0861 10.7646L82.6482 9.24691C84.878 9.24691 86.6299 9.68724 87.9041 10.5679C89.1782 11.4486 89.8153 12.7321 89.8153 14.4184C89.8153 16.161 89.122 17.5476 87.7354 18.5781C86.3489 19.6087 84.3721 20.124 81.805 20.124H71.2933ZM77.814 15.4865H81.4959C82.0392 15.4865 82.4421 15.3553 82.7044 15.093C82.9855 14.8119 83.126 14.4184 83.126 13.9125C83.126 13.4066 82.9855 13.0319 82.7044 12.7883C82.4421 12.526 82.0392 12.3948 81.4959 12.3948H77.814V15.4865ZM77.814 8.01024H80.6246C81.1867 8.01024 81.5989 7.88845 81.8612 7.64486C82.1236 7.40128 82.2547 7.04527 82.2547 6.57683C82.2547 6.08966 82.1236 5.72428 81.8612 5.48069C81.5989 5.21837 81.1867 5.08721 80.6246 5.08721H77.814V8.01024Z" fill="#424242"/>
<path d="M96.3752 20.124V4.15971L97.8086 5.59312H90.6134V0.449697H108.658V5.59312H101.462L102.896 4.15971V20.124H96.3752Z" fill="#424242"/>
<path d="M120.576 20.5737C118.984 20.5737 117.503 20.3207 116.136 19.8148C114.786 19.3089 113.615 18.5969 112.622 17.6787C111.629 16.7419 110.852 15.6457 110.289 14.3903C109.746 13.1349 109.474 11.7671 109.474 10.2868C109.474 8.78785 109.746 7.42002 110.289 6.18335C110.852 4.92794 111.629 3.84117 112.622 2.92303C113.615 1.98616 114.786 1.26477 116.136 0.758865C117.503 0.252955 118.984 0 120.576 0C122.188 0 123.668 0.252955 125.017 0.758865C126.366 1.26477 127.537 1.98616 128.53 2.92303C129.523 3.84117 130.292 4.92794 130.835 6.18335C131.397 7.42002 131.678 8.78785 131.678 10.2868C131.678 11.7671 131.397 13.1349 130.835 14.3903C130.292 15.6457 129.523 16.7419 128.53 17.6787C127.537 18.5969 126.366 19.3089 125.017 19.8148C123.668 20.3207 122.188 20.5737 120.576 20.5737ZM120.576 15.2054C121.195 15.2054 121.766 15.093 122.291 14.8681C122.834 14.6433 123.303 14.3247 123.696 13.9125C124.108 13.4816 124.427 12.9663 124.652 12.3667C124.877 11.7484 124.989 11.0551 124.989 10.2868C124.989 9.51861 124.877 8.83469 124.652 8.23509C124.427 7.61676 124.108 7.10148 123.696 6.68926C123.303 6.2583 122.834 5.93039 122.291 5.70554C121.766 5.48069 121.195 5.36827 120.576 5.36827C119.958 5.36827 119.377 5.48069 118.834 5.70554C118.309 5.93039 117.841 6.2583 117.428 6.68926C117.035 7.10148 116.726 7.61676 116.501 8.23509C116.276 8.83469 116.164 9.51861 116.164 10.2868C116.164 11.0551 116.276 11.7484 116.501 12.3667C116.726 12.9663 117.035 13.4816 117.428 13.9125C117.841 14.3247 118.309 14.6433 118.834 14.8681C119.377 15.093 119.958 15.2054 120.576 15.2054Z" fill="#424242"/>
<path d="M14.021 11.0538H45.9471L42.2227 18.152H11.0415L14.021 11.0538Z" fill="#F3E03B"/>
<path d="M18.4903 0.800781H51.2648L47.5404 7.89903H15.5108L18.4903 0.800781Z" fill="#F3E03B"/>
<path d="M29.1816 25.2502C29.1816 33.0907 22.6491 39.4466 14.5908 39.4466C6.53253 39.4466 0 33.0907 0 25.2502C0 17.4097 6.53253 11.0537 14.5908 11.0537C22.6491 11.0537 29.1816 17.4097 29.1816 25.2502ZM8.67561 25.2502C8.67561 27.7809 10.3905 31.5597 14.5908 31.5597C18.7911 31.5597 20.506 27.7809 20.506 25.2502C20.506 21.9308 19.5798 18.1519 14.5908 18.1519C10.3905 18.1519 8.67561 21.9308 8.67561 25.2502Z" fill="#F3E03B"/>
</svg>
