<svg width="16" height="16" viewBox="0 0 16 16" fill="none" xmlns="http://www.w3.org/2000/svg">
<ellipse cx="7.93725" cy="8.70602" rx="7.93725" ry="7.15909" fill="#D9D9D9"/>
<g clip-path="url(#clip0_2_8140)">
<path d="M9.37465 3.67761C9.37465 4.90855 9.08965 6.02886 8.62465 6.86511C8.42776 6.71681 8.20345 6.60897 7.96466 6.54783C7.72587 6.48668 7.47733 6.47344 7.2334 6.50886C6.9709 5.58824 6.38027 4.59636 5.51027 3.72542C5.36257 3.57747 5.20901 3.43548 5.04996 3.2998C5.81361 2.93016 6.65124 2.73878 7.49965 2.74011C8.14746 2.74011 8.76996 2.8498 9.34934 3.05136C9.36621 3.25667 9.37465 3.46574 9.37465 3.67761ZM9.37465 8.36511C9.37465 8.43355 9.3709 8.50199 9.3634 8.56855C10.3178 8.55074 11.4259 8.23761 12.4862 7.62542C12.6688 7.51982 12.8471 7.40692 13.0206 7.28699C12.7351 5.8256 11.8823 4.53686 10.6487 3.70292C10.6107 3.90451 10.5653 4.10464 10.5128 4.30292C10.194 5.49261 9.62777 6.5023 8.96027 7.18949C9.21996 7.51105 9.37465 7.92074 9.37465 8.36511ZM9.24621 9.04761C9.15575 9.27845 9.02056 9.48914 8.84841 9.66757C8.67626 9.846 8.47054 9.98864 8.24309 10.0873C8.73527 10.9029 9.56027 11.7045 10.6196 12.3157C10.8071 12.4245 10.9965 12.5239 11.1868 12.6129C11.7457 12.129 12.2034 11.5393 12.5337 10.8779C12.864 10.2165 13.0604 9.49638 13.1115 8.75886C12.9165 8.8273 12.7168 8.89011 12.5106 8.94542C11.3256 9.26324 10.1734 9.27917 9.24621 9.04855V9.04761ZM7.49965 10.2401C7.07777 10.2401 6.68777 10.1004 6.37465 9.86511C5.91152 10.6995 5.6284 11.817 5.6284 13.0442C5.6284 13.2598 5.63777 13.4726 5.65371 13.6798C6.24733 13.8858 6.87131 13.9907 7.49965 13.9901C8.3809 13.9901 9.21527 13.7876 9.95871 13.4257C9.79767 13.289 9.64223 13.1457 9.49277 12.9964C8.62559 12.1282 8.03496 11.1392 7.77152 10.2214C7.6834 10.2335 7.59246 10.2401 7.49965 10.2401ZM5.62465 8.36511C5.62465 8.29011 5.62934 8.21511 5.63777 8.14105C4.68152 8.15699 3.57059 8.47011 2.50652 9.08511C2.32459 9.19012 2.14694 9.3024 1.97402 9.42167C2.11292 10.1476 2.39346 10.8391 2.79963 11.4567C3.2058 12.0742 3.72963 12.6057 4.34121 13.0207C4.37928 12.8149 4.42556 12.6107 4.47996 12.4085C4.79871 11.2207 5.36121 10.2129 6.02684 9.52574C5.76547 9.19542 5.62371 8.78632 5.62465 8.36511ZM2.48684 7.77261C3.67465 7.45386 4.82871 7.4398 5.75684 7.6723C5.94059 7.20917 6.3034 6.83792 6.75996 6.64105C6.26871 5.82167 5.44184 5.01636 4.37777 4.4023C4.19614 4.29739 4.01036 4.19981 3.8209 4.1098C3.26141 4.59268 2.8028 5.18131 2.47139 5.84189C2.13997 6.50247 1.94228 7.222 1.88965 7.95917C2.08277 7.8898 2.28152 7.82792 2.48684 7.77261ZM7.49965 9.30261C7.74829 9.30261 7.98675 9.20384 8.16256 9.02802C8.33838 8.85221 8.43715 8.61375 8.43715 8.36511C8.43715 8.11647 8.33838 7.87801 8.16256 7.7022C7.98675 7.52638 7.74829 7.42761 7.49965 7.42761C7.25101 7.42761 7.01255 7.52638 6.83674 7.7022C6.66092 7.87801 6.56215 8.11647 6.56215 8.36511C6.56215 8.61375 6.66092 8.85221 6.83674 9.02802C7.01255 9.20384 7.25101 9.30261 7.49965 9.30261Z" fill="url(#paint0_linear_2_8140)"/>
<path d="M7.5 14.9276C5.75952 14.9276 4.09032 14.2362 2.85961 13.0055C1.6289 11.7748 0.9375 10.1056 0.9375 8.36511C0.9375 6.62463 1.6289 4.95543 2.85961 3.72472C4.09032 2.49402 5.75952 1.80261 7.5 1.80261C9.24048 1.80261 10.9097 2.49402 12.1404 3.72472C13.3711 4.95543 14.0625 6.62463 14.0625 8.36511C14.0625 10.1056 13.3711 11.7748 12.1404 13.0055C10.9097 14.2362 9.24048 14.9276 7.5 14.9276ZM7.5 15.8651C9.48912 15.8651 11.3968 15.0749 12.8033 13.6684C14.2098 12.2619 15 10.3542 15 8.36511C15 6.37599 14.2098 4.46833 12.8033 3.06181C11.3968 1.65529 9.48912 0.865112 7.5 0.865112C5.51088 0.865112 3.60322 1.65529 2.1967 3.06181C0.790176 4.46833 0 6.37599 0 8.36511C0 10.3542 0.790176 12.2619 2.1967 13.6684C3.60322 15.0749 5.51088 15.8651 7.5 15.8651Z" fill="url(#paint1_linear_2_8140)"/>
</g>
<defs>
<linearGradient id="paint0_linear_2_8140" x1="7.50059" y1="2.7401" x2="7.50059" y2="13.9901" gradientUnits="userSpaceOnUse">
<stop offset="1" stop-color="#333333"/>
</linearGradient>
<linearGradient id="paint1_linear_2_8140" x1="7.5" y1="0.865112" x2="7.5" y2="15.8651" gradientUnits="userSpaceOnUse">
<stop offset="1" stop-color="#333333"/>
</linearGradient>
<clipPath id="clip0_2_8140">
<rect width="15" height="15" fill="white" transform="translate(0 0.865112)"/>
</clipPath>
</defs>
</svg>
