<svg width="17" height="16" viewBox="0 0 17 16" fill="none" xmlns="http://www.w3.org/2000/svg">
<g clip-path="url(#clip0_2_8077)">
<ellipse cx="3.32562" cy="13.2401" rx="2.49457" ry="2.625" fill="#D9D9D9"/>
<ellipse rx="2.90458" ry="1.17038" transform="matrix(0.815095 0.579328 -0.657932 0.753078 12.8035 12.4292)" fill="#D9D9D9"/>
<path d="M1.0394 0.86511L0 1.80261L2.28669 4.69105C2.38295 4.81268 2.51006 4.9118 2.65742 4.98013C2.80478 5.04846 2.96811 5.08402 3.1338 5.08386H3.20656C3.34322 5.08376 3.47856 5.10798 3.60483 5.15511C3.7311 5.20224 3.84583 5.27138 3.94245 5.35855L6.72285 7.86636L4.00274 10.3545C3.5375 10.231 3.04674 10.2069 2.5694 10.2843C2.09206 10.3616 1.64127 10.5382 1.25279 10.8001C0.86431 11.062 0.548826 11.4019 0.331365 11.7929C0.113904 12.1839 0.000449231 12.6152 0 13.0526C0.000623083 13.4557 0.0972919 13.8539 0.283457 14.2203C0.469622 14.5868 0.740934 14.9128 1.07901 15.1764C1.41709 15.44 1.81403 15.635 2.24294 15.7481C2.67186 15.8613 3.12272 15.8899 3.56499 15.8322C4.00726 15.7744 4.4306 15.6316 4.80633 15.4134C5.18206 15.1952 5.50139 14.9067 5.74271 14.5674C5.98402 14.2282 6.14166 13.8461 6.20497 13.4471C6.26827 13.0481 6.23575 12.6415 6.10961 12.2548L8.86818 9.80136L9.87432 10.7089L9.5573 11.5657C9.49639 11.7309 9.48765 11.9081 9.53208 12.0775C9.5765 12.2469 9.67234 12.4018 9.80884 12.5248L13.2077 15.5904C13.304 15.6778 13.4185 15.7471 13.5446 15.7944C13.6707 15.8417 13.806 15.8661 13.9425 15.8661C14.0791 15.8661 14.2144 15.8417 14.3405 15.7944C14.4666 15.7471 14.5811 15.6778 14.6774 15.5904L16.3259 14.1035C16.4227 14.0167 16.4996 13.9134 16.5521 13.7997C16.6045 13.6859 16.6315 13.5639 16.6315 13.4407C16.6315 13.3175 16.6045 13.1956 16.5521 13.0818C16.4996 12.9681 16.4227 12.8648 16.3259 12.7779L12.927 9.7123C12.7906 9.58918 12.6189 9.50274 12.4311 9.46267C12.2433 9.4226 12.0469 9.43048 11.8637 9.48542L10.9137 9.77136L9.9159 8.87136L12.7015 6.39355C13.1636 6.50481 13.6479 6.51886 14.1169 6.43462C14.586 6.35038 15.0274 6.17011 15.407 5.90769C15.7866 5.64527 16.0944 5.30773 16.3065 4.92108C16.5186 4.53443 16.6294 4.109 16.6304 3.67761C16.6304 3.42542 16.5941 3.18074 16.5244 2.94917L14.3001 4.95636L12.4728 4.61511L12.0945 2.96792L14.3198 0.960735C13.7905 0.832355 13.2329 0.832115 12.7034 0.96004C12.1739 1.08797 11.6911 1.33953 11.3038 1.68939C10.9164 2.03924 10.6382 2.47502 10.4971 2.95279C10.356 3.43056 10.357 3.93344 10.5 4.41074L7.75602 6.92136L4.98186 4.42105C4.78692 4.24527 4.67737 4.00686 4.67731 3.75824V3.69167C4.67733 3.54239 4.63782 3.39525 4.56206 3.26252C4.48631 3.12978 4.37651 3.01528 4.2418 2.92855L1.0394 0.86511ZM11.0655 10.8457C11.1138 10.8021 11.1711 10.7674 11.2342 10.7438C11.2974 10.7202 11.3651 10.708 11.4334 10.708C11.5018 10.708 11.5695 10.7202 11.6326 10.7438C11.6957 10.7674 11.7531 10.8021 11.8014 10.8457L14.8302 13.5785C14.9249 13.667 14.9772 13.7854 14.9761 13.9083C14.9749 14.0312 14.9202 14.1487 14.8239 14.2357C14.7275 14.3226 14.5972 14.3719 14.4609 14.3729C14.3246 14.374 14.1934 14.3267 14.0953 14.2414L11.0655 11.5095C11.0171 11.4659 10.9787 11.4142 10.9525 11.3573C10.9263 11.3003 10.9128 11.2393 10.9128 11.1776C10.9128 11.116 10.9263 11.0549 10.9525 10.998C10.9787 10.941 11.0171 10.8893 11.0655 10.8457ZM3.11821 11.1776L3.60777 11.4045L4.15761 11.4289L4.45592 11.846L4.91845 12.1151L4.94548 12.611L5.19701 13.0526L4.94548 13.4942L4.91845 13.9901L4.45592 14.2592L4.15761 14.6764L3.60777 14.7007L3.11821 14.9276L2.62865 14.7007L2.0788 14.6764L1.7805 14.2592L1.31796 13.9901L1.29094 13.4942L1.0394 13.0526L1.29094 12.611L1.31796 12.1151L1.7805 11.846L2.0788 11.4289L2.62865 11.4045L3.11821 11.1776Z" fill="url(#paint0_linear_2_8077)"/>
</g>
<defs>
<linearGradient id="paint0_linear_2_8077" x1="8.31522" y1="8.36574" x2="10.5186" y2="11.2158" gradientUnits="userSpaceOnUse">
<stop stop-color="#333333"/>
<stop offset="1" stop-color="#808080"/>
</linearGradient>
<clipPath id="clip0_2_8077">
<rect width="16.6304" height="15" fill="white" transform="translate(0 0.865112)"/>
</clipPath>
</defs>
</svg>
