<svg width="17" height="19" viewBox="0 0 17 19" fill="none" xmlns="http://www.w3.org/2000/svg">
<path d="M7.74989 16.8651C-7.43736 8.99011 7.74989 1.86511 7.74989 1.86511C7.74989 1.86511 9.09344 6.63269 9.04104 9.74011C8.99352 12.558 7.74989 16.8651 7.74989 16.8651Z" stroke="url(#paint0_linear_2_8122)" stroke-width="2"/>
<path d="M6.49487 12.9521C-0.0853827 8.84337 6.49487 5.12598 6.49487 5.12598C6.49487 5.12598 6.86044 7.50558 6.86044 9.03902C6.86044 10.5725 6.49487 12.9521 6.49487 12.9521Z" fill="#D9D9D9" stroke="#D9D9D9"/>
<path d="M14.5375 7.43036C15.0898 7.43036 15.5375 6.98264 15.5375 6.43036C15.5375 5.87807 15.0898 5.43036 14.5375 5.43036V7.43036ZM10.8818 7.43036H14.5375V5.43036H10.8818V7.43036Z" fill="url(#paint1_linear_2_8122)"/>
<path d="M16.0001 10.039C16.5524 10.039 17.0001 9.59132 17.0001 9.03903C17.0001 8.48675 16.5524 8.03903 16.0001 8.03903V10.039ZM11.6133 10.039H16.0001V8.03903H11.6133V10.039Z" fill="url(#paint2_linear_2_8122)"/>
<path d="M14.5375 12.6478C15.0898 12.6478 15.5375 12.2 15.5375 11.6478C15.5375 11.0955 15.0898 10.6478 14.5375 10.6478V12.6478ZM10.8818 12.6478H14.5375V10.6478H10.8818V12.6478Z" fill="url(#paint3_linear_2_8122)"/>
<defs>
<linearGradient id="paint0_linear_2_8122" x1="5.02127" y1="1.86511" x2="5.02127" y2="16.8651" gradientUnits="userSpaceOnUse">
<stop offset="1" stop-color="#333333"/>
</linearGradient>
<linearGradient id="paint1_linear_2_8122" x1="12.7097" y1="6.43036" x2="12.7097" y2="7.43036" gradientUnits="userSpaceOnUse">
<stop offset="1" stop-color="#333333"/>
</linearGradient>
<linearGradient id="paint2_linear_2_8122" x1="13.8067" y1="9.03903" x2="13.8067" y2="10.039" gradientUnits="userSpaceOnUse">
<stop offset="1" stop-color="#333333"/>
</linearGradient>
<linearGradient id="paint3_linear_2_8122" x1="12.7097" y1="11.6478" x2="12.7097" y2="12.6478" gradientUnits="userSpaceOnUse">
<stop offset="1" stop-color="#333333"/>
</linearGradient>
</defs>
</svg>
