<svg width="20" height="16" viewBox="0 0 20 16" fill="none" xmlns="http://www.w3.org/2000/svg">
<rect x="6.54297" y="1.86511" width="7.23917" height="4.6667" fill="#D9D9D9" stroke="url(#paint0_linear_2_8153)" stroke-width="2"/>
<rect x="15.3994" y="3.08731" width="3.69567" height="2.77779" fill="url(#paint1_linear_2_8153)"/>
<rect x="6.54297" y="10.1982" width="7.23917" height="4.6667" fill="#D9D9D9" stroke="url(#paint2_linear_2_8153)" stroke-width="2"/>
<rect x="15.3994" y="11.4208" width="3.69567" height="2.77779" fill="url(#paint3_linear_2_8153)"/>
<rect y="7.5323" width="1.84783" height="1.66667" fill="url(#paint4_linear_2_8153)"/>
<path d="M4.62012 4.19872C4.62012 4.19872 2.49826 3.86682 2.15634 5.30971C1.98037 6.05229 2.02623 10.9484 2.15634 11.6986C2.45605 13.4268 4.62012 13.0877 4.62012 13.0877" stroke="url(#paint5_linear_2_8153)" stroke-width="2"/>
<defs>
<linearGradient id="paint0_linear_2_8153" x1="10.1626" y1="0.865112" x2="10.1626" y2="7.53181" gradientUnits="userSpaceOnUse">
<stop offset="1" stop-color="#333333"/>
</linearGradient>
<linearGradient id="paint1_linear_2_8153" x1="17.2472" y1="3.08731" x2="17.2472" y2="5.8651" gradientUnits="userSpaceOnUse">
<stop offset="1" stop-color="#333333"/>
</linearGradient>
<linearGradient id="paint2_linear_2_8153" x1="10.1626" y1="9.19824" x2="10.1626" y2="15.8649" gradientUnits="userSpaceOnUse">
<stop offset="1" stop-color="#333333"/>
</linearGradient>
<linearGradient id="paint3_linear_2_8153" x1="17.2472" y1="11.4208" x2="17.2472" y2="14.1986" gradientUnits="userSpaceOnUse">
<stop offset="1" stop-color="#333333"/>
</linearGradient>
<linearGradient id="paint4_linear_2_8153" x1="0.923917" y1="7.5323" x2="0.923917" y2="9.19898" gradientUnits="userSpaceOnUse">
<stop offset="1" stop-color="#333333"/>
</linearGradient>
<linearGradient id="paint5_linear_2_8153" x1="4.62012" y1="8.64018" x2="2.04092" y2="8.64018" gradientUnits="userSpaceOnUse">
<stop offset="1" stop-color="#333333"/>
</linearGradient>
</defs>
</svg>
