<svg width="11" height="15" viewBox="0 0 11 15" fill="none" xmlns="http://www.w3.org/2000/svg">
<path d="M10.8696 10.098C10.8696 12.8053 8.43633 15 5.43478 15C2.43324 15 0 12.8053 0 10.098C0 7.39076 5.43478 0 5.43478 0C5.43478 0 10.8696 7.39076 10.8696 10.098Z" fill="url(#paint0_linear_2_8117)"/>
<path d="M9.56556 9.48643C9.56556 11.5567 7.7163 13.235 5.43512 13.235C3.15395 13.235 1.30469 11.5567 1.30469 9.48643C1.30469 7.41616 5.43512 1.7644 5.43512 1.7644C5.43512 1.7644 9.56556 7.41616 9.56556 9.48643Z" fill="white"/>
<path d="M8.69654 9.11121C8.69654 10.7391 7.2366 12.0588 5.43567 12.0588C3.63475 12.0588 2.1748 10.7391 2.1748 9.11121C2.1748 7.4833 5.43567 3.03918 5.43567 3.03918C5.43567 3.03918 8.69654 7.4833 8.69654 9.11121Z" fill="#D9D9D9"/>
<defs>
<linearGradient id="paint0_linear_2_8117" x1="5.43478" y1="0" x2="5.43478" y2="15" gradientUnits="userSpaceOnUse">
<stop offset="1" stop-color="#333333"/>
</linearGradient>
</defs>
</svg>
