<svg width="15" height="15" viewBox="0 0 15 15" fill="none" xmlns="http://www.w3.org/2000/svg">
<ellipse cx="7.49982" cy="7.50007" rx="6.81818" ry="6.81818" fill="#D9D9D9"/>
<mask id="path-2-inside-1_2_8146" fill="white">
<path d="M12.955 7.5C12.955 10.5125 10.5129 12.9545 7.50044 12.9545C4.48798 12.9545 2.0459 10.5125 2.0459 7.5C2.0459 4.48754 4.48798 2.04546 7.50044 2.04546C10.5129 2.04546 12.955 4.48754 12.955 7.5ZM2.5333 7.5C2.5333 10.2433 4.75717 12.4671 7.50044 12.4671C10.2437 12.4671 12.4676 10.2433 12.4676 7.5C12.4676 4.75672 10.2437 2.53286 7.50044 2.53286C4.75717 2.53286 2.5333 4.75672 2.5333 7.5Z"/>
</mask>
<path d="M12.955 7.5C12.955 10.5125 10.5129 12.9545 7.50044 12.9545C4.48798 12.9545 2.0459 10.5125 2.0459 7.5C2.0459 4.48754 4.48798 2.04546 7.50044 2.04546C10.5129 2.04546 12.955 4.48754 12.955 7.5ZM2.5333 7.5C2.5333 10.2433 4.75717 12.4671 7.50044 12.4671C10.2437 12.4671 12.4676 10.2433 12.4676 7.5C12.4676 4.75672 10.2437 2.53286 7.50044 2.53286C4.75717 2.53286 2.5333 4.75672 2.5333 7.5Z" stroke="url(#paint0_linear_2_8146)" stroke-width="2" stroke-linejoin="round" stroke-dasharray="3 3" mask="url(#path-2-inside-1_2_8146)"/>
<circle cx="7.49956" cy="7.5" r="2.04545" fill="url(#paint1_linear_2_8146)"/>
<path d="M7.5 14.0625C5.75952 14.0625 4.09032 13.3711 2.85961 12.1404C1.6289 10.9097 0.9375 9.24048 0.9375 7.5C0.9375 5.75952 1.6289 4.09032 2.85961 2.85961C4.09032 1.6289 5.75952 0.9375 7.5 0.9375C9.24048 0.9375 10.9097 1.6289 12.1404 2.85961C13.3711 4.09032 14.0625 5.75952 14.0625 7.5C14.0625 9.24048 13.3711 10.9097 12.1404 12.1404C10.9097 13.3711 9.24048 14.0625 7.5 14.0625ZM7.5 15C9.48912 15 11.3968 14.2098 12.8033 12.8033C14.2098 11.3968 15 9.48912 15 7.5C15 5.51088 14.2098 3.60322 12.8033 2.1967C11.3968 0.790176 9.48912 0 7.5 0C5.51088 0 3.60322 0.790176 2.1967 2.1967C0.790176 3.60322 0 5.51088 0 7.5C0 9.48912 0.790176 11.3968 2.1967 12.8033C3.60322 14.2098 5.51088 15 7.5 15Z" fill="url(#paint2_linear_2_8146)"/>
<defs>
<linearGradient id="paint0_linear_2_8146" x1="7.50044" y1="2.04546" x2="7.50044" y2="12.9545" gradientUnits="userSpaceOnUse">
<stop offset="1" stop-color="#333333"/>
</linearGradient>
<linearGradient id="paint1_linear_2_8146" x1="7.49956" y1="5.45454" x2="7.49956" y2="9.54545" gradientUnits="userSpaceOnUse">
<stop offset="1" stop-color="#333333"/>
</linearGradient>
<linearGradient id="paint2_linear_2_8146" x1="7.5" y1="0" x2="7.5" y2="15" gradientUnits="userSpaceOnUse">
<stop offset="1" stop-color="#333333"/>
</linearGradient>
</defs>
</svg>
