<svg width="23" height="15" viewBox="0 0 23 15" fill="none" xmlns="http://www.w3.org/2000/svg">
<path d="M6.23633 4.82165H16.0364V12.8574V13.6609H11.8193C11.3766 13.6609 10.9463 13.514 10.5961 13.2432L8.01816 11.2502H6.23633V4.82165Z" fill="#D9D9D9"/>
<path d="M7.27582 5.625H15.591V13.125H10.394L8.31522 11.25H6.23641V6.5625L7.27582 5.625ZM6.23641 0V1.875H9.35462V3.75H6.23641L4.15761 5.625V8.4375H2.0788V5.625H0V13.125H2.0788V10.3125H4.15761V13.125H7.27582L9.35462 15H17.6698V11.25H19.7486V14.0625H22.8668V4.6875H19.7486V7.5H17.6698V3.75H11.4334V1.875H14.5516V0H6.23641Z" fill="url(#paint0_linear_2_8161)"/>
<defs>
<linearGradient id="paint0_linear_2_8161" x1="11.4334" y1="0" x2="11.4334" y2="15" gradientUnits="userSpaceOnUse">
<stop offset="1" stop-color="#333333"/>
</linearGradient>
</defs>
</svg>
