<svg width="17" height="17" viewBox="0 0 17 17" fill="none" xmlns="http://www.w3.org/2000/svg">
<mask id="mask0_2_8107" style="mask-type:alpha" maskUnits="userSpaceOnUse" x="0" y="0" width="17" height="17">
<path d="M16 8.5H11.5M8.5 16C12.6422 16 16 12.6422 16 8.5C16 4.35775 12.6422 1 8.5 1C4.35775 1 1 4.35775 1 8.5C1 12.6422 4.35775 16 8.5 16ZM8.5 16V11.5V16ZM1 8.5H5.5H1Z" stroke="white" stroke-width="2" stroke-linecap="round" stroke-linejoin="round"/>
<path d="M11.5 8.5C11.5 9.29565 11.1839 10.0587 10.6213 10.6213C10.0587 11.1839 9.29565 11.5 8.5 11.5C7.70435 11.5 6.94129 11.1839 6.37868 10.6213C5.81607 10.0587 5.5 9.29565 5.5 8.5C5.5 7.70435 5.81607 6.94129 6.37868 6.37868C6.94129 5.81607 7.70435 5.5 8.5 5.5C9.29565 5.5 10.0587 5.81607 10.6213 6.37868C11.1839 6.94129 11.5 7.70435 11.5 8.5Z" fill="white"/>
<path d="M11.5 8.5C11.5 9.29565 11.1839 10.0587 10.6213 10.6213C10.0587 11.1839 9.29565 11.5 8.5 11.5C7.70435 11.5 6.94129 11.1839 6.37868 10.6213C5.81607 10.0587 5.5 9.29565 5.5 8.5C5.5 7.70435 5.81607 6.94129 6.37868 6.37868C6.94129 5.81607 7.70435 5.5 8.5 5.5C9.29565 5.5 10.0587 5.81607 10.6213 6.37868C11.1839 6.94129 11.5 7.70435 11.5 8.5Z" fill="white"/>
<path d="M11.5 8.5C11.5 9.29565 11.1839 10.0587 10.6213 10.6213C10.0587 11.1839 9.29565 11.5 8.5 11.5C7.70435 11.5 6.94129 11.1839 6.37868 10.6213C5.81607 10.0587 5.5 9.29565 5.5 8.5C5.5 7.70435 5.81607 6.94129 6.37868 6.37868C6.94129 5.81607 7.70435 5.5 8.5 5.5C9.29565 5.5 10.0587 5.81607 10.6213 6.37868C11.1839 6.94129 11.5 7.70435 11.5 8.5V8.5Z" stroke="white" stroke-width="2" stroke-linecap="round" stroke-linejoin="round"/>
</mask>
<g mask="url(#mask0_2_8107)">
<path d="M-0.5 -0.5H17.5V17.5H-0.5V-0.5Z" fill="url(#paint0_linear_2_8107)"/>
<path d="M15.6738 7.75C15.6738 6.86358 15.4895 5.98583 15.1315 5.16689C14.7734 4.34794 14.2486 3.60382 13.587 2.97703C12.9253 2.35023 12.1399 1.85303 11.2754 1.51381C10.411 1.17459 9.4845 1 8.54883 1C7.61316 1 6.68665 1.17459 5.82221 1.51381C4.95776 1.85303 4.17231 2.35023 3.51069 2.97703C2.84907 3.60383 2.32425 4.34794 1.96619 5.16689C1.60812 5.98584 1.42383 6.86358 1.42383 7.75H4.77493C4.77493 7.28049 4.87254 6.81557 5.0622 6.3818C5.25185 5.94803 5.52984 5.55389 5.88028 5.2219C6.23072 4.8899 6.64675 4.62655 7.10462 4.44688C7.56249 4.2672 8.05323 4.17473 8.54883 4.17473C9.04442 4.17473 9.53517 4.2672 9.99304 4.44688C10.4509 4.62655 10.8669 4.8899 11.2174 5.2219C11.5678 5.55389 11.8458 5.94803 12.0355 6.3818C12.2251 6.81557 12.3227 7.28049 12.3227 7.75H15.6738Z" fill="#D9D9D9"/>
</g>
<defs>
<linearGradient id="paint0_linear_2_8107" x1="8.5" y1="-0.5" x2="8.5" y2="17.5" gradientUnits="userSpaceOnUse">
<stop offset="1" stop-color="#333333"/>
</linearGradient>
</defs>
</svg>
