<svg width="15" height="16" viewBox="0 0 15 16" fill="none" xmlns="http://www.w3.org/2000/svg">
<path d="M8.0698 0.865112L6.83048 1.57669L7.69231 3.06388L7.27208 4.61511L5.27778 5.14879L4.12393 4.01027L4.15242 2.29538H2.73504V3.59756H1.4245L1.43162 5.02071H3.14103L4.31624 6.16635L3.78205 8.15164L2.20085 8.56435L0.712251 7.71046L0 8.94149L1.12536 9.58902L0.477208 10.7133L1.71652 11.4249L2.5641 9.93769L4.15242 9.52498L4.50855 9.88788L5.5057 8.89168L5.12108 8.50743L5.65527 6.52925L7.64245 5.98845L8.01994 6.3727L9.02422 5.36938L8.64672 4.98513L9.06695 3.4339L10.5556 2.58712L9.8433 1.34187L8.71795 1.9894L8.0698 0.865112ZM13.6254 2.58712L1.71652 14.4847L2.62108 15.3955L6.10399 11.9159C6.573 12.2413 7.11359 12.4491 7.68 12.5215C8.24641 12.594 8.82195 12.529 9.35791 12.3322C9.89387 12.1353 10.3745 11.8123 10.759 11.3906C11.1435 10.9688 11.4207 10.4607 11.567 9.90923C11.8447 8.89168 11.6382 7.82432 11.0541 6.97043L14.537 3.49082L13.6254 2.58712ZM12.2151 6.145C12.5285 6.59329 12.7778 7.12697 12.9345 7.70335C13.0912 8.27972 13.1339 8.8561 13.084 9.42536L15 7.14832L12.2151 6.145ZM12.6282 11.0904C12.4003 11.6028 12.0442 12.0866 11.6382 12.5065C11.2179 12.9263 10.7336 13.2607 10.235 13.5027L13.1481 14.015L12.6282 11.0904ZM5.27778 13.0544L6.28205 15.8651L8.54701 13.9367C7.99145 13.9723 7.41453 13.951 6.83761 13.8015C6.24644 13.645 5.71937 13.3817 5.27778 13.0544Z" fill="url(#paint0_linear_2_8121)"/>
<defs>
<linearGradient id="paint0_linear_2_8121" x1="5.36325" y1="9.06245" x2="6.04636" y2="9.74621" gradientUnits="userSpaceOnUse">
<stop stop-color="#333333"/>
<stop offset="1" stop-color="#808080"/>
</linearGradient>
</defs>
</svg>
