<svg width="19" height="19" viewBox="0 0 19 19" fill="none" xmlns="http://www.w3.org/2000/svg">
<path d="M18.75 18.75H11.25V11.25H18.75V18.75ZM7.5 18.75H0V11.25H7.5V18.75ZM18.75 7.5H11.25V0H18.75V7.5ZM3.75 7.5C2.75544 7.5 1.80161 7.10491 1.09835 6.40165C0.395088 5.69839 0 4.74456 0 3.75C0 2.75544 0.395088 1.80161 1.09835 1.09835C1.80161 0.395088 2.75544 0 3.75 0C4.74456 0 5.69839 0.395088 6.40165 1.09835C7.10491 1.80161 7.5 2.75544 7.5 3.75C7.5 4.74456 7.10491 5.69839 6.40165 6.40165C5.69839 7.10491 4.74456 7.5 3.75 7.5Z" fill="#424242"/>
</svg>
