<svg width="20" height="19" viewBox="0 0 20 19" fill="none" xmlns="http://www.w3.org/2000/svg">
<path d="M3.5 0.333328C2.84 0.333328 2.28 0.781328 2.08 1.39999L0 7.79999V16.3333C0 16.6162 0.105357 16.8875 0.292893 17.0876C0.48043 17.2876 0.734784 17.4 1 17.4H2C2.26522 17.4 2.51957 17.2876 2.70711 17.0876C2.89464 16.8875 3 16.6162 3 16.3333V15.2667H8.3C8.10372 14.5748 8.00266 13.8562 8 13.1333C8.00161 11.8432 8.31658 10.5756 8.91419 9.45392C9.51181 8.3323 10.3717 7.39497 11.41 6.73333H2L3.5 1.93333H14.5L15.68 5.69866C16.293 5.76683 16.8949 5.92105 17.47 6.15733L15.92 1.39999C15.72 0.781328 15.16 0.333328 14.5 0.333328H3.5ZM14 7.79999C13.9389 7.79878 13.8793 7.82057 13.8318 7.86153C13.7842 7.90249 13.7517 7.96002 13.74 8.02399L13.55 9.43199C13.25 9.57066 12.96 9.74133 12.7 9.93333L11.46 9.39999C11.35 9.39999 11.22 9.39999 11.15 9.53866L10.15 11.384C10.09 11.5013 10.11 11.64 10.21 11.7253L11.27 12.6C11.2301 12.9543 11.2301 13.3124 11.27 13.6667L10.21 14.5413C10.1651 14.5824 10.1346 14.6387 10.1237 14.7007C10.1128 14.7628 10.1221 14.827 10.15 14.8827L11.15 16.728C11.21 16.8667 11.34 16.8667 11.46 16.8667L12.7 16.3333C12.96 16.5253 13.24 16.7067 13.55 16.8347L13.74 18.2427C13.76 18.3707 13.86 18.4667 14 18.4667H16C16.11 18.4667 16.22 18.3707 16.24 18.2427L16.43 16.8347C16.73 16.696 17 16.5253 17.27 16.3333L18.5 16.8667C18.63 16.8667 18.76 16.8667 18.83 16.728L19.83 14.8827C19.8579 14.827 19.8672 14.7628 19.8563 14.7007C19.8454 14.6387 19.8149 14.5824 19.77 14.5413L18.7 13.6667C18.72 13.4853 18.74 13.3147 18.74 13.1333C18.74 12.952 18.73 12.7813 18.7 12.6L19.76 11.7253C19.8049 11.6842 19.8354 11.628 19.8463 11.5659C19.8572 11.5039 19.8479 11.4397 19.82 11.384L18.82 9.53866C18.76 9.39999 18.63 9.39999 18.5 9.39999L17.27 9.93333C17 9.74133 16.73 9.55999 16.42 9.43199L16.23 8.02399C16.2237 7.96323 16.1969 7.907 16.1546 7.86578C16.1122 7.82456 16.0573 7.80118 16 7.79999H14ZM3.5 8.86666C3.89782 8.86666 4.27936 9.03523 4.56066 9.33529C4.84196 9.63535 5 10.0423 5 10.4667C5 10.891 4.84196 11.298 4.56066 11.598C4.27936 11.8981 3.89782 12.0667 3.5 12.0667C3.10218 12.0667 2.72064 11.8981 2.43934 11.598C2.15804 11.298 2 10.891 2 10.4667C2 10.0423 2.15804 9.63535 2.43934 9.33529C2.72064 9.03523 3.10218 8.86666 3.5 8.86666ZM15 11.5333C15.83 11.5333 16.5 12.248 16.5 13.1333C16.5 14.0187 15.83 14.7333 15 14.7333C14.16 14.7333 13.5 14.0187 13.5 13.1333C13.5 12.248 14.17 11.5333 15 11.5333Z" fill="#424242"/>
</svg>
