<svg width="24" height="24" viewBox="0 0 24 24" fill="none" xmlns="http://www.w3.org/2000/svg">
<path d="M19.414 8.414L13.585 2.586C13.5695 2.57163 13.5532 2.55827 13.536 2.546C13.5236 2.53645 13.5116 2.52645 13.5 2.516C13.4312 2.45107 13.358 2.39093 13.281 2.336C13.2554 2.31948 13.2287 2.30478 13.201 2.292L13.153 2.268L13.103 2.239C13.049 2.208 12.994 2.176 12.937 2.152C12.7379 2.07246 12.5271 2.02585 12.313 2.014C12.2932 2.01271 12.2735 2.01038 12.254 2.007C12.2269 2.00281 12.1995 2.00047 12.172 2H6C5.46957 2 4.96086 2.21071 4.58579 2.58579C4.21071 2.96086 4 3.46957 4 4V20C4 20.5304 4.21071 21.0391 4.58579 21.4142C4.96086 21.7893 5.46957 22 6 22H18C18.5304 22 19.0391 21.7893 19.4142 21.4142C19.7893 21.0391 20 20.5304 20 20V9.828C19.9999 9.29761 19.7891 8.78899 19.414 8.414ZM18.5 20C18.5 20.1326 18.4473 20.2598 18.3536 20.3536C18.2598 20.4473 18.1326 20.5 18 20.5H6C5.86739 20.5 5.74021 20.4473 5.64645 20.3536C5.55268 20.2598 5.5 20.1326 5.5 20V4C5.5 3.86739 5.55268 3.74021 5.64645 3.64645C5.74021 3.55268 5.86739 3.5 6 3.5H12V8C12 8.53043 12.2107 9.03914 12.5858 9.41421C12.9609 9.78929 13.4696 10 14 10H18.5V20Z" fill="#424242"/>
<path d="M9 12.5C9 12.7761 8.77614 13 8.5 13C8.22386 13 8 12.7761 8 12.5C8 12.2239 8.22386 12 8.5 12C8.77614 12 9 12.2239 9 12.5Z" fill="#424242"/>
<path d="M9 14.5C9 14.7761 8.77614 15 8.5 15C8.22386 15 8 14.7761 8 14.5C8 14.2239 8.22386 14 8.5 14C8.77614 14 9 14.2239 9 14.5Z" fill="#424242"/>
<path d="M9 16.5C9 16.7761 8.77614 17 8.5 17C8.22386 17 8 16.7761 8 16.5C8 16.2239 8.22386 16 8.5 16C8.77614 16 9 16.2239 9 16.5Z" fill="#424242"/>
<path d="M10 12.5C10 12.2239 10.2239 12 10.5 12H15.5C15.7761 12 16 12.2239 16 12.5C16 12.7761 15.7761 13 15.5 13H10.5C10.2239 13 10 12.7761 10 12.5Z" fill="#424242"/>
<path d="M10 14.5C10 14.2239 10.2239 14 10.5 14H15.5C15.7761 14 16 14.2239 16 14.5C16 14.7761 15.7761 15 15.5 15H10.5C10.2239 15 10 14.7761 10 14.5Z" fill="#424242"/>
<path d="M10 16.5C10 16.2239 10.2239 16 10.5 16H15.5C15.7761 16 16 16.2239 16 16.5C16 16.7761 15.7761 17 15.5 17H10.5C10.2239 17 10 16.7761 10 16.5Z" fill="#424242"/>
</svg>
