<svg width="24" height="24" viewBox="0 0 24 24" fill="none" xmlns="http://www.w3.org/2000/svg">
<path d="M18 2H12V8.3L9.5 6.95L7 8.3V2H6C4.9 2 4 2.81 4 3.8V18.2C4 19.19 4.9 20 6 20H18C19.1 20 20 19.19 20 18.2V3.8C20 3.32261 19.7893 2.86477 19.4142 2.52721C19.0391 2.18964 18.5304 2 18 2ZM17.68 16.769C17.57 16.85 16.47 17.525 16.05 17.75C15.63 18.011 14 18.848 14.26 17.228C14.89 13.952 16.11 12.008 14.65 12.854C14.27 13.061 14.05 13.187 13.91 13.25C13.78 13.349 13.79 13.34 13.68 13.169C13.57 12.998 13.53 13.007 13.67 12.917C13.67 12.917 15.9 11.306 16.72 11.252C17.5 11.189 17.31 12.053 17.24 12.449C16.78 14.114 15.94 16.535 16.07 16.886C16.18 17.237 17 16.679 17.44 16.4C17.44 16.4 17.5 16.337 17.61 16.445C17.72 16.598 17.83 16.67 17.68 16.769ZM16.97 10.154C16.4 10.154 15.94 9.74 15.94 9.227C15.94 8.714 16.4 8.3 16.97 8.3C17.54 8.3 18 8.714 18 9.227C18 9.74 17.54 10.154 16.97 10.154Z" fill="#424242"/>
</svg>
