<svg width="24" height="24" viewBox="0 0 24 24" fill="none" xmlns="http://www.w3.org/2000/svg">
<path d="M20.4004 12.48V14.7312C20.4004 15.7548 19.5556 16.6104 18.4804 16.6104H12.5764L7.44759 20.4H7.44039V16.6104H5.52039C4.44519 16.6104 3.60039 15.7548 3.60039 14.7312V6.6792C3.60039 5.6556 4.44519 4.8 5.52039 4.8H11.0488C11.1676 4.3812 11.3248 3.9804 11.5204 3.6H5.52039C3.79719 3.6 2.40039 4.9788 2.40039 6.6792V14.7312C2.40039 16.4328 3.79719 17.8104 5.52039 17.8104H6.24039V20.4156C6.24039 20.6712 6.32439 20.9196 6.48039 21.1248C6.87639 21.6492 7.62879 21.756 8.15919 21.3648L12.9724 17.8104H18.4804C20.2036 17.8104 21.6004 16.4316 21.6004 14.7312V11.6916C21.2302 11.9972 20.8278 12.2616 20.4004 12.48Z" fill="#424242"/>
<path d="M8.4002 12.6C8.4002 12.9314 8.13157 13.2 7.8002 13.2C7.46882 13.2 7.2002 12.9314 7.2002 12.6C7.2002 12.2686 7.46882 12 7.8002 12C8.13157 12 8.4002 12.2686 8.4002 12.6Z" fill="#424242"/>
<path d="M8.4002 10.2C8.4002 10.5314 8.13157 10.8 7.8002 10.8C7.46882 10.8 7.2002 10.5314 7.2002 10.2C7.2002 9.86863 7.46882 9.6 7.8002 9.6C8.13157 9.6 8.4002 9.86863 8.4002 10.2Z" fill="#424242"/>
<path d="M9.59961 12.6C9.59961 12.2686 9.86824 12 10.1996 12H13.7996C14.131 12 14.3996 12.2686 14.3996 12.6C14.3996 12.9314 14.131 13.2 13.7996 13.2H10.1996C9.86824 13.2 9.59961 12.9314 9.59961 12.6Z" fill="#424242"/>
<path d="M9.59961 10.2C9.59961 9.86863 9.80108 9.6 10.0496 9.6H12.7496C12.9981 9.6 13.1996 9.86863 13.1996 10.2C13.1996 10.5314 12.9981 10.8 12.7496 10.8H10.0496C9.80108 10.8 9.59961 10.5314 9.59961 10.2Z" fill="#424242"/>
<path d="M19.642 1.53702C19.3982 1.39632 19.1291 1.30501 18.8501 1.2683C18.5711 1.2316 18.2875 1.25021 18.0157 1.32309C17.4667 1.47027 16.9986 1.82954 16.7145 2.32184C16.4303 2.81415 16.3534 3.39918 16.5006 3.94823C16.6477 4.49727 17.007 4.96536 17.4992 5.24952C17.9915 5.53368 18.5765 5.61064 19.1255 5.46346C19.6745 5.31627 20.1426 4.95701 20.4267 4.4647C20.7109 3.97239 20.7878 3.38737 20.6407 2.83832C20.4935 2.28927 20.1342 1.82118 19.642 1.53702ZM14.2852 7.94631C14.2852 7.20702 14.8851 6.60702 15.6244 6.60702H21.5168C22.2561 6.60702 22.856 7.20702 22.856 7.94631V8.0406C22.8571 8.11667 22.8582 8.19274 22.855 8.26881C22.845 8.43229 22.8214 8.59464 22.7843 8.75417C22.6919 9.15108 22.5246 9.52673 22.2914 9.86095C21.7043 10.6967 20.5901 11.4285 18.5706 11.4285C16.8446 11.4285 15.7786 10.8927 15.1412 10.2177C14.754 9.80865 14.4836 9.30326 14.358 8.75417C14.3206 8.59467 14.2965 8.43232 14.2862 8.26881L14.2852 7.94952V7.94631Z" fill="#424242"/>
</svg>
