<svg width="18" height="18" viewBox="0 0 18 18" fill="none" xmlns="http://www.w3.org/2000/svg">
<g clip-path="url(#clip0_2_8029)">
<path d="M11.4 17.4H10.8C10.8 17.5114 10.831 17.6207 10.8896 17.7154C10.9482 17.8102 11.032 17.8868 11.1317 17.9367C11.2313 17.9865 11.3429 18.0076 11.4539 17.9976C11.5649 17.9876 11.6709 17.9469 11.76 17.88L11.4 17.4ZM13.8 15.6L14.16 15.12C14.0561 15.0421 13.9298 15 13.8 15C13.6702 15 13.5439 15.0421 13.44 15.12L13.8 15.6ZM16.2 17.4L15.84 17.88C15.9291 17.9469 16.0351 17.9876 16.1461 17.9976C16.2571 18.0076 16.3687 17.9865 16.4683 17.9367C16.568 17.8868 16.6518 17.8102 16.7104 17.7154C16.769 17.6207 16.8 17.5114 16.8 17.4H16.2ZM13.5 10.5H13.44L9.6 10.2C9.6 11.3139 10.0425 12.3822 10.8302 13.1698C11.6178 13.9575 12.6861 14.4 13.8 14.4L13.5 10.5ZM13.44 10.5H13.5L13.8 14.4C14.9139 14.4 15.9822 13.9575 16.7698 13.1698C17.5575 12.3822 18 11.3139 18 10.2L13.44 10.5ZM13.5 10.5H13.44L18 10.2C18 9.08609 17.5575 8.01781 16.7698 7.23015C15.9822 6.4425 14.9139 6 13.8 6L13.5 10.5ZM13.8 6C12.6861 6 11.6178 6.4425 10.8302 7.23015C10.0425 8.01781 9.6 9.08609 9.6 10.2L13.44 10.5H13.5L13.8 6ZM10.8 12.6V17.4H12L13.44 10.5L10.8 12.6ZM11.76 17.88L14.16 16.08L13.44 15.12L11.04 16.92L11.76 17.88ZM13.44 16.08L15.84 17.88L16.56 16.92L14.16 15.12L13.44 16.08ZM16.8 17.4V12.6H15.6V17.4H16.8ZM18 6V1.8H16.8V6H18ZM16.2 0H1.8V1.2H16.2V0ZM0 1.8V16.2H1.2V1.8H0ZM1.8 18H9.6V16.8H1.8V18ZM0 16.2C0 16.6774 0.189642 17.1352 0.527208 17.4728C0.864773 17.8104 1.32261 18 1.8 18V16.8C1.64087 16.8 1.48826 16.7368 1.37574 16.6243C1.26321 16.5117 1.2 16.3591 1.2 16.2H0ZM1.8 0C1.32261 0 0.864773 0.189642 0.527208 0.527208C0.189642 0.864773 0 1.32261 0 1.8H1.2C1.2 1.64087 1.26321 1.48826 1.37574 1.37574C1.48826 1.26321 1.64087 1.2 1.8 1.2V0ZM18 1.8C18 1.32261 17.8104 0.864773 17.4728 0.527208C17.1352 0.189642 16.6774 0 16.2 0V1.2C16.3591 1.2 16.5117 1.26321 16.6243 1.37574C16.7368 1.48826 16.8 1.64087 16.8 1.8H18ZM3.6 6H9.6V4.8H3.6V6ZM3.6 9.6H7.2V8.4H3.6V9.6Z" fill="#424242"/>
</g>
<defs>
<clipPath id="clip0_2_8029">
<rect width="18" height="18" fill="white"/>
</clipPath>
</defs>
</svg>
